<?xml version="1.0" standalone="no"?>
<!DOCTYPE svg PUBLIC "-//W3C//DTD SVG 1.1//EN" "http://www.w3.org/Graphics/SVG/1.1/DTD/svg11.dtd" >
<svg xmlns="http://www.w3.org/2000/svg" xmlns:xlink="http://www.w3.org/1999/xlink" version="1.1">
<metadata>
Created by FontForge 20201107 at Tue Mar 18 03:35:00 2025
 By 
Copyright 2014 by (URW)++ Design &#38; Development GmbH
</metadata>
<defs>
<font id="NimbusSanL-Bol" horiz-adv-x="1138" >
  <font-face 
    font-family="NimbusSanL"
    font-weight="700"
    font-stretch="normal"
    units-per-em="2048"
    panose-1="0 0 8 0 0 0 0 0 0 0"
    ascent="1493"
    descent="-555"
    x-height="1106"
    cap-height="1493"
    bbox="-309 -670 2189 2191"
    underline-thickness="141"
    underline-position="-316"
    unicode-range="U+0020-FB04"
  />
<missing-glyph horiz-adv-x="569" 
 />
    <glyph glyph-name="ff" unicode="ff" horiz-adv-x="1363" 
d="M641 1083v-190h-170v-893h-287v893h-155v190h155v134q0 276 283 276q73 0 164 -6v-215q-43 6 -82 6q-78 0 -78 -86v-109h170zM1323 1083v-190h-170v-893h-287v893h-155v190h155v134q0 276 283 276q73 0 164 -6v-215q-43 6 -82 6q-78 0 -78 -86v-109h170z" />
    <glyph glyph-name="fi" unicode="fi" horiz-adv-x="1251" 
d="M641 1083v-190h-170v-893h-287v893h-155v190h155v134q0 276 283 276q73 0 164 -6v-215q-43 6 -82 6q-78 0 -78 -86v-109h170zM1106 1106v-1106h-287v1106h287zM1106 1493v-256h-287v256h287z" />
    <glyph glyph-name="fl" unicode="fl" horiz-adv-x="1251" 
d="M641 1083v-190h-170v-893h-287v893h-155v190h155v134q0 276 283 276q73 0 164 -6v-215q-43 6 -82 6q-78 0 -78 -86v-109h170zM1106 1493v-1493h-287v1493h287z" />
    <glyph glyph-name="ffi" unicode="ffi" horiz-adv-x="1931" 
d="M641 1083v-190h-170v-893h-287v893h-155v190h155v134q0 276 283 276q73 0 164 -6v-215q-43 6 -82 6q-78 0 -78 -86v-109h170zM1323 1083v-190h-170v-893h-287v893h-155v190h155v134q0 276 283 276q73 0 164 -6v-215q-43 6 -82 6q-78 0 -78 -86v-109h170zM1788 1106v-1106
h-287v1106h287zM1788 1493v-256h-287v256h287z" />
    <glyph glyph-name=".notdef" horiz-adv-x="569" 
 />
    <glyph glyph-name=".null" horiz-adv-x="0" 
 />
    <glyph glyph-name="nonmarkingreturn" horiz-adv-x="682" 
 />
    <glyph glyph-name="space" unicode=" " horiz-adv-x="569" 
 />
    <glyph glyph-name="exclam" unicode="!" horiz-adv-x="681" 
d="M537 1487v-430l-86 -633h-138l-84 633v430h308zM537 299v-299h-308v299h308z" />
    <glyph glyph-name="quotedbl" unicode="&#x22;" horiz-adv-x="970" 
d="M385 1493v-266l-86 -264h-115l-82 264v266h283zM868 1493v-266l-86 -264h-114l-82 264v266h282z" />
    <glyph glyph-name="numbersign" unicode="#" 
d="M299 -66h-217l82 418h-158v203h199l61 313h-203v203h244l70 356h215l-70 -356h211l70 356h215l-70 -356h185v-203h-224l-63 -313h205v-203h-244l-82 -418h-215l82 418h-211zM420 555h211l61 313h-211z" />
    <glyph glyph-name="dollar" unicode="$" 
d="M1059 1020h-262q3 94 -39.5 154.5t-120.5 70.5v-411q239 -66 340.5 -166t101.5 -269q0 -117 -46 -210.5t-130 -147.5q-106 -67 -266 -84v-215h-139v215q-91 9 -154.5 30.5t-122.5 63.5q-176 129 -176 355v18h268q9 -217 185 -248v436q-418 95 -418 437q0 172 110 278
t308 125v111h139v-111q194 -11 306.5 -125.5t115.5 -306.5zM498 874v371q-85 -17 -125.5 -63t-40.5 -125q0 -67 40 -111t126 -72zM637 578v-402q172 43 172 199q0 151 -172 203z" />
    <glyph glyph-name="percent" unicode="%" horiz-adv-x="1820" 
d="M422 1436q158 0 267.5 -109.5t109.5 -267.5q0 -152 -111 -260.5t-266 -108.5t-266 109.5t-111 263.5t111 263.5t266 109.5zM422 1233q-72 0 -123 -50t-51 -120q0 -72 51 -122t123 -50t123 50t51 120q0 72 -50.5 122t-123.5 50zM1241 1452h156l-809 -1493h-158zM1391 721
q158 0 267 -109.5t109 -269.5q0 -151 -110.5 -260t-265.5 -109q-157 0 -267 110t-110 265q0 154 110.5 263.5t266.5 109.5zM1391 518q-72 0 -123 -50.5t-51 -121.5t51 -121.5t123 -50.5q71 0 122.5 50.5t51.5 119.5q0 74 -50.5 124t-123.5 50z" />
    <glyph glyph-name="ampersand" unicode="&#x26;" horiz-adv-x="1478" 
d="M1077 764h232v-23v-10q-3 -118 -41 -232t-99 -184l252 -315h-329l-95 115q-126 -94 -209.5 -128t-189.5 -34q-218 0 -351.5 121.5t-133.5 320.5q0 145 70.5 238.5t250.5 187.5q-21 28 -24 31q-9 12 -29 35t-29 35q-86 103 -86 217q0 146 111 244t276 98
q164 0 264.5 -87.5t100.5 -228.5q0 -113 -51.5 -190.5t-188.5 -171.5l238 -295q34 65 47.5 116.5t13.5 118.5v21zM569 653l-96 -59q-88 -59 -88 -164q0 -92 67 -166t150 -74q99 0 246 113zM649 963q123 69 123 176q0 57 -30.5 87.5t-86.5 30.5q-54 0 -86 -27t-32 -71
q0 -38 18 -69.5t94 -126.5z" />
    <glyph glyph-name="quotesingle" unicode="'" horiz-adv-x="487" 
d="M385 1493v-266l-86 -264h-115l-82 264v266h283z" />
    <glyph glyph-name="parenleft" unicode="(" horiz-adv-x="681" 
d="M416 1493h205q-163 -314 -225 -519t-62 -431q0 -228 61.5 -432.5t225.5 -520.5h-205q-177 267 -255.5 491t-78.5 462q0 236 78.5 459.5t255.5 490.5z" />
    <glyph glyph-name="parenright" unicode=")" horiz-adv-x="681" 
d="M250 -410h-205q163 313 225 519t62 432q0 228 -61.5 432t-225.5 520h205q177 -267 255.5 -490.5t78.5 -461.5q0 -236 -78.5 -460t-255.5 -491z" />
    <glyph glyph-name="asterisk" unicode="*" horiz-adv-x="796" 
d="M268 1114l-221 74l45 141l223 -74v238h148v-238l221 74l45 -143l-221 -72l137 -192l-119 -88l-137 192l-139 -192l-119 88z" />
    <glyph glyph-name="plus" unicode="+" horiz-adv-x="1196" 
d="M1092 596v-244h-373v-372h-244v372h-373v244h373v373h244v-373h373z" />
    <glyph glyph-name="comma" unicode="," horiz-adv-x="569" 
d="M131 299h307v-281q6 -169 -68.5 -259t-238.5 -115v114q182 34 176 242h-176v299z" />
    <glyph glyph-name="hyphen" unicode="-" horiz-adv-x="681" 
d="M610 700v-276h-557v276h557z" />
    <glyph glyph-name="period" unicode="." horiz-adv-x="569" 
d="M438 299v-299h-307v299h307z" />
    <glyph glyph-name="slash" unicode="/" horiz-adv-x="569" 
d="M426 1462h137l-422 -1491h-137z" />
    <glyph glyph-name="zero" unicode="0" 
d="M559 1483q128 0 230.5 -55.5t166.5 -159.5q103 -166 103 -559q0 -403 -123 -572q-137 -184 -377 -184q-128 0 -230.5 55.5t-166.5 159.5q-103 163 -103 549q0 414 123 579q66 91 163 139t214 48zM559 1251q-62 0 -107.5 -35.5t-68.5 -101.5q-37 -95 -37 -395
q0 -313 45 -408q53 -112 168 -112q125 0 176 133q17 43 27 150t10 233q0 325 -45 420q-53 116 -168 116z" />
    <glyph glyph-name="one" unicode="1" 
d="M487 1001h-348v191q377 0 445 260h190v-1452h-287v1001z" />
    <glyph glyph-name="two" unicode="2" 
d="M1049 256v-256h-988q9 202 79 320.5t255 244.5q129 91 196.5 144.5t110.5 106t54.5 94.5t11.5 106q0 109 -55 171t-150 62q-98 0 -152.5 -67t-54.5 -189v-47h-276v51q0 230 125.5 358t351.5 128q227 0 362.5 -125t135.5 -336q0 -149 -68 -251t-258 -241
q-159 -115 -213.5 -165t-83.5 -109h617z" />
    <glyph glyph-name="three" unicode="3" 
d="M444 649v193h25q254 0 254 219q0 91 -47 140.5t-133 49.5q-63 0 -109.5 -27t-66.5 -75q-20 -54 -23 -154h-266q0 89 7 137t28 101q47 118 162 184t274 66q211 0 336 -107.5t125 -288.5q0 -99 -45.5 -172.5t-145.5 -136.5q123 -60 180.5 -146.5t57.5 -213.5
q0 -212 -138 -338.5t-370 -126.5q-224 0 -356.5 127.5t-133.5 345.5h279q12 -227 217 -227q94 0 154.5 61.5t60.5 157.5q0 79 -43 138t-115 79q-38 10 -60.5 12t-107.5 2z" />
    <glyph glyph-name="four" unicode="4" 
d="M1069 559v-237h-151v-322h-287v322h-582v241l531 889h338v-893h151zM631 559v621l-379 -621h379z" />
    <glyph glyph-name="five" unicode="5" 
d="M1001 1452v-256h-600l-47 -303q63 47 121.5 67.5t130.5 20.5q201 0 327 -139t126 -363q0 -235 -145.5 -380.5t-378.5 -145.5q-212 0 -344.5 117.5t-135.5 308.5h283q5 -88 56 -134t145 -46q109 0 171 73t62 201q0 132 -62 206.5t-171 74.5q-137 0 -185 -111h-258l129 809
h776z" />
    <glyph glyph-name="six" unicode="6" 
d="M1038 1122h-266q-28 69 -68.5 99t-109.5 30q-151 0 -209 -159q-15 -42 -21.5 -88.5t-9.5 -145.5l-2 -31q67 70 133 99.5t156 29.5q187 0 304.5 -131t117.5 -340q0 -238 -134 -385t-351 -147q-129 0 -237 57t-171 158q-55 87 -79.5 210.5t-24.5 311.5q0 198 28 329.5
t92 237.5q66 109 173.5 167.5t242.5 58.5q118 0 214 -43.5t153 -122.5q28 -40 43.5 -82.5t25.5 -112.5zM569 729q-98 0 -159.5 -74.5t-61.5 -193.5q0 -117 61.5 -189.5t159.5 -72.5q96 0 159 75.5t63 190.5q0 121 -60.5 192.5t-161.5 71.5z" />
    <glyph glyph-name="seven" unicode="7" 
d="M1081 1452v-225q-258 -312 -379 -597.5t-141 -629.5h-289q29 231 72.5 391.5t118.5 319.5q43 95 148 254.5t171 230.5h-723v256h1022z" />
    <glyph glyph-name="eight" unicode="8" 
d="M838 791q126 -69 181.5 -156.5t55.5 -216.5q0 -206 -143.5 -335.5t-370.5 -129.5q-229 0 -372.5 129.5t-143.5 335.5q0 129 56 216.5t182 156.5q-99 53 -144 122.5t-45 173.5q0 172 132 284t335 112q201 0 333 -111.5t132 -281.5q0 -71 -25 -134t-69 -104
q-29 -25 -94 -61zM563 1251q-97 0 -157 -52.5t-60 -135.5q0 -86 60 -139.5t157 -53.5q94 0 154.5 54t60.5 137q0 85 -60 137.5t-155 52.5zM559 676q-104 0 -165.5 -66t-61.5 -176q0 -107 61.5 -171t165.5 -64t166.5 63.5t62.5 167.5q0 114 -61.5 180t-167.5 66z" />
    <glyph glyph-name="nine" unicode="9" 
d="M78 338h276q5 -65 52.5 -103t123.5 -38q122 0 181 101.5t59 311.5q-61 -68 -81 -83q-4 -4 -9 -7q-72 -53 -188 -53q-194 0 -314.5 140t-120.5 364q0 227 136 369.5t354 142.5q131 0 235.5 -60.5t173.5 -177.5q101 -165 101 -487q0 -175 -32 -330.5t-89 -251.5
q-132 -225 -414 -225q-187 0 -313 110t-131 277zM539 1249q-97 0 -153 -74t-56 -200t57 -198t156 -72q100 0 160.5 73t60.5 193q0 129 -60.5 203.5t-164.5 74.5z" />
    <glyph glyph-name="colon" unicode=":" horiz-adv-x="681" 
d="M539 299v-299h-308v299h308zM539 1065v-299h-308v299h308z" />
    <glyph glyph-name="semicolon" unicode=";" horiz-adv-x="681" 
d="M231 299h308v-281q6 -168 -68.5 -258.5t-239.5 -115.5v114q183 34 177 242h-177v299zM539 1065v-299h-308v299h308z" />
    <glyph glyph-name="less" unicode="&#x3c;" horiz-adv-x="1196" 
d="M1083 971v-223l-782 -273l782 -268v-227l-1001 372v248z" />
    <glyph glyph-name="equal" unicode="=" horiz-adv-x="1196" 
d="M1094 842v-244h-992v244h992zM1094 350v-244h-992v244h992z" />
    <glyph glyph-name="greater" unicode="&#x3e;" horiz-adv-x="1196" 
d="M82 -20v223l782 272l-782 268v228l1001 -373v-248z" />
    <glyph glyph-name="question" unicode="?" horiz-adv-x="1251" 
d="M756 412h-254q-4 130 39 215.5t166 189.5q89 73 116 117t27 113q0 101 -61 168t-152 67q-106 0 -166.5 -79.5t-60.5 -217.5h-279q2 126 23.5 207.5t72.5 148.5q133 183 402 183q226 0 368 -131t142 -340q0 -129 -52 -213t-194 -185q-93 -65 -115 -103.5t-22 -139.5z
M788 299v-299h-307v299h307z" />
    <glyph glyph-name="at" unicode="@" horiz-adv-x="1996" 
d="M1319 1040h184l-160 -573q-16 -59 -16 -86q0 -46 27 -73t73 -27q54 0 114.5 39.5t111.5 107.5q104 144 104 330q0 242 -201 422q-212 188 -509 188q-359 0 -582 -258q-100 -116 -155.5 -264t-55.5 -301q0 -311 242 -500q215 -166 499 -166q233 0 424 82l58 -149
q-211 -93 -486 -93q-380 0 -626 195q-145 114 -227.5 278t-82.5 340q0 186 78 372t215 327q284 295 707 295q392 0 657 -256q117 -114 172 -246t55 -297q0 -249 -167 -440q-73 -83 -162.5 -127.5t-182.5 -44.5q-105 0 -182 53q-32 22 -47 42.5t-27 57.5q-60 -72 -141 -112.5
t-166 -40.5q-140 0 -238 102t-98 248q0 104 40.5 212.5t111.5 196.5q69 87 168.5 137t204.5 50q86 0 141 -35.5t92 -112.5zM1047 915q-79 0 -153.5 -59t-120.5 -156t-46 -200q0 -94 52 -156.5t130 -62.5q44 0 94 26.5t87 69.5q57 66 93 159t36 171q0 97 -46 152.5t-126 55.5
z" />
    <glyph glyph-name="A" unicode="A" horiz-adv-x="1478" 
d="M1026 301h-559l-100 -301h-314l531 1493h340l516 -1493h-316zM942 557l-194 584l-195 -584h389z" />
    <glyph glyph-name="B" unicode="B" horiz-adv-x="1478" 
d="M168 0v1493h666q120 0 203 -26t149 -83q63 -56 99 -131t36 -153q0 -95 -47.5 -165.5t-157.5 -141.5q248 -143 248 -363q0 -91 -39.5 -177.5t-107.5 -143.5q-67 -57 -157.5 -83t-219.5 -26h-672zM475 1237v-338h334q217 0 217 170q0 168 -217 168h-334zM475 643v-387h367
q227 0 227 193q0 194 -227 194h-367z" />
    <glyph glyph-name="C" unicode="C" horiz-adv-x="1478" 
d="M1397 987h-293q-31 137 -109 202.5t-211 65.5q-182 0 -284.5 -139.5t-102.5 -386.5q0 -245 99.5 -381.5t277.5 -136.5q142 0 228.5 78t101.5 221h299q-13 -256 -185 -406.5t-452 -150.5q-312 0 -494 209.5t-182 570.5q0 362 184 573.5t500 211.5q167 0 301.5 -61
t220.5 -175q47 -63 70 -130.5t31 -164.5z" />
    <glyph glyph-name="D" unicode="D" horiz-adv-x="1478" 
d="M158 0v1493h583q172 0 284.5 -40.5t188.5 -131.5q88 -106 134.5 -253t46.5 -320q0 -175 -46.5 -322.5t-134.5 -251.5q-77 -91 -190 -132.5t-283 -41.5h-583zM465 256h276q346 0 346 489q0 492 -346 492h-276v-981z" />
    <glyph glyph-name="E" unicode="E" horiz-adv-x="1366" 
d="M469 643v-387h809v-256h-1116v1493h1079v-256h-772v-338h715v-256h-715z" />
    <glyph glyph-name="F" unicode="F" horiz-adv-x="1251" 
d="M459 643v-643h-307v1493h1048v-256h-741v-338h653v-256h-653z" />
    <glyph glyph-name="G" unicode="G" horiz-adv-x="1593" 
d="M1456 803v-807h-184l-37 197q-86 -126 -193 -183t-258 -57q-199 0 -358.5 100.5t-249.5 279.5t-90 402q0 230 90.5 408t255 276.5t377.5 98.5q270 0 444.5 -135t202.5 -367h-289q-20 58 -39.5 89.5t-52.5 59.5q-104 90 -264 90q-196 0 -307 -137t-111 -379
q0 -230 119.5 -377t306.5 -147q88 0 169 38t136 105q63 74 74 189h-340v256h598z" />
    <glyph glyph-name="H" unicode="H" horiz-adv-x="1478" 
d="M1038 678h-592v-678h-307v1493h307v-559h590v559h310v-1493h-308v678z" />
    <glyph glyph-name="I" unicode="I" horiz-adv-x="569" 
d="M436 1493v-1493h-307v1493h307z" />
    <glyph glyph-name="J" unicode="J" 
d="M688 1493h307v-1104q0 -209 -125 -322.5t-354 -113.5q-211 0 -342 119q-66 62 -95.5 140t-29.5 194v147h307v-143q0 -103 39 -149t127 -46q80 0 123 45t43 129v1104z" />
    <glyph glyph-name="K" unicode="K" horiz-adv-x="1478" 
d="M459 500v-500h-307v1493h307v-655l583 655h363l-596 -643l659 -850h-366l-490 659z" />
    <glyph glyph-name="L" unicode="L" horiz-adv-x="1251" 
d="M471 1493v-1237h715v-256h-1022v1493h307z" />
    <glyph glyph-name="M" unicode="M" horiz-adv-x="1705" 
d="M442 1163v-1163h-307v1493h459l270 -1188l262 1188h463v-1493h-307v1163l-264 -1163h-307z" />
    <glyph glyph-name="N" unicode="N" horiz-adv-x="1478" 
d="M1047 0l-601 1032v-1032h-307v1493h316l592 -1016v1016h307v-1493h-307z" />
    <glyph glyph-name="O" unicode="O" horiz-adv-x="1593" 
d="M799 1518q320 0 512 -207q100 -106 154.5 -258.5t54.5 -327.5q0 -158 -56 -310t-153 -255q-192 -207 -510 -207t-510 207q-100 106 -154.5 256.5t-54.5 318.5q0 167 54.5 318t154.5 258q192 207 508 207zM801 1255q-187 0 -299.5 -142t-112.5 -378t112.5 -378t299.5 -142
q185 0 298 141t113 371q0 243 -111 385.5t-300 142.5z" />
    <glyph glyph-name="P" unicode="P" horiz-adv-x="1366" 
d="M463 532v-532h-307v1493h659q233 0 357 -119.5t124 -343.5q0 -227 -122.5 -362.5t-327.5 -135.5h-383zM463 788h287q123 0 181 55t58 171q0 114 -58 168.5t-181 54.5h-287v-449z" />
    <glyph glyph-name="Q" unicode="Q" horiz-adv-x="1593" 
d="M1362 211l164 -156l-156 -166l-176 166q-90 -54 -180 -78t-207 -24q-318 0 -510 207q-99 106 -154 257t-55 318q0 168 55 319.5t154 256.5q192 207 510 207t510 -207q98 -106 153.5 -257t55.5 -315q0 -150 -44.5 -293t-119.5 -235zM983 569l168 -159q68 136 68 323
q0 238 -112 380t-300 142q-187 0 -299.5 -142t-112.5 -378q0 -235 112.5 -377.5t297.5 -142.5q104 0 180 39l-158 149z" />
    <glyph glyph-name="R" unicode="R" horiz-adv-x="1478" 
d="M471 592v-592h-307v1493h801q189 0 288 -102q113 -116 113 -301q0 -270 -252 -369q41 -18 63.5 -28.5t47.5 -30t36.5 -33t24 -46.5t17 -60.5t9.5 -86t6 -111.5t3 -147q0 -49 14.5 -75.5t50.5 -47.5v-55h-329q-28 54 -36.5 102.5t-8.5 153.5q0 59 2 98v62q0 92 -45.5 134
t-145.5 42h-352zM471 848h371q65 0 100.5 8.5t61.5 30.5q55 46 55 160q0 105 -55 151q-29 23 -62.5 31t-99.5 8h-371v-389z" />
    <glyph glyph-name="S" unicode="S" horiz-adv-x="1366" 
d="M1243 1038h-287q-8 114 -87.5 174t-225.5 60q-120 0 -189 -50t-69 -135q0 -81 59 -121.5t224 -72.5l233 -45q207 -40 301 -137.5t94 -274.5q0 -229 -161.5 -356t-450.5 -127q-286 0 -445.5 127t-172.5 366h299q8 -120 93.5 -183.5t241.5 -63.5q140 0 220.5 53.5
t80.5 146.5q0 91 -63 139.5t-217 77.5l-209 41q-227 43 -323.5 135.5t-96.5 266.5q0 218 148 338.5t417 120.5q282 0 433 -124t153 -356z" />
    <glyph glyph-name="T" unicode="T" horiz-adv-x="1251" 
d="M788 1237v-1237h-307v1237h-452v256h1196v-256h-437z" />
    <glyph glyph-name="U" unicode="U" horiz-adv-x="1478" 
d="M1032 1493h307v-1012q0 -247 -145 -377q-168 -151 -446 -151q-279 0 -447 151q-145 130 -145 377v1012h307v-1012q0 -135 70 -200.5t215 -65.5t214.5 65.5t69.5 200.5v1012z" />
    <glyph glyph-name="V" unicode="V" horiz-adv-x="1366" 
d="M813 0h-260l-504 1493h309l332 -1124l326 1124h309z" />
    <glyph glyph-name="W" unicode="W" horiz-adv-x="1933" 
d="M1495 0h-276l-250 1165l-244 -1165h-276l-422 1493h325l232 -1118l231 1118h303l242 -1120l223 1120h326z" />
    <glyph glyph-name="X" unicode="X" horiz-adv-x="1366" 
d="M858 762l479 -762h-364l-287 518l-285 -518h-356l471 752l-455 741h365l262 -492l275 492h356z" />
    <glyph glyph-name="Y" unicode="Y" horiz-adv-x="1366" 
d="M858 553v-553h-307v553l-496 940h342l305 -659l285 659h344z" />
    <glyph glyph-name="Z" unicode="Z" horiz-adv-x="1251" 
d="M1184 1493v-256l-762 -981h762v-256h-1123v256l764 981h-764v256h1123z" />
    <glyph glyph-name="bracketleft" unicode="[" horiz-adv-x="681" 
d="M631 1493v-209h-230v-1485h230v-209h-496v1903h496z" />
    <glyph glyph-name="backslash" unicode="\" horiz-adv-x="569" 
d="M113 1462l479 -1491h-137l-480 1491h138z" />
    <glyph glyph-name="bracketright" unicode="]" horiz-adv-x="681" 
d="M37 -410v209h229v1485h-229v209h495v-1903h-495z" />
    <glyph glyph-name="asciicircum" unicode="^" horiz-adv-x="1196" 
d="M1069 553h-231l-248 614l-236 -614h-229l338 870h256z" />
    <glyph glyph-name="underscore" unicode="_" 
d="M1184 -246v-141h-1229v141h1229z" />
    <glyph glyph-name="grave" unicode="`" horiz-adv-x="681" 
d="M35 1550h258l143 -307h-143z" />
    <glyph glyph-name="a" unicode="a" 
d="M1073 35v-35h-311q-20 25 -26.5 46.5t-6.5 64.5q-152 -158 -336 -158q-152 0 -244 91t-92 241q0 149 80.5 234.5t245.5 113.5l115 20q106 17 128.5 22.5t51.5 20.5q49 28 49 86q0 111 -166 111q-105 0 -148.5 -33t-54.5 -119h-276q27 383 473 383q224 0 338.5 -85.5
t114.5 -254.5v-614q0 -41 14 -70.5t51 -64.5zM727 444v78q-27 -13 -47 -19t-74 -16l-98 -18q-89 -19 -126.5 -53.5t-37.5 -98.5q0 -61 42 -97t114 -36q109 0 168 67.5t59 192.5z" />
    <glyph glyph-name="b" unicode="b" horiz-adv-x="1251" 
d="M121 1493h287v-530q52 83 126.5 122t178.5 39q101 0 195 -48t151 -130q56 -80 87.5 -187.5t31.5 -219.5q0 -250 -133.5 -418t-331.5 -168q-202 0 -305 160v-113h-287v1493zM649 885q-107 0 -174 -95t-67 -247q0 -159 66 -254.5t175 -95.5q107 0 174.5 96t67.5 248
q0 153 -68 250.5t-174 97.5z" />
    <glyph glyph-name="c" unicode="c" 
d="M1069 692h-274q-25 109 -71.5 155t-133.5 46q-127 0 -178 -94q-56 -106 -56 -269t61.5 -254.5t170.5 -91.5q86 0 133.5 45.5t73.5 153.5h274q-20 -198 -150 -314t-331 -116q-246 0 -382 151.5t-136 425.5q0 283 136.5 438.5t385.5 155.5q209 0 335.5 -114.5t141.5 -317.5
z" />
    <glyph glyph-name="d" unicode="d" horiz-adv-x="1251" 
d="M829 0v113q-54 -83 -127.5 -121.5t-177.5 -38.5q-102 0 -195.5 47.5t-150.5 128.5q-56 80 -87.5 188t-31.5 220q0 165 61 299.5t167.5 211t236.5 76.5q104 0 177.5 -39t127.5 -122v530h287v-1493h-287zM588 885q-107 0 -174.5 -96.5t-67.5 -251.5q0 -152 67.5 -248
t174.5 -96t174 94t67 245q0 160 -66 256.5t-175 96.5z" />
    <glyph glyph-name="e" unicode="e" 
d="M1073 463h-741q5 -141 41 -195q65 -96 188 -96q78 0 135.5 36.5t83.5 102.5h283q-47 -164 -186.5 -261t-325.5 -97q-235 0 -370.5 153t-135.5 418q0 278 137 439t375 161q167 0 293.5 -85t181.5 -236q43 -124 43 -291q0 -24 -2 -49zM336 653h440q-10 123 -67.5 187.5
t-155.5 64.5q-190 0 -217 -252z" />
    <glyph glyph-name="f" unicode="f" horiz-adv-x="681" 
d="M641 1083v-190h-170v-893h-287v893h-155v190h155v134q0 276 283 276q73 0 164 -6v-215q-43 6 -82 6q-78 0 -78 -86v-109h170z" />
    <glyph glyph-name="g" unicode="g" horiz-adv-x="1251" 
d="M819 1106h273v-1143q0 -192 -136 -300.5t-376 -108.5q-235 0 -365 106q-57 46 -82 94t-27 113h295q35 -129 189 -129q101 0 165 62.5t64 162.5v150q-75 -91 -138.5 -125.5t-152.5 -34.5q-198 0 -321 159t-123 414q0 295 168 469q57 60 133 94.5t150 34.5
q87 0 155.5 -45.5t128.5 -142.5v170zM588 885q-97 0 -157 -99t-60 -256q0 -150 59.5 -243.5t153.5 -93.5q107 0 173 93t66 244q0 154 -67 254.5t-168 100.5z" />
    <glyph glyph-name="h" unicode="h" horiz-adv-x="1251" 
d="M137 1493h287v-547q60 92 139 135t185 43q147 0 247 -84q113 -94 113 -299v-741h-287v676q0 54 -6.5 82t-26.5 55q-50 68 -143 68q-97 0 -159 -61t-62 -156v-664h-287v1493z" />
    <glyph glyph-name="i" unicode="i" horiz-adv-x="569" 
d="M424 1106v-1106h-287v1106h287zM424 1493v-256h-287v256h287z" />
    <glyph glyph-name="j" unicode="j" horiz-adv-x="569" 
d="M430 1106v-1299q0 -135 -59 -194t-193 -59q-78 0 -170 10v229q24 -8 51 -8q46 0 65 19.5t19 66.5v1235h287zM430 1493v-256h-287v256h287z" />
    <glyph glyph-name="k" unicode="k" 
d="M408 676l362 430h326l-377 -418l403 -688h-336l-264 487l-114 -125v-362h-287v1493h287v-817z" />
    <glyph glyph-name="l" unicode="l" horiz-adv-x="569" 
d="M424 1493v-1493h-287v1493h287z" />
    <glyph glyph-name="m" unicode="m" horiz-adv-x="1820" 
d="M123 1106h285v-137q70 86 138.5 120.5t164.5 34.5q103 0 182 -42.5t119 -120.5q64 86 140.5 124.5t182.5 38.5q166 0 259.5 -90.5t93.5 -251.5v-782h-287v737q0 66 -42 105t-114 39q-92 0 -144 -58t-52 -159v-664h-287v737q0 66 -42 105t-114 39q-92 0 -144 -57t-52 -160
v-664h-287v1106z" />
    <glyph glyph-name="n" unicode="n" horiz-adv-x="1251" 
d="M129 1106h287v-160q61 94 140 136t192 42q178 0 274 -99t96 -284v-741h-287v682q0 199 -184 199q-105 0 -168 -59t-63 -158v-664h-287v1106z" />
    <glyph glyph-name="o" unicode="o" horiz-adv-x="1251" 
d="M616 1124q260 0 404.5 -156.5t144.5 -437.5q0 -267 -147 -422t-400 -155q-255 0 -400.5 156t-145.5 430q0 272 145.5 428.5t398.5 156.5zM618 893q-117 0 -188.5 -97t-71.5 -257t71.5 -257.5t188.5 -97.5q115 0 188 98t73 253q0 163 -71 260.5t-190 97.5z" />
    <glyph glyph-name="p" unicode="p" horiz-adv-x="1251" 
d="M406 1106v-164q104 182 307 182q100 0 194 -48t150 -126q56 -77 87.5 -186.5t31.5 -226.5q0 -252 -132 -419t-331 -167q-205 0 -307 180v-577h-287v1552h287zM647 885q-109 0 -175 -95.5t-66 -252.5q0 -156 66 -251.5t175 -95.5q107 0 174.5 95t67.5 247q0 159 -66.5 256
t-175.5 97z" />
    <glyph glyph-name="q" unicode="q" horiz-adv-x="1251" 
d="M827 1106h287v-1552h-287v577q-101 -180 -309 -180q-98 0 -192 48t-150 126q-55 75 -87 185t-32 227q0 167 60 301t166 210t237 76q205 0 307 -182v164zM586 885q-107 0 -174.5 -96.5t-67.5 -251.5t67.5 -251t174.5 -96t174 94.5t67 245.5q0 162 -65.5 258.5t-175.5 96.5
z" />
    <glyph glyph-name="r" unicode="r" horiz-adv-x="796" 
d="M129 1106h287v-217q47 112 127.5 173.5t179.5 61.5q19 0 35 -2v-291q-58 9 -90 9q-252 0 -252 -252v-588h-287v1106z" />
    <glyph glyph-name="s" unicode="s" 
d="M1034 750h-276q-3 149 -207 149q-75 0 -120.5 -28t-45.5 -74q0 -33 20 -50t80 -36l363 -105q217 -64 217 -278q0 -81 -34.5 -154t-96.5 -123q-122 -98 -352 -98q-252 0 -384.5 93t-138.5 276h281q9 -44 20.5 -66t34.5 -39q53 -39 170 -39q100 0 156.5 29t56.5 80
q0 34 -21 53.5t-75 36.5l-342 106q-79 26 -115 44.5t-65 47.5q-62 68 -62 181q0 170 122 269t333 99q223 0 350.5 -99.5t130.5 -274.5z" />
    <glyph glyph-name="t" unicode="t" horiz-adv-x="681" 
d="M616 1083v-190h-159v-602q0 -73 18.5 -97t75.5 -24q21 0 65 6v-201q-73 -22 -165 -22q-281 0 -281 260v680h-141v190h141v297h287v-297h159z" />
    <glyph glyph-name="u" unicode="u" horiz-adv-x="1251" 
d="M1108 0h-287v131q-61 -94 -140 -136t-192 -42q-178 0 -274 99t-96 284v770h287v-711q0 -198 184 -198q105 0 168 59t63 158v692h287v-1106z" />
    <glyph glyph-name="v" unicode="v" 
d="M717 0h-301l-387 1106h303l239 -809l224 809h303z" />
    <glyph glyph-name="w" unicode="w" horiz-adv-x="1593" 
d="M1255 0h-297l-165 780l-177 -780h-294l-312 1106h297l176 -774l168 774h287l166 -774l168 774h297z" />
    <glyph glyph-name="x" unicode="x" 
d="M727 557l369 -557h-344l-187 344l-188 -344h-344l368 557l-360 549h344l180 -334l178 334h344z" />
    <glyph glyph-name="y" unicode="y" 
d="M807 1106h295l-455 -1309q-35 -100 -68.5 -143t-93.5 -68q-89 -35 -206 -35q-39 0 -103 9v215q57 -13 76 -13q80 0 129 53.5t49 139.5l-412 1151h316l244 -805z" />
    <glyph glyph-name="z" unicode="z" horiz-adv-x="1024" 
d="M940 1106v-232l-543 -643h561v-231h-915v231l547 643h-510v232h860z" />
    <glyph glyph-name="braceleft" unicode="{" horiz-adv-x="796" 
d="M649 1493v-203h-76q-95 0 -92 -116v-400q0 -110 -44.5 -160.5t-153.5 -62.5q109 -14 153.5 -64.5t44.5 -160.5v-400q-2 -71 19 -102t73 -31h76v-203h-155q-109 -2 -182 81t-70 206v430q1 88 -34 120t-132 30v188h8h25q69 0 102 32t31 97v432q-2 123 70.5 205.5
t181.5 81.5h155z" />
    <glyph glyph-name="bar" unicode="|" horiz-adv-x="573" 
d="M369 1493v-1903h-164v1903h164z" />
    <glyph glyph-name="braceright" unicode="}" horiz-adv-x="796" 
d="M147 -410v203h76q95 0 92 117v399q0 110 45 160.5t154 62.5q-109 14 -154 65t-45 161v399q2 71 -19 102t-73 31h-76v203h156q109 2 182 -81t70 -206v-430q-1 -88 34 -119.5t132 -29.5v-189h-8h-25q-69 0 -102 -32t-31 -97v-432q2 -123 -70.5 -205.5t-181.5 -81.5h-156z
" />
    <glyph glyph-name="asciitilde" unicode="~" horiz-adv-x="1196" 
d="M903 842h160q-9 -151 -73 -225t-187 -74q-94 0 -170 53l-117 86q-66 49 -125 49q-74 0 -98 -55q-8 -21 -10 -78h-160q15 297 260 297q99 0 170 -51l117 -86q39 -30 65.5 -40.5t59.5 -10.5q74 0 98 55q8 21 10 80z" />
    <glyph glyph-name="uni00A0" unicode="&#xa0;" horiz-adv-x="569" 
 />
    <glyph glyph-name="exclamdown" unicode="&#xa1;" horiz-adv-x="681" 
d="M135 -381v430l86 633h137l84 -633v-430h-307zM135 807v299h307v-299h-307z" />
    <glyph glyph-name="cent" unicode="&#xa2;" 
d="M621 891v-705q70 10 110.5 56.5t63.5 140.5h274q-17 -185 -141 -303.5t-307 -124.5v-209l-91 2v209q-213 13 -333.5 165.5t-120.5 407.5q0 265 116.5 417t337.5 175v176h91v-174q189 -3 312.5 -122t135.5 -310h-274q-20 95 -61 141.5t-113 57.5zM530 193v694
q-82 -20 -125 -111.5t-43 -243.5q0 -142 43 -229t125 -110z" />
    <glyph glyph-name="sterling" unicode="&#xa3;" 
d="M768 760v-113h-250q31 -66 31 -121q0 -89 -53.5 -168t-184.5 -182q96 47 140.5 61.5t89.5 14.5q39 0 131 -23q76 -20 129 -20q97 0 215 59l84 -223q-85 -50 -153 -71t-144 -21q-71 0 -203 33q-128 32 -201 32q-59 0 -107.5 -13t-115.5 -48l-113 207q128 87 177 153.5
t49 155.5q0 67 -43 174h-183v113h123q-69 122 -88.5 175t-19.5 122q0 87 40 168.5t111 138.5q130 100 336 100q160 0 276 -58t171 -167q43 -82 57 -248h-270l-2 23q-9 70 -24 105t-48 63q-61 55 -158 55q-87 0 -143.5 -52t-56.5 -132q0 -32 9 -58.5t46 -101.5
q35 -69 61 -133h285z" />
    <glyph glyph-name="currency" unicode="&#xa4;" 
d="M795 1081l149 150l141 -141l-153 -154q32 -62 43.5 -107t11.5 -104q0 -117 -59 -221l157 -156l-141 -139l-153 153q-72 -38 -110 -49.5t-95 -11.5q-62 0 -124.5 17.5t-103.5 46.5l-161 -160l-140 141l160 158q-34 62 -47.5 109.5t-13.5 107.5q0 123 59 215l-162 162
l142 139l157 -158q103 64 223 64q126 0 220 -62zM573 942q-93 0 -157 -64t-64 -157q0 -91 64 -155t155 -64t155.5 64.5t64.5 156.5q0 89 -64.5 154t-153.5 65z" />
    <glyph glyph-name="yen" unicode="&#xa5;" 
d="M1018 719v-121h-291v-109h291v-120h-291v-369h-287v369h-297v120h297v109h-297v121h283l-416 723h285l285 -520l274 520h276l-393 -723h281z" />
    <glyph glyph-name="brokenbar" unicode="&#xa6;" horiz-adv-x="573" 
d="M369 1493v-797h-164v797h164zM369 387v-797h-164v797h164z" />
    <glyph glyph-name="section" unicode="&#xa7;" 
d="M969 1114h-260q-10 82 -49 120t-111 38q-60 0 -95.5 -28.5t-35.5 -74.5q0 -44 37.5 -80t146.5 -96l260 -143q103 -57 151 -133t48 -180q0 -103 -45 -169.5t-148 -113.5q144 -102 144 -274q0 -175 -124 -283.5t-323 -108.5q-213 0 -321.5 104t-110.5 308h268v-20
q3 -50 11 -75.5t28 -43.5q45 -45 127 -45q69 0 112.5 35t43.5 90t-37 92q-25 22 -106 67l-351 205q-78 46 -119.5 115.5t-41.5 154.5q0 92 39 154.5t149 147.5q-55 55 -70 75q-55 71 -55 176q0 154 121 253.5t307 99.5q120 0 214.5 -41.5t141.5 -114.5q49 -76 54 -211z
M690 627l-293 155q-47 -28 -67.5 -58.5t-20.5 -74.5q0 -47 23.5 -77.5t87.5 -65.5l301 -164q52 36 73 66.5t21 66.5q0 49 -26.5 81.5t-98.5 70.5z" />
    <glyph glyph-name="dieresis" unicode="&#xa8;" horiz-adv-x="681" 
d="M262 1522v-250h-225v250h225zM643 1522v-250h-225v250h225z" />
    <glyph glyph-name="copyright" unicode="&#xa9;" horiz-adv-x="1509" 
d="M1130 883h-184q-17 83 -62.5 121t-127.5 38q-109 0 -171.5 -81.5t-62.5 -225.5t60 -223.5t168 -79.5q88 0 138.5 45t57.5 131h189q-7 -161 -112.5 -253.5t-277.5 -92.5q-190 0 -300.5 127.5t-110.5 347.5t112 347.5t304 127.5q210 0 319 -143q29 -40 42.5 -81.5
t18.5 -104.5zM756 1522q159 0 304 -62t249.5 -167t166.5 -250t62 -304q0 -216 -105.5 -396t-287.5 -284t-400 -104q-155 0 -298.5 63t-247.5 168t-166 250t-62 303q0 211 105.5 391.5t286.5 286t393 105.5zM754 1374q-169 0 -312.5 -85t-227 -231.5t-83.5 -318.5
q0 -128 49.5 -246t132.5 -203.5t197 -136.5t238 -51q173 0 318 84.5t228.5 231t83.5 321.5q0 129 -49.5 246.5t-133 202.5t-199 135.5t-242.5 50.5z" />
    <glyph glyph-name="ordfeminine" unicode="&#xaa;" horiz-adv-x="757" 
d="M657 696v-159h-581v159h581zM674 840v-21h-189q-20 25 -20 66q-91 -94 -201 -94q-92 0 -147.5 54.5t-55.5 145.5q0 90 48.5 142t148.5 69l68 12q61 10 75.5 13.5t32.5 13.5q31 15 31 49q0 64 -100 64q-62 0 -88.5 -19.5t-32.5 -70.5h-162q6 229 278 229q273 0 273 -205
v-366q0 -26 8.5 -43t32.5 -39zM465 1085v48q-24 -12 -74 -21l-59 -12q-54 -10 -76.5 -31t-22.5 -59q0 -37 25.5 -58.5t69.5 -21.5q65 0 101 41t36 114z" />
    <glyph glyph-name="guillemotleft" unicode="&#xab;" 
d="M180 446v234l342 305v-240l-207 -182l207 -182v-234zM616 446v234l342 305v-240l-206 -182l206 -182v-234z" />
    <glyph glyph-name="logicalnot" unicode="&#xac;" horiz-adv-x="1196" 
d="M82 768h1032v-592h-158v434h-874v158z" />
    <glyph glyph-name="uni00AD" unicode="&#xad;" horiz-adv-x="681" 
d="M610 700v-276h-557v276h557z" />
    <glyph glyph-name="registered" unicode="&#xae;" horiz-adv-x="1509" 
d="M590 641v-354h-197v907h486q117 0 182 -65.5t65 -182.5q0 -78 -34 -131t-107 -90q29 -14 44.5 -22.5t30 -26.5t20 -33.5t11 -54.5t6.5 -76.5l3 -112.5q0 -29 8.5 -43t30.5 -26v-43h-209q-20 35 -25.5 65t-5.5 101q0 35 2 53v35q0 52 -30 76t-95 24h-186zM590 807h209
q75 0 104 24t29 87t-29 86.5t-104 23.5h-209v-221zM756 1522q159 0 304 -62t249.5 -167t166.5 -250t62 -304q0 -216 -105.5 -396t-287.5 -284t-400 -104q-155 0 -298.5 63t-247.5 168t-166 250t-62 303q0 211 105.5 391.5t286.5 286t393 105.5zM754 1374q-169 0 -312.5 -85
t-227 -231.5t-83.5 -318.5q0 -128 49.5 -246t132.5 -203.5t197 -136.5t238 -51q173 0 318 84.5t228.5 231t83.5 321.5q0 129 -49.5 246.5t-133 202.5t-199 135.5t-242.5 50.5z" />
    <glyph glyph-name="macron" unicode="&#xaf;" horiz-adv-x="681" 
d="M645 1473v-162h-612v162h612z" />
    <glyph glyph-name="degree" unicode="&#xb0;" horiz-adv-x="819" 
d="M410 1405q128 0 218.5 -90.5t90.5 -218.5q0 -130 -91 -221t-222 -91q-126 0 -217 92t-91 220t91.5 218.5t220.5 90.5zM410 1276q-75 0 -129 -53.5t-54 -128.5q0 -73 53.5 -127t125.5 -54q77 0 130.5 53.5t53.5 129.5q0 75 -53 127.5t-127 52.5z" />
    <glyph glyph-name="plusminus" unicode="&#xb1;" horiz-adv-x="1196" 
d="M1079 211v-244h-964v244h964zM1079 885v-244h-360v-360h-244v360h-360v244h360v360h244v-360h360z" />
    <glyph glyph-name="twosuperior" unicode="&#xb2;" horiz-adv-x="681" 
d="M649 748v-166h-635q5 125 49 197.5t164 148.5q152 102 192 146.5t40 113.5q0 61 -33 96t-92 35t-91 -38t-32 -107q0 -5 4 -33h-188q-2 16 -2 37q0 141 82.5 216.5t236.5 75.5q149 0 229 -71t80 -203q0 -92 -43 -153t-166 -146q-24 -18 -53.5 -39.5t-45.5 -33t-21 -15.5
q-27 -24 -58 -61h383z" />
    <glyph glyph-name="threesuperior" unicode="&#xb3;" horiz-adv-x="681" 
d="M256 965v127h20q156 0 156 118q0 51 -29 81t-79 30q-63 0 -89.5 -34t-27.5 -118h-182q5 78 17.5 122t41.5 79q77 100 246 100q135 0 216 -65t81 -174q0 -116 -107 -182q135 -67 135 -211q0 -129 -89 -206t-238 -77t-231.5 76.5t-84.5 216.5h189q6 -135 133 -135
q56 0 91.5 34.5t35.5 88.5q0 44 -25.5 76.5t-68.5 43.5q-40 9 -111 9z" />
    <glyph glyph-name="acute" unicode="&#xb4;" horiz-adv-x="681" 
d="M649 1550l-258 -307h-143l143 307h258z" />
    <glyph glyph-name="mu" unicode="&#xb5;" horiz-adv-x="1251" 
d="M393 -451h-274v1557h287v-684q0 -61 7.5 -94.5t28.5 -63.5q45 -67 136 -67t148.5 61t57.5 156v692h287v-799q0 -89 12.5 -119t49.5 -30q14 0 41 8v-178q-66 -35 -144 -35q-72 0 -114.5 24t-79.5 86q-61 -61 -114 -85.5t-124 -24.5q-124 0 -205 78v-482z" />
    <glyph glyph-name="paragraph" unicode="&#xb6;" 
d="M1083 1493v-147h-88v-1737h-200v1737h-129v-1737h-201v938q-188 9 -306 139t-118 328q0 179 104 317q116 162 318 162h620z" />
    <glyph glyph-name="periodcentered" unicode="&#xb7;" horiz-adv-x="569" 
d="M131 598h254v-252h-254v252z" />
    <glyph glyph-name="cedilla" unicode="&#xb8;" horiz-adv-x="681" 
d="M332 0h88l-60 -129q43 14 86 14q72 0 114 -39t42 -106q0 -92 -67.5 -141.5t-194.5 -49.5q-68 0 -126 12t-159 46l39 106q82 -36 126 -48.5t87 -12.5q49 0 83 24.5t34 59.5q0 32 -28 51.5t-74 19.5q-52 0 -101 -24z" />
    <glyph glyph-name="onesuperior" unicode="&#xb9;" horiz-adv-x="681" 
d="M283 1174h-220v124q239 0 283 154h131v-870h-194v592z" />
    <glyph glyph-name="ordmasculine" unicode="&#xba;" horiz-adv-x="747" 
d="M684 696v-159h-616v159h616zM375 1493q155 0 241 -93.5t86 -262.5q0 -160 -87.5 -253t-239.5 -93t-240 93.5t-88 256.5q0 164 87 258t241 94zM375 1354q-70 0 -113 -58t-43 -153t43 -154t113 -59q69 0 112 58.5t43 150.5q0 98 -42 156.5t-113 58.5z" />
    <glyph glyph-name="guillemotright" unicode="&#xbb;" 
d="M522 686v-235l-342 -304v240l207 182l-207 183v233zM946 686v-235l-342 -304v240l207 182l-207 183v233z" />
    <glyph glyph-name="onequarter" unicode="&#xbc;" horiz-adv-x="1708" 
d="M266 1174h-219v124q239 0 283 154h131v-870h-195v592zM1180 1464h178l-866 -1505h-179zM1651 344v-154h-95v-190h-194v190h-367v152l338 528h223v-526h95zM1362 344v336l-217 -336h217z" />
    <glyph glyph-name="onehalf" unicode="&#xbd;" horiz-adv-x="1708" 
d="M266 1174h-219v124q239 0 283 154h131v-870h-195v592zM1167 1464h179l-867 -1505h-178zM1694 166v-166h-635q5 125 49 197.5t164 148.5q153 103 192 147t39 113q0 62 -32.5 96.5t-92.5 34.5q-59 0 -91 -38t-32 -107q0 -2 1 -7t2 -13t2 -13h-189q-2 16 -2 37q0 141 83 217
t237 76q149 0 229 -71.5t80 -203.5q0 -92 -43 -153t-166 -146q-22 -16 -52.5 -38t-47 -34t-21.5 -16q-23 -21 -57 -61h383z" />
    <glyph glyph-name="threequarters" unicode="&#xbe;" horiz-adv-x="1708" 
d="M281 965v127h20q156 0 156 118q0 51 -29.5 81t-79.5 30q-63 0 -89.5 -34t-27.5 -118h-182q5 77 18 121.5t42 79.5q77 100 245 100q135 0 216 -65t81 -174q0 -117 -106 -182q135 -67 135 -211q0 -129 -89.5 -206t-238.5 -77t-231 76.5t-84 216.5h188q6 -135 133 -135
q56 0 91.5 34.5t35.5 88.5q0 44 -25.5 76.5t-68.5 43.5q-40 9 -110 9zM1245 1464h178l-866 -1505h-178zM1665 344v-154h-94v-190h-195v190h-366v152l338 528h223v-526h94zM1376 344v336l-217 -336h217z" />
    <glyph glyph-name="questiondown" unicode="&#xbf;" horiz-adv-x="1251" 
d="M489 694h254q5 -131 -38 -216t-166 -189q-91 -73 -118.5 -117t-27.5 -113q0 -101 61.5 -168t153.5 -67q106 0 167 79.5t61 217.5h278q-2 -126 -23.5 -208t-72.5 -149q-132 -182 -402 -182q-227 0 -369.5 131t-142.5 340q0 130 52 213.5t196 184.5q65 46 91.5 74.5
t36 63.5t9.5 105zM457 807v299h307v-299h-307z" />
    <glyph glyph-name="Agrave" unicode="&#xc0;" horiz-adv-x="1478" 
d="M1026 301h-559l-100 -301h-314l531 1493h340l516 -1493h-316zM942 557l-194 584l-195 -584h389zM453 1917h258l143 -307h-143z" />
    <glyph glyph-name="Aacute" unicode="&#xc1;" horiz-adv-x="1478" 
d="M1026 301h-559l-100 -301h-314l531 1493h340l516 -1493h-316zM942 557l-194 584l-195 -584h389zM1044 1917l-258 -307h-143l143 307h258z" />
    <glyph glyph-name="Acircumflex" unicode="&#xc2;" horiz-adv-x="1478" 
d="M1026 301h-559l-100 -301h-314l531 1493h340l516 -1493h-316zM942 557l-194 584l-195 -584h389zM641 1917h219l211 -307h-158l-168 205l-167 -205h-158z" />
    <glyph glyph-name="Atilde" unicode="&#xc3;" horiz-adv-x="1478" 
d="M1026 301h-559l-100 -301h-314l531 1493h340l516 -1493h-316zM942 557l-194 584l-195 -584h389zM991 1901h129q-15 -261 -194 -261q-46 0 -113 25l-145 53q-41 13 -64 13q-35 0 -55 -22t-27 -71h-127q4 120 55.5 187t137.5 67q29 0 46.5 -4t65.5 -22l148 -51
q30 -13 70 -13q61 0 73 99z" />
    <glyph glyph-name="Adieresis" unicode="&#xc4;" horiz-adv-x="1478" 
d="M1026 301h-559l-100 -301h-314l531 1493h340l516 -1493h-316zM942 557l-194 584l-195 -584h389zM668 1888v-250h-226v250h226zM1049 1888v-250h-226v250h226z" />
    <glyph glyph-name="Aring" unicode="&#xc5;" horiz-adv-x="1478" 
d="M1026 301h-559l-100 -301h-314l531 1493h340l516 -1493h-316zM942 557l-194 584l-195 -584h389zM750 1944q77 0 129.5 -54t52.5 -133q0 -75 -54.5 -128.5t-129.5 -53.5q-77 0 -131 54t-54 130q0 78 54.5 131.5t132.5 53.5zM750 1845q-37 0 -62.5 -24.5t-25.5 -61.5
q0 -35 25.5 -60.5t62.5 -25.5q34 0 59 25.5t25 60.5q0 37 -24.5 61.5t-59.5 24.5z" />
    <glyph glyph-name="AE" unicode="&#xc6;" horiz-adv-x="2048" 
d="M881 311h-457l-109 -311h-313l539 1493h1396v-256h-749v-338h694v-256h-694v-387h790v-256h-1097v311zM881 567v670h-138l-233 -670h371z" />
    <glyph glyph-name="Ccedilla" unicode="&#xc7;" horiz-adv-x="1478" 
d="M776 -47l-39 -82q41 14 86 14q72 0 114 -39t42 -106q0 -92 -67.5 -141.5t-194.5 -49.5q-68 0 -126 12t-159 46l39 106q82 -36 126 -48.5t87 -12.5q49 0 83 24.5t34 59.5q0 32 -28.5 51.5t-74.5 19.5q-48 0 -100 -24l88 170q-141 25 -218 58.5t-151 103.5
q-227 216 -227 618q0 362 184 573.5t500 211.5q167 0 301.5 -61t220.5 -175q47 -63 70 -130.5t31 -164.5h-293q-31 137 -109 202.5t-211 65.5q-182 0 -284.5 -139.5t-102.5 -386.5q0 -245 99.5 -381.5t277.5 -136.5q142 0 228.5 78t101.5 221h299q-12 -253 -179.5 -402
t-447.5 -155z" />
    <glyph glyph-name="Egrave" unicode="&#xc8;" horiz-adv-x="1366" 
d="M469 643v-387h809v-256h-1116v1493h1079v-256h-772v-338h715v-256h-715zM426 1917h258l143 -307h-143z" />
    <glyph glyph-name="Eacute" unicode="&#xc9;" horiz-adv-x="1366" 
d="M469 643v-387h809v-256h-1116v1493h1079v-256h-772v-338h715v-256h-715zM983 1917l-258 -307h-143l143 307h258z" />
    <glyph glyph-name="Ecircumflex" unicode="&#xca;" horiz-adv-x="1366" 
d="M469 643v-387h809v-256h-1116v1493h1079v-256h-772v-338h715v-256h-715zM600 1917h221l211 -307h-160l-167 205l-168 -205h-156z" />
    <glyph glyph-name="Edieresis" unicode="&#xcb;" horiz-adv-x="1366" 
d="M469 643v-387h809v-256h-1116v1493h1079v-256h-772v-338h715v-256h-715zM629 1888v-250h-226v250h226zM1010 1888v-250h-226v250h226z" />
    <glyph glyph-name="Igrave" unicode="&#xcc;" horiz-adv-x="569" 
d="M436 1493v-1493h-307v1493h307zM-20 1917h258l143 -307h-143z" />
    <glyph glyph-name="Iacute" unicode="&#xcd;" horiz-adv-x="569" 
d="M436 1493v-1493h-307v1493h307zM594 1917l-258 -307h-143l143 307h258z" />
    <glyph glyph-name="Icircumflex" unicode="&#xce;" horiz-adv-x="569" 
d="M436 1493v-1493h-307v1493h307zM182 1917h219l211 -307h-159l-168 205l-168 -205h-156z" />
    <glyph glyph-name="Idieresis" unicode="&#xcf;" horiz-adv-x="569" 
d="M436 1493v-1493h-307v1493h307zM207 1888v-250h-225v250h225zM588 1888v-250h-226v250h226z" />
    <glyph glyph-name="Eth" unicode="&#xd0;" horiz-adv-x="1478" 
d="M158 694h-158v164h158v635h583q176 0 287 -40.5t186 -131.5q85 -106 133 -257t48 -316t-48 -317.5t-133 -256.5q-73 -92 -185.5 -133t-287.5 -41h-583v694zM465 694v-438h276q100 0 162.5 26.5t102.5 84.5q94 134 94 378q0 247 -94 381q-40 58 -102.5 84.5t-162.5 26.5
h-276v-379h307v-164h-307z" />
    <glyph glyph-name="Ntilde" unicode="&#xd1;" horiz-adv-x="1478" 
d="M1047 0l-601 1032v-1032h-307v1493h316l592 -1016v1016h307v-1493h-307zM995 1901h127q-12 -261 -194 -261q-47 0 -111 25l-147 53q-37 13 -62 13q-37 0 -55.5 -21.5t-26.5 -71.5h-129q6 120 57.5 187t137.5 67q29 0 46 -4t67 -22l147 -51q30 -13 68 -13q63 0 75 99z" />
    <glyph glyph-name="Ograve" unicode="&#xd2;" horiz-adv-x="1593" 
d="M799 1518q320 0 512 -207q100 -106 154.5 -258.5t54.5 -327.5q0 -158 -56 -310t-153 -255q-192 -207 -510 -207t-510 207q-100 106 -154.5 256.5t-54.5 318.5q0 167 54.5 318t154.5 258q192 207 508 207zM801 1255q-187 0 -299.5 -142t-112.5 -378t112.5 -378t299.5 -142
q185 0 298 141t113 371q0 243 -111 385.5t-300 142.5zM520 1917h258l144 -307h-144z" />
    <glyph glyph-name="Oacute" unicode="&#xd3;" horiz-adv-x="1593" 
d="M799 1518q320 0 512 -207q100 -106 154.5 -258.5t54.5 -327.5q0 -158 -56 -310t-153 -255q-192 -207 -510 -207t-510 207q-100 106 -154.5 256.5t-54.5 318.5q0 167 54.5 318t154.5 258q192 207 508 207zM801 1255q-187 0 -299.5 -142t-112.5 -378t112.5 -378t299.5 -142
q185 0 298 141t113 371q0 243 -111 385.5t-300 142.5zM1085 1917l-258 -307h-143l143 307h258z" />
    <glyph glyph-name="Ocircumflex" unicode="&#xd4;" horiz-adv-x="1593" 
d="M799 1518q320 0 512 -207q100 -106 154.5 -258.5t54.5 -327.5q0 -158 -56 -310t-153 -255q-192 -207 -510 -207t-510 207q-100 106 -154.5 256.5t-54.5 318.5q0 167 54.5 318t154.5 258q192 207 508 207zM801 1255q-187 0 -299.5 -142t-112.5 -378t112.5 -378t299.5 -142
q185 0 298 141t113 371q0 243 -111 385.5t-300 142.5zM696 1917h219l211 -307h-159l-168 205l-168 -205h-156z" />
    <glyph glyph-name="Otilde" unicode="&#xd5;" horiz-adv-x="1593" 
d="M799 1518q320 0 512 -207q100 -106 154.5 -258.5t54.5 -327.5q0 -158 -56 -310t-153 -255q-192 -207 -510 -207t-510 207q-100 106 -154.5 256.5t-54.5 318.5q0 167 54.5 318t154.5 258q192 207 508 207zM801 1255q-187 0 -299.5 -142t-112.5 -378t112.5 -378t299.5 -142
q185 0 298 141t113 371q0 243 -111 385.5t-300 142.5zM1049 1901h129q-15 -261 -195 -261q-46 0 -113 25l-145 53q-41 13 -61 13q-37 0 -57 -22t-27 -71h-127q5 120 55.5 187t136.5 67q29 0 47.5 -4t67.5 -22l145 -51q30 -13 70 -13q62 0 74 99z" />
    <glyph glyph-name="Odieresis" unicode="&#xd6;" horiz-adv-x="1593" 
d="M799 1518q320 0 512 -207q100 -106 154.5 -258.5t54.5 -327.5q0 -158 -56 -310t-153 -255q-192 -207 -510 -207t-510 207q-100 106 -154.5 256.5t-54.5 318.5q0 167 54.5 318t154.5 258q192 207 508 207zM801 1255q-187 0 -299.5 -142t-112.5 -378t112.5 -378t299.5 -142
q185 0 298 141t113 371q0 243 -111 385.5t-300 142.5zM723 1888v-250h-225v250h225zM1104 1888v-250h-225v250h225z" />
    <glyph glyph-name="multiply" unicode="&#xd7;" horiz-adv-x="1196" 
d="M862 909l172 -172l-264 -264l262 -264l-172 -172l-262 264l-262 -262l-172 172l262 262l-264 262l172 174l264 -264z" />
    <glyph glyph-name="Oslash" unicode="&#xd8;" horiz-adv-x="1593" 
d="M338 106l-170 -186l-105 94l177 195q-168 226 -168 526q0 168 55 319.5t156 256.5q192 207 512 207q147 0 260 -41t215 -131l170 188l106 -92l-182 -203q69 -94 109 -230t40 -278q0 -165 -55 -316t-153 -255q-195 -207 -510 -207q-279 0 -457 153zM1161 1018l-637 -705
q47 -46 118.5 -72t150.5 -26q189 0 301 142.5t112 381.5q0 155 -45 279zM438 428l643 709q-112 118 -286 118q-191 0 -303.5 -142.5t-112.5 -383.5q0 -168 59 -301z" />
    <glyph glyph-name="Ugrave" unicode="&#xd9;" horiz-adv-x="1478" 
d="M1032 1493h307v-1012q0 -247 -145 -377q-168 -151 -446 -151q-279 0 -447 151q-145 130 -145 377v1012h307v-1012q0 -135 70 -200.5t215 -65.5t214.5 65.5t69.5 200.5v1012zM467 1917h258l143 -307h-143z" />
    <glyph glyph-name="Uacute" unicode="&#xda;" horiz-adv-x="1478" 
d="M1032 1493h307v-1012q0 -247 -145 -377q-168 -151 -446 -151q-279 0 -447 151q-145 130 -145 377v1012h307v-1012q0 -135 70 -200.5t215 -65.5t214.5 65.5t69.5 200.5v1012zM1032 1917l-258 -307h-143l143 307h258z" />
    <glyph glyph-name="Ucircumflex" unicode="&#xdb;" horiz-adv-x="1478" 
d="M1032 1493h307v-1012q0 -247 -145 -377q-168 -151 -446 -151q-279 0 -447 151q-145 130 -145 377v1012h307v-1012q0 -135 70 -200.5t215 -65.5t214.5 65.5t69.5 200.5v1012zM643 1917h219l211 -307h-160l-168 205l-167 -205h-156z" />
    <glyph glyph-name="Udieresis" unicode="&#xdc;" horiz-adv-x="1478" 
d="M1032 1493h307v-1012q0 -247 -145 -377q-168 -151 -446 -151q-279 0 -447 151q-145 130 -145 377v1012h307v-1012q0 -135 70 -200.5t215 -65.5t214.5 65.5t69.5 200.5v1012zM670 1888v-250h-226v250h226zM1051 1888v-250h-226v250h226z" />
    <glyph glyph-name="Yacute" unicode="&#xdd;" horiz-adv-x="1366" 
d="M858 553v-553h-307v553l-496 940h342l305 -659l285 659h344zM983 1917l-258 -307h-143l143 307h258z" />
    <glyph glyph-name="Thorn" unicode="&#xde;" horiz-adv-x="1366" 
d="M463 287v-287h-307v1493h307v-246h352q126 0 209 -27t145 -87q127 -124 127 -351q0 -228 -121.5 -361.5t-328.5 -133.5h-383zM463 543h287q123 0 181 54.5t58 170.5q0 114 -58 168.5t-181 54.5h-287v-448z" />
    <glyph glyph-name="germandbls" unicode="&#xdf;" horiz-adv-x="1251" 
d="M584 715v194h18q94 1 147.5 50.5t53.5 132.5q0 79 -53.5 124.5t-147.5 45.5q-85 0 -131.5 -42.5t-46.5 -119.5v-1100h-287v1061q0 120 29.5 199t95.5 131q60 47 156.5 74.5t202.5 27.5q207 0 338 -104.5t131 -268.5q0 -209 -179 -278q53 -10 87 -28t75 -56
q57 -52 81 -115.5t24 -159.5q0 -233 -123 -375.5t-324 -142.5q-45 0 -147 12v230q12 2 26 2h41q106 3 173 74t67 178q0 120 -74.5 187t-206.5 67h-26z" />
    <glyph glyph-name="agrave" unicode="&#xe0;" 
d="M1073 35v-35h-311q-20 25 -26.5 46.5t-6.5 64.5q-152 -158 -336 -158q-152 0 -244 91t-92 241q0 149 80.5 234.5t245.5 113.5l115 20q106 17 128.5 22.5t51.5 20.5q49 28 49 86q0 111 -166 111q-105 0 -148.5 -33t-54.5 -119h-276q27 383 473 383q224 0 338.5 -85.5
t114.5 -254.5v-614q0 -41 14 -70.5t51 -64.5zM727 444v78q-27 -13 -47 -19t-74 -16l-98 -18q-89 -19 -126.5 -53.5t-37.5 -98.5q0 -61 42 -97t114 -36q109 0 168 67.5t59 192.5zM270 1550h258l144 -307h-144z" />
    <glyph glyph-name="aacute" unicode="&#xe1;" 
d="M1073 35v-35h-311q-20 25 -26.5 46.5t-6.5 64.5q-152 -158 -336 -158q-152 0 -244 91t-92 241q0 149 80.5 234.5t245.5 113.5l115 20q106 17 128.5 22.5t51.5 20.5q49 28 49 86q0 111 -166 111q-105 0 -148.5 -33t-54.5 -119h-276q27 383 473 383q224 0 338.5 -85.5
t114.5 -254.5v-614q0 -41 14 -70.5t51 -64.5zM727 444v78q-27 -13 -47 -19t-74 -16l-98 -18q-89 -19 -126.5 -53.5t-37.5 -98.5q0 -61 42 -97t114 -36q109 0 168 67.5t59 192.5zM842 1550l-258 -307h-144l144 307h258z" />
    <glyph glyph-name="acircumflex" unicode="&#xe2;" 
d="M1073 35v-35h-311q-20 25 -26.5 46.5t-6.5 64.5q-152 -158 -336 -158q-152 0 -244 91t-92 241q0 149 80.5 234.5t245.5 113.5l115 20q106 17 128.5 22.5t51.5 20.5q49 28 49 86q0 111 -166 111q-105 0 -148.5 -33t-54.5 -119h-276q27 383 473 383q224 0 338.5 -85.5
t114.5 -254.5v-614q0 -41 14 -70.5t51 -64.5zM727 444v78q-27 -13 -47 -19t-74 -16l-98 -18q-89 -19 -126.5 -53.5t-37.5 -98.5q0 -61 42 -97t114 -36q109 0 168 67.5t59 192.5zM453 1550h219l211 -307h-160l-166 205l-170 -205h-156z" />
    <glyph glyph-name="atilde" unicode="&#xe3;" 
d="M1073 35v-35h-311q-20 25 -26.5 46.5t-6.5 64.5q-152 -158 -336 -158q-152 0 -244 91t-92 241q0 149 80.5 234.5t245.5 113.5l115 20q106 17 128.5 22.5t51.5 20.5q49 28 49 86q0 111 -166 111q-105 0 -148.5 -33t-54.5 -119h-276q27 383 473 383q224 0 338.5 -85.5
t114.5 -254.5v-614q0 -41 14 -70.5t51 -64.5zM727 444v78q-27 -13 -47 -19t-74 -16l-98 -18q-89 -19 -126.5 -53.5t-37.5 -98.5q0 -61 42 -97t114 -36q109 0 168 67.5t59 192.5zM793 1534h127q-12 -260 -195 -260q-49 0 -111 24l-147 54q-34 12 -61 12q-37 0 -55.5 -21
t-26.5 -71h-129q6 120 57 187t137 67q28 0 43 -3.5t70 -23.5l147 -51q24 -12 68 -12q64 0 76 98z" />
    <glyph glyph-name="adieresis" unicode="&#xe4;" 
d="M1073 35v-35h-311q-20 25 -26.5 46.5t-6.5 64.5q-152 -158 -336 -158q-152 0 -244 91t-92 241q0 149 80.5 234.5t245.5 113.5l115 20q106 17 128.5 22.5t51.5 20.5q49 28 49 86q0 111 -166 111q-105 0 -148.5 -33t-54.5 -119h-276q27 383 473 383q224 0 338.5 -85.5
t114.5 -254.5v-614q0 -41 14 -70.5t51 -64.5zM727 444v78q-27 -13 -47 -19t-74 -16l-98 -18q-89 -19 -126.5 -53.5t-37.5 -98.5q0 -61 42 -97t114 -36q109 0 168 67.5t59 192.5zM479 1522v-250h-225v250h225zM860 1522v-250h-225v250h225z" />
    <glyph glyph-name="aring" unicode="&#xe5;" 
d="M1073 35v-35h-311q-20 25 -26.5 46.5t-6.5 64.5q-152 -158 -336 -158q-152 0 -244 91t-92 241q0 149 80.5 234.5t245.5 113.5l115 20q106 17 128.5 22.5t51.5 20.5q49 28 49 86q0 111 -166 111q-105 0 -148.5 -33t-54.5 -119h-276q27 383 473 383q224 0 338.5 -85.5
t114.5 -254.5v-614q0 -41 14 -70.5t51 -64.5zM727 444v78q-27 -13 -47 -19t-74 -16l-98 -18q-89 -19 -126.5 -53.5t-37.5 -98.5q0 -61 42 -97t114 -36q109 0 168 67.5t59 192.5zM559 1577q77 0 129.5 -53.5t52.5 -132.5q0 -75 -54.5 -129t-129.5 -54q-76 0 -130 54t-54 131
q0 78 54 131t132 53zM559 1479q-37 0 -62.5 -24.5t-25.5 -61.5q0 -35 25.5 -60.5t62.5 -25.5q34 0 59 25.5t25 60.5q0 37 -24.5 61.5t-59.5 24.5z" />
    <glyph glyph-name="ae" unicode="&#xe6;" horiz-adv-x="1820" 
d="M1458 311h283q-47 -164 -185.5 -261t-326.5 -97q-135 0 -240.5 54.5t-169.5 158.5q-95 -113 -195 -164t-225 -51q-158 0 -251 91.5t-93 246.5q0 151 80 236.5t246 113.5l115 20q106 17 128.5 22.5t51.5 20.5q23 12 36 34.5t13 47.5q0 109 -174 109q-97 0 -140.5 -34.5
t-54.5 -117.5h-268q6 383 467 383q241 0 358 -102q126 102 318 102q172 0 298 -84.5t183 -236.5q43 -118 43 -291q0 -24 -2 -49h-741q0 -71 9 -113.5t32 -77.5q31 -47 81.5 -73.5t110.5 -26.5q74 0 134 39t79 100zM725 442v78q-47 -27 -121 -39l-98 -14q-164 -21 -164 -150
q0 -63 42 -99t114 -36q110 0 168.5 67t58.5 193zM1014 653h442q-21 252 -223 252q-98 0 -154 -64t-65 -188z" />
    <glyph glyph-name="ccedilla" unicode="&#xe7;" 
d="M596 -47l-35 -82q38 14 84 14q74 0 116 -39t42 -106q0 -92 -68 -141.5t-196 -49.5q-69 0 -128.5 12t-154.5 46l39 106q132 -61 213 -61q49 0 83 24.5t34 59.5q0 32 -29 51.5t-76 19.5q-48 0 -100 -24l88 174q-213 28 -325.5 175t-112.5 398q0 283 136.5 438.5
t385.5 155.5q209 0 335.5 -114.5t141.5 -317.5h-274q-25 109 -71.5 155t-133.5 46q-127 0 -178 -94q-56 -106 -56 -267q0 -88 20.5 -163t57.5 -119q25 -31 67.5 -48.5t90.5 -17.5q83 0 130 46t73 153h274q-17 -192 -149 -312t-324 -118z" />
    <glyph glyph-name="egrave" unicode="&#xe8;" 
d="M1073 463h-741q5 -141 41 -195q65 -96 188 -96q78 0 135.5 36.5t83.5 102.5h283q-47 -164 -186.5 -261t-325.5 -97q-235 0 -370.5 153t-135.5 418q0 278 137 439t375 161q167 0 293.5 -85t181.5 -236q43 -124 43 -291q0 -24 -2 -49zM336 653h440q-10 123 -67.5 187.5
t-155.5 64.5q-190 0 -217 -252zM272 1550h260l142 -307h-142z" />
    <glyph glyph-name="eacute" unicode="&#xe9;" 
d="M1073 463h-741q5 -141 41 -195q65 -96 188 -96q78 0 135.5 36.5t83.5 102.5h283q-47 -164 -186.5 -261t-325.5 -97q-235 0 -370.5 153t-135.5 418q0 278 137 439t375 161q167 0 293.5 -85t181.5 -236q43 -124 43 -291q0 -24 -2 -49zM336 653h440q-10 123 -67.5 187.5
t-155.5 64.5q-190 0 -217 -252zM858 1550l-258 -307h-143l143 307h258z" />
    <glyph glyph-name="ecircumflex" unicode="&#xea;" 
d="M1073 463h-741q5 -141 41 -195q65 -96 188 -96q78 0 135.5 36.5t83.5 102.5h283q-47 -164 -186.5 -261t-325.5 -97q-235 0 -370.5 153t-135.5 418q0 278 137 439t375 161q167 0 293.5 -85t181.5 -236q43 -124 43 -291q0 -24 -2 -49zM336 653h440q-10 123 -67.5 187.5
t-155.5 64.5q-190 0 -217 -252zM469 1550h219l211 -307h-160l-166 205l-170 -205h-155z" />
    <glyph glyph-name="edieresis" unicode="&#xeb;" 
d="M1073 463h-741q5 -141 41 -195q65 -96 188 -96q78 0 135.5 36.5t83.5 102.5h283q-47 -164 -186.5 -261t-325.5 -97q-235 0 -370.5 153t-135.5 418q0 278 137 439t375 161q167 0 293.5 -85t181.5 -236q43 -124 43 -291q0 -24 -2 -49zM336 653h440q-10 123 -67.5 187.5
t-155.5 64.5q-190 0 -217 -252zM496 1522v-250h-226v250h226zM877 1522v-250h-226v250h226z" />
    <glyph glyph-name="igrave" unicode="&#xec;" horiz-adv-x="569" 
d="M424 1106v-1106h-287v1106h287zM-20 1550h258l143 -307h-143z" />
    <glyph glyph-name="iacute" unicode="&#xed;" horiz-adv-x="569" 
d="M424 1106v-1106h-287v1106h287zM594 1550l-258 -307h-143l143 307h258z" />
    <glyph glyph-name="icircumflex" unicode="&#xee;" horiz-adv-x="569" 
d="M424 1106v-1106h-287v1106h287zM182 1550h219l211 -307h-159l-168 205l-168 -205h-156z" />
    <glyph glyph-name="idieresis" unicode="&#xef;" horiz-adv-x="569" 
d="M424 1106v-1106h-287v1106h287zM207 1522v-250h-225v250h225zM588 1522v-250h-226v250h226z" />
    <glyph glyph-name="eth" unicode="&#xf0;" horiz-adv-x="1251" 
d="M885 1454l-172 -102q233 -157 342.5 -351.5t109.5 -449.5q0 -265 -125 -420q-72 -86 -181 -132t-241 -46q-256 0 -401 156.5t-145 433.5q0 339 231 475q124 76 258 76q73 0 174 -39q-82 131 -194 196l-158 -94l-86 76l143 90q-71 43 -184 98l137 97q51 -18 117 -52
l61 -34q5 -5 31 -15l178 107zM618 879q-118 0 -188 -95t-70 -252q0 -160 70 -254t188 -94q117 0 188 94t71 248q0 162 -70 257.5t-189 95.5z" />
    <glyph glyph-name="ntilde" unicode="&#xf1;" horiz-adv-x="1251" 
d="M129 1106h287v-160q61 94 140 136t192 42q178 0 274 -99t96 -284v-741h-287v682q0 199 -184 199q-105 0 -168 -59t-63 -158v-664h-287v1106zM852 1534h127q-12 -260 -195 -260q-48 0 -110 24l-148 54q-34 12 -61 12q-37 0 -55.5 -21t-26.5 -71h-129q6 120 57.5 187
t137.5 67q28 0 42.5 -3.5t69.5 -23.5l148 -51q24 -12 67 -12q64 0 76 98z" />
    <glyph glyph-name="ograve" unicode="&#xf2;" horiz-adv-x="1251" 
d="M616 1124q260 0 404.5 -156.5t144.5 -437.5q0 -267 -147 -422t-400 -155q-255 0 -400.5 156t-145.5 430q0 272 145.5 428.5t398.5 156.5zM618 893q-117 0 -188.5 -97t-71.5 -257t71.5 -257.5t188.5 -97.5q115 0 188 98t73 253q0 163 -71 260.5t-190 97.5zM338 1550h258
l143 -307h-143z" />
    <glyph glyph-name="oacute" unicode="&#xf3;" horiz-adv-x="1251" 
d="M616 1124q260 0 404.5 -156.5t144.5 -437.5q0 -267 -147 -422t-400 -155q-255 0 -400.5 156t-145.5 430q0 272 145.5 428.5t398.5 156.5zM618 893q-117 0 -188.5 -97t-71.5 -257t71.5 -257.5t188.5 -97.5q115 0 188 98t73 253q0 163 -71 260.5t-190 97.5zM903 1550
l-258 -307h-143l143 307h258z" />
    <glyph glyph-name="ocircumflex" unicode="&#xf4;" horiz-adv-x="1251" 
d="M616 1124q260 0 404.5 -156.5t144.5 -437.5q0 -267 -147 -422t-400 -155q-255 0 -400.5 156t-145.5 430q0 272 145.5 428.5t398.5 156.5zM618 893q-117 0 -188.5 -97t-71.5 -257t71.5 -257.5t188.5 -97.5q115 0 188 98t73 253q0 163 -71 260.5t-190 97.5zM514 1550h219
l211 -307h-160l-168 205l-167 -205h-156z" />
    <glyph glyph-name="otilde" unicode="&#xf5;" horiz-adv-x="1251" 
d="M616 1124q260 0 404.5 -156.5t144.5 -437.5q0 -267 -147 -422t-400 -155q-255 0 -400.5 156t-145.5 430q0 272 145.5 428.5t398.5 156.5zM618 893q-117 0 -188.5 -97t-71.5 -257t71.5 -257.5t188.5 -97.5q115 0 188 98t73 253q0 163 -71 260.5t-190 97.5zM860 1534h127
q-12 -260 -194 -260q-49 0 -111 24l-145 54q-38 12 -64 12q-36 0 -55.5 -21.5t-26.5 -70.5h-129q6 120 57.5 187t137.5 67q28 0 42.5 -3.5t69.5 -23.5l148 -51q28 -12 69 -12q62 0 74 98z" />
    <glyph glyph-name="odieresis" unicode="&#xf6;" horiz-adv-x="1251" 
d="M616 1124q260 0 404.5 -156.5t144.5 -437.5q0 -267 -147 -422t-400 -155q-255 0 -400.5 156t-145.5 430q0 272 145.5 428.5t398.5 156.5zM618 893q-117 0 -188.5 -97t-71.5 -257t71.5 -257.5t188.5 -97.5q115 0 188 98t73 253q0 163 -71 260.5t-190 97.5zM541 1522v-250
h-226v250h226zM922 1522v-250h-226v250h226z" />
    <glyph glyph-name="divide" unicode="&#xf7;" horiz-adv-x="1196" 
d="M1094 596v-244h-992v244h992zM471 971h254v-252h-254v252zM471 229h254v-252h-254v252z" />
    <glyph glyph-name="oslash" unicode="&#xf8;" horiz-adv-x="1251" 
d="M258 72l-147 -150l-88 82l153 158q-102 146 -102 377q0 274 146.5 429.5t404.5 155.5q218 0 372 -127l140 144l88 -84l-148 -150q97 -150 97 -368q0 -272 -147 -429t-400 -157q-110 0 -209 32t-160 87zM862 688l-411 -418q74 -86 176 -86q114 0 187 97.5t73 250.5
q0 79 -25 156zM389 377l414 422q-78 96 -182 96q-116 0 -188.5 -97.5t-72.5 -252.5q0 -92 29 -168z" />
    <glyph glyph-name="ugrave" unicode="&#xf9;" horiz-adv-x="1251" 
d="M1108 0h-287v131q-61 -94 -140 -136t-192 -42q-178 0 -274 99t-96 284v770h287v-711q0 -198 184 -198q105 0 168 59t63 158v692h287v-1106zM334 1550h258l143 -307h-143z" />
    <glyph glyph-name="uacute" unicode="&#xfa;" horiz-adv-x="1251" 
d="M1108 0h-287v131q-61 -94 -140 -136t-192 -42q-178 0 -274 99t-96 284v770h287v-711q0 -198 184 -198q105 0 168 59t63 158v692h287v-1106zM897 1550l-258 -307h-143l143 307h258z" />
    <glyph glyph-name="ucircumflex" unicode="&#xfb;" horiz-adv-x="1251" 
d="M1108 0h-287v131q-61 -94 -140 -136t-192 -42q-178 0 -274 99t-96 284v770h287v-711q0 -198 184 -198q105 0 168 59t63 158v692h287v-1106zM508 1550h219l211 -307h-158l-168 205l-168 -205h-157z" />
    <glyph glyph-name="udieresis" unicode="&#xfc;" horiz-adv-x="1251" 
d="M1108 0h-287v131q-61 -94 -140 -136t-192 -42q-178 0 -274 99t-96 284v770h287v-711q0 -198 184 -198q105 0 168 59t63 158v692h287v-1106zM535 1522v-250h-226v250h226zM915 1522v-250h-225v250h225z" />
    <glyph glyph-name="yacute" unicode="&#xfd;" 
d="M807 1106h295l-455 -1309q-35 -100 -68.5 -143t-93.5 -68q-89 -35 -206 -35q-39 0 -103 9v215q57 -13 76 -13q80 0 129 53.5t49 139.5l-412 1151h316l244 -805zM844 1550l-258 -307h-144l144 307h258z" />
    <glyph glyph-name="thorn" unicode="&#xfe;" horiz-adv-x="1251" 
d="M406 1493v-551q104 182 307 182q131 0 237 -76t166 -210t60 -301q0 -166 -60 -299.5t-166 -209t-237 -75.5q-204 0 -307 178v-577h-287v1939h287zM647 885q-109 0 -175 -95.5t-66 -252.5q0 -154 66 -249t175 -95q107 0 174.5 94t67.5 245q0 159 -66.5 256t-175.5 97z" />
    <glyph glyph-name="ydieresis" unicode="&#xff;" 
d="M807 1106h295l-455 -1309q-35 -100 -68.5 -143t-93.5 -68q-89 -35 -206 -35q-39 0 -103 9v215q57 -13 76 -13q80 0 129 53.5t49 139.5l-412 1151h316l244 -805zM481 1522v-250h-225v250h225zM862 1522v-250h-225v250h225z" />
    <glyph glyph-name="Amacron" unicode="&#x100;" horiz-adv-x="1478" 
d="M1026 301h-559l-100 -301h-314l531 1493h340l516 -1493h-316zM942 557l-194 584l-195 -584h389zM1053 1839v-162h-613v162h613z" />
    <glyph glyph-name="amacron" unicode="&#x101;" 
d="M1073 35v-35h-311q-20 25 -26.5 46.5t-6.5 64.5q-152 -158 -336 -158q-152 0 -244 91t-92 241q0 149 80.5 234.5t245.5 113.5l115 20q106 17 128.5 22.5t51.5 20.5q49 28 49 86q0 111 -166 111q-105 0 -148.5 -33t-54.5 -119h-276q27 383 473 383q224 0 338.5 -85.5
t114.5 -254.5v-614q0 -41 14 -70.5t51 -64.5zM727 444v78q-27 -13 -47 -19t-74 -16l-98 -18q-89 -19 -126.5 -53.5t-37.5 -98.5q0 -61 42 -97t114 -36q109 0 168 67.5t59 192.5zM864 1473v-162h-612v162h612z" />
    <glyph glyph-name="Abreve" unicode="&#x102;" horiz-adv-x="1478" 
d="M1026 301h-559l-100 -301h-314l531 1493h340l516 -1493h-316zM942 557l-194 584l-195 -584h389zM897 1898h113q2 -10 2 -22q0 -115 -77.5 -192.5t-193.5 -77.5q-123 0 -195 78t-75 214h113q21 -135 157 -135q69 0 106 31.5t50 103.5z" />
    <glyph glyph-name="abreve" unicode="&#x103;" 
d="M1073 35v-35h-311q-20 25 -26.5 46.5t-6.5 64.5q-152 -158 -336 -158q-152 0 -244 91t-92 241q0 149 80.5 234.5t245.5 113.5l115 20q106 17 128.5 22.5t51.5 20.5q49 28 49 86q0 111 -166 111q-105 0 -148.5 -33t-54.5 -119h-276q27 383 473 383q224 0 338.5 -85.5
t114.5 -254.5v-614q0 -41 14 -70.5t51 -64.5zM727 444v78q-27 -13 -47 -19t-74 -16l-98 -18q-89 -19 -126.5 -53.5t-37.5 -98.5q0 -61 42 -97t114 -36q109 0 168 67.5t59 192.5zM834 1532v-23q0 -115 -77.5 -192.5t-193.5 -77.5q-117 0 -193.5 77.5t-76.5 194.5v21h115
q18 -135 157 -135q68 0 105 32.5t49 102.5h115z" />
    <glyph glyph-name="Aogonek" unicode="&#x104;" horiz-adv-x="1478" 
d="M1026 301h-559l-100 -301h-314l531 1493h340l516 -1493q-106 -46 -169 -117.5t-63 -146.5q0 -57 37 -83t117 -26q48 0 119 11v-97q-83 -18 -154 -18q-146 0 -224.5 50t-78.5 144q0 91 67 165.5t187 117.5h-154zM942 557l-194 584l-195 -584h389z" />
    <glyph glyph-name="aogonek" unicode="&#x105;" 
d="M1073 35v-35q-223 -117 -223 -264q0 -109 156 -109q44 0 116 11v-97q-71 -18 -153 -18q-144 0 -223.5 50.5t-79.5 141.5t68 167.5t186 117.5h-158q-20 25 -26.5 46.5t-6.5 64.5q-152 -158 -336 -158q-152 0 -244 91t-92 241q0 149 80.5 234.5t245.5 113.5l115 20
q106 17 128.5 22.5t51.5 20.5q49 28 49 86q0 111 -166 111q-105 0 -148.5 -33t-54.5 -119h-276q27 383 473 383q224 0 338.5 -85.5t114.5 -254.5v-614q0 -41 14 -70.5t51 -64.5zM727 444v78q-27 -13 -47 -19t-74 -16l-98 -18q-89 -19 -126.5 -53.5t-37.5 -98.5q0 -61 42 -97
t114 -36q109 0 168 67.5t59 192.5z" />
    <glyph glyph-name="Cacute" unicode="&#x106;" horiz-adv-x="1478" 
d="M1397 987h-293q-31 137 -109 202.5t-211 65.5q-182 0 -284.5 -139.5t-102.5 -386.5q0 -245 99.5 -381.5t277.5 -136.5q142 0 228.5 78t101.5 221h299q-13 -256 -185 -406.5t-452 -150.5q-312 0 -494 209.5t-182 570.5q0 362 184 573.5t500 211.5q167 0 301.5 -61
t220.5 -175q47 -63 70 -130.5t31 -164.5zM1044 1917l-258 -307h-143l143 307h258z" />
    <glyph glyph-name="cacute" unicode="&#x107;" 
d="M1069 692h-274q-25 109 -71.5 155t-133.5 46q-127 0 -178 -94q-56 -106 -56 -269t61.5 -254.5t170.5 -91.5q86 0 133.5 45.5t73.5 153.5h274q-20 -198 -150 -314t-331 -116q-246 0 -382 151.5t-136 425.5q0 283 136.5 438.5t385.5 155.5q209 0 335.5 -114.5t141.5 -317.5
zM874 1550l-258 -307h-143l143 307h258z" />
    <glyph glyph-name="Ccircumflex" unicode="&#x108;" horiz-adv-x="1478" 
d="M1397 987h-293q-31 137 -109 202.5t-211 65.5q-182 0 -284.5 -139.5t-102.5 -386.5q0 -245 99.5 -381.5t277.5 -136.5q142 0 228.5 78t101.5 221h299q-13 -256 -185 -406.5t-452 -150.5q-312 0 -494 209.5t-182 570.5q0 362 184 573.5t500 211.5q167 0 301.5 -61
t220.5 -175q47 -63 70 -130.5t31 -164.5zM653 1917h221l211 -307h-159l-168 205l-168 -205h-156z" />
    <glyph glyph-name="ccircumflex" unicode="&#x109;" 
d="M1069 692h-274q-25 109 -71.5 155t-133.5 46q-127 0 -178 -94q-56 -106 -56 -269t61.5 -254.5t170.5 -91.5q86 0 133.5 45.5t73.5 153.5h274q-20 -198 -150 -314t-331 -116q-246 0 -382 151.5t-136 425.5q0 283 136.5 438.5t385.5 155.5q209 0 335.5 -114.5t141.5 -317.5
zM465 1550h221l211 -307h-160l-168 205l-168 -205h-155z" />
    <glyph glyph-name="Cdotaccent" unicode="&#x10a;" horiz-adv-x="1478" 
d="M1397 987h-293q-31 137 -109 202.5t-211 65.5q-182 0 -284.5 -139.5t-102.5 -386.5q0 -245 99.5 -381.5t277.5 -136.5q142 0 228.5 78t101.5 221h299q-13 -256 -185 -406.5t-452 -150.5q-312 0 -494 209.5t-182 570.5q0 362 184 573.5t500 211.5q167 0 301.5 -61
t220.5 -175q47 -63 70 -130.5t31 -164.5zM860 1888v-250h-225v250h225z" />
    <glyph glyph-name="cdotaccent" unicode="&#x10b;" 
d="M1069 692h-274q-25 109 -71.5 155t-133.5 46q-127 0 -178 -94q-56 -106 -56 -269t61.5 -254.5t170.5 -91.5q86 0 133.5 45.5t73.5 153.5h274q-20 -198 -150 -314t-331 -116q-246 0 -382 151.5t-136 425.5q0 283 136.5 438.5t385.5 155.5q209 0 335.5 -114.5t141.5 -317.5
zM702 1522v-250h-225v250h225z" />
    <glyph glyph-name="Ccaron" unicode="&#x10c;" horiz-adv-x="1478" 
d="M1397 987h-293q-31 137 -109 202.5t-211 65.5q-182 0 -284.5 -139.5t-102.5 -386.5q0 -245 99.5 -381.5t277.5 -136.5q142 0 228.5 78t101.5 221h299q-13 -256 -185 -406.5t-452 -150.5q-312 0 -494 209.5t-182 570.5q0 362 184 573.5t500 211.5q167 0 301.5 -61
t220.5 -175q47 -63 70 -130.5t31 -164.5zM874 1610h-219l-211 307h160l166 -199l170 199h156z" />
    <glyph glyph-name="ccaron" unicode="&#x10d;" 
d="M1069 692h-274q-25 109 -71.5 155t-133.5 46q-127 0 -178 -94q-56 -106 -56 -269t61.5 -254.5t170.5 -91.5q86 0 133.5 45.5t73.5 153.5h274q-20 -198 -150 -314t-331 -116q-246 0 -382 151.5t-136 425.5q0 283 136.5 438.5t385.5 155.5q209 0 335.5 -114.5t141.5 -317.5
zM698 1243h-219l-211 307h158l168 -198l168 198h158z" />
    <glyph glyph-name="Dcaron" unicode="&#x10e;" horiz-adv-x="1478" 
d="M158 0v1493h583q172 0 284.5 -40.5t188.5 -131.5q88 -106 134.5 -253t46.5 -320q0 -175 -46.5 -322.5t-134.5 -251.5q-77 -91 -190 -132.5t-283 -41.5h-583zM465 256h276q346 0 346 489q0 492 -346 492h-276v-981zM801 1610h-221l-211 307h159l168 -199l168 199h156z" />
    <glyph glyph-name="dcaron" unicode="&#x10f;" horiz-adv-x="1521" 
d="M834 0v113q-54 -83 -128 -121.5t-178 -38.5q-102 0 -195.5 47.5t-150.5 128.5q-56 80 -87.5 188t-31.5 220q0 165 61 299.5t167.5 211t236.5 76.5q104 0 178 -39t128 -122v530h286v-1493h-286zM592 885q-107 0 -174.5 -96.5t-67.5 -251.5q0 -152 67.5 -248t174.5 -96
t174.5 94t67.5 245q0 159 -66.5 256t-175.5 97zM1229 1493h250v-211q4 -120 -69 -206t-181 -89v94q140 27 137 183h-137v229z" />
    <glyph glyph-name="Dcroat" unicode="&#x110;" horiz-adv-x="1478" 
d="M158 694h-158v164h158v635h583q176 0 287 -40.5t186 -131.5q85 -106 133 -257t48 -316t-48 -317.5t-133 -256.5q-73 -92 -185.5 -133t-287.5 -41h-583v694zM465 694v-438h276q100 0 162.5 26.5t102.5 84.5q94 134 94 378q0 247 -94 381q-40 58 -102.5 84.5t-162.5 26.5
h-276v-379h307v-164h-307z" />
    <glyph glyph-name="dcroat" unicode="&#x111;" horiz-adv-x="1251" 
d="M829 1221h-272v137h272v135h287v-135h123v-137h-123v-1221h-287v113q-54 -83 -127.5 -121.5t-177.5 -38.5q-130 0 -236.5 76t-167.5 210t-61 298q0 165 61 299.5t167.5 211t236.5 76.5q104 0 177.5 -39t127.5 -122v258zM588 885q-107 0 -174.5 -97t-67.5 -251
q0 -152 67.5 -248t174.5 -96t174 94t67 245q0 160 -66 256.5t-175 96.5z" />
    <glyph glyph-name="Emacron" unicode="&#x112;" horiz-adv-x="1366" 
d="M469 643v-387h809v-256h-1116v1493h1079v-256h-772v-338h715v-256h-715zM1012 1839v-162h-613v162h613z" />
    <glyph glyph-name="emacron" unicode="&#x113;" 
d="M1073 463h-741q5 -141 41 -195q65 -96 188 -96q78 0 135.5 36.5t83.5 102.5h283q-47 -164 -186.5 -261t-325.5 -97q-235 0 -370.5 153t-135.5 418q0 278 137 439t375 161q167 0 293.5 -85t181.5 -236q43 -124 43 -291q0 -24 -2 -49zM336 653h440q-10 123 -67.5 187.5
t-155.5 64.5q-190 0 -217 -252zM881 1473v-162h-613v162h613z" />
    <glyph glyph-name="Ebreve" unicode="&#x114;" horiz-adv-x="1366" 
d="M469 643v-387h809v-256h-1116v1493h1079v-256h-772v-338h715v-256h-715zM975 1898v-22q0 -116 -77.5 -193t-192.5 -77q-117 0 -194 77.5t-77 194.5v20h115q18 -135 158 -135q68 0 104 31.5t49 103.5h115z" />
    <glyph glyph-name="ebreve" unicode="&#x115;" 
d="M1073 463h-741q5 -141 41 -195q65 -96 188 -96q78 0 135.5 36.5t83.5 102.5h283q-47 -164 -186.5 -261t-325.5 -97q-235 0 -370.5 153t-135.5 418q0 278 137 439t375 161q167 0 293.5 -85t181.5 -236q43 -124 43 -291q0 -24 -2 -49zM336 653h440q-10 123 -67.5 187.5
t-155.5 64.5q-190 0 -217 -252zM844 1532v-23q0 -115 -77.5 -192.5t-193.5 -77.5q-117 0 -193.5 77.5t-76.5 194.5v21h115q18 -135 157 -135q68 0 105 32.5t49 102.5h115z" />
    <glyph glyph-name="Edotaccent" unicode="&#x116;" horiz-adv-x="1366" 
d="M469 643v-387h809v-256h-1116v1493h1079v-256h-772v-338h715v-256h-715zM819 1888v-250h-225v250h225z" />
    <glyph glyph-name="edotaccent" unicode="&#x117;" 
d="M1073 463h-741q5 -141 41 -195q65 -96 188 -96q78 0 135.5 36.5t83.5 102.5h283q-47 -164 -186.5 -261t-325.5 -97q-235 0 -370.5 153t-135.5 418q0 278 137 439t375 161q167 0 293.5 -85t181.5 -236q43 -124 43 -291q0 -24 -2 -49zM336 653h440q-10 123 -67.5 187.5
t-155.5 64.5q-190 0 -217 -252zM686 1522v-250h-225v250h225z" />
    <glyph glyph-name="Eogonek" unicode="&#x118;" horiz-adv-x="1366" 
d="M469 643v-387h809v-256q-221 -122 -221 -264q0 -109 153 -109q49 0 117 11v-97q-71 -18 -151 -18q-146 0 -226 51t-80 143q0 86 62 154.5t194 128.5h-964v1493h1079v-256h-772v-338h715v-256h-715z" />
    <glyph glyph-name="eogonek" unicode="&#x119;" 
d="M979 -362v-97q-79 -20 -162 -20q-137 0 -216 53t-79 145q0 69 43 126t152 132q-96 -26 -168 -26q-235 0 -370.5 153.5t-135.5 419.5q0 278 137 439t375 161q169 0 295 -85t182 -236q43 -121 43 -291q0 -24 -2 -49h-741q5 -140 41 -197q61 -96 188 -96q78 0 134.5 36.5
t82.5 104.5h283q-22 -78 -52.5 -125.5t-119.5 -142.5q-106 -114 -144 -179t-38 -132q0 -55 37.5 -81t117.5 -26q54 0 117 13zM334 653h442q-10 123 -67.5 187.5t-155.5 64.5q-192 0 -219 -252z" />
    <glyph glyph-name="Ecaron" unicode="&#x11a;" horiz-adv-x="1366" 
d="M469 643v-387h809v-256h-1116v1493h1079v-256h-772v-338h715v-256h-715zM811 1610h-219l-211 307h160l168 -199l168 199h155z" />
    <glyph glyph-name="ecaron" unicode="&#x11b;" 
d="M1073 463h-741q5 -141 41 -195q65 -96 188 -96q78 0 135.5 36.5t83.5 102.5h283q-47 -164 -186.5 -261t-325.5 -97q-235 0 -370.5 153t-135.5 418q0 278 137 439t375 161q167 0 293.5 -85t181.5 -236q43 -124 43 -291q0 -24 -2 -49zM336 653h440q-10 123 -67.5 187.5
t-155.5 64.5q-190 0 -217 -252zM678 1243h-219l-211 307h158l167 -198l168 198h158z" />
    <glyph glyph-name="Gcircumflex" unicode="&#x11c;" horiz-adv-x="1593" 
d="M1456 803v-807h-184l-37 197q-86 -126 -193 -183t-258 -57q-199 0 -358.5 100.5t-249.5 279.5t-90 402q0 230 90.5 408t255 276.5t377.5 98.5q270 0 444.5 -135t202.5 -367h-289q-20 58 -39.5 89.5t-52.5 59.5q-104 90 -264 90q-196 0 -307 -137t-111 -379
q0 -230 119.5 -377t306.5 -147q88 0 169 38t136 105q63 74 74 189h-340v256h598zM692 1917h221l211 -307h-159l-168 205l-168 -205h-156z" />
    <glyph glyph-name="gcircumflex" unicode="&#x11d;" horiz-adv-x="1251" 
d="M819 1106h273v-1143q0 -192 -136 -300.5t-376 -108.5q-235 0 -365 106q-57 46 -82 94t-27 113h295q35 -129 189 -129q101 0 165 62.5t64 162.5v150q-75 -91 -138.5 -125.5t-152.5 -34.5q-198 0 -321 159t-123 414q0 295 168 469q57 60 133 94.5t150 34.5
q87 0 155.5 -45.5t128.5 -142.5v170zM588 885q-97 0 -157 -99t-60 -256q0 -150 59.5 -243.5t153.5 -93.5q107 0 173 93t66 244q0 154 -67 254.5t-168 100.5zM426 1550h219l211 -307h-160l-168 205l-168 -205h-155z" />
    <glyph glyph-name="Gbreve" unicode="&#x11e;" horiz-adv-x="1593" 
d="M1456 803v-807h-184l-37 197q-86 -126 -193 -183t-258 -57q-199 0 -358.5 100.5t-249.5 279.5t-90 402q0 230 90.5 408t255 276.5t377.5 98.5q270 0 444.5 -135t202.5 -367h-289q-20 58 -39.5 89.5t-52.5 59.5q-104 90 -264 90q-196 0 -307 -137t-111 -379
q0 -230 119.5 -377t306.5 -147q88 0 169 38t136 105q63 74 74 189h-340v256h598zM1085 1898v-22q0 -116 -77.5 -193t-192.5 -77q-117 0 -193.5 77.5t-76.5 194.5v20h114q18 -135 156 -135q69 0 106 31.5t50 103.5h114z" />
    <glyph glyph-name="gbreve" unicode="&#x11f;" horiz-adv-x="1251" 
d="M893 1532v-23q0 -115 -77.5 -192.5t-192.5 -77.5q-117 0 -194 77.5t-77 194.5v21h115q18 -135 158 -135q68 0 104.5 32.5t48.5 102.5h115zM819 1106h273v-1143q0 -192 -136 -300.5t-376 -108.5q-235 0 -365 106q-57 46 -82 94t-27 113h295q35 -129 189 -129
q101 0 165 62.5t64 162.5v150q-75 -91 -138.5 -125.5t-152.5 -34.5q-198 0 -321 159t-123 414q0 295 168 469q57 60 133 94.5t150 34.5q87 0 155.5 -45.5t128.5 -142.5v170zM588 885q-97 0 -157 -99t-60 -256q0 -150 59.5 -243.5t153.5 -93.5q107 0 173 93t66 244
q0 154 -67 254.5t-168 100.5z" />
    <glyph glyph-name="Gdotaccent" unicode="&#x120;" horiz-adv-x="1593" 
d="M1456 803v-807h-184l-37 197q-86 -126 -193 -183t-258 -57q-199 0 -358.5 100.5t-249.5 279.5t-90 402q0 230 90.5 408t255 276.5t377.5 98.5q270 0 444.5 -135t202.5 -367h-289q-20 58 -39.5 89.5t-52.5 59.5q-104 90 -264 90q-196 0 -307 -137t-111 -379
q0 -230 119.5 -377t306.5 -147q88 0 169 38t136 105q63 74 74 189h-340v256h598zM885 1888v-250h-226v250h226z" />
    <glyph glyph-name="gdotaccent" unicode="&#x121;" horiz-adv-x="1251" 
d="M719 1522v-250h-225v250h225zM819 1106h273v-1143q0 -192 -136 -300.5t-376 -108.5q-235 0 -365 106q-57 46 -82 94t-27 113h295q35 -129 189 -129q101 0 165 62.5t64 162.5v150q-75 -91 -138.5 -125.5t-152.5 -34.5q-198 0 -321 159t-123 414q0 295 168 469
q57 60 133 94.5t150 34.5q87 0 155.5 -45.5t128.5 -142.5v170zM588 885q-97 0 -157 -99t-60 -256q0 -150 59.5 -243.5t153.5 -93.5q107 0 173 93t66 244q0 154 -67 254.5t-168 100.5z" />
    <glyph glyph-name="Gcommaaccent" unicode="&#x122;" horiz-adv-x="1593" 
d="M1456 803v-807h-184l-37 197q-86 -126 -193 -183t-258 -57q-199 0 -358.5 100.5t-249.5 279.5t-90 402q0 230 90.5 408t255 276.5t377.5 98.5q270 0 444.5 -135t202.5 -367h-289q-20 58 -39.5 89.5t-52.5 59.5q-104 90 -264 90q-196 0 -307 -137t-111 -379
q0 -230 119.5 -377t306.5 -147q88 0 169 38t136 105q63 74 74 189h-340v256h598zM680 -123h250v-211q4 -120 -69 -206t-181 -89v94q140 27 137 183h-137v229z" />
    <glyph glyph-name="gcommaaccent" unicode="&#x123;" horiz-adv-x="1251" 
d="M733 1241h-250v211q-4 120 69 206t181 89v-94q-140 -27 -137 -183h137v-229zM819 1106h273v-1143q0 -192 -136 -300.5t-376 -108.5q-235 0 -365 106q-57 46 -82 94t-27 113h295q35 -129 189 -129q101 0 165 62.5t64 162.5v150q-75 -91 -138.5 -125.5t-152.5 -34.5
q-198 0 -321 159t-123 414q0 295 168 469q57 60 133 94.5t150 34.5q87 0 155.5 -45.5t128.5 -142.5v170zM588 885q-97 0 -157 -99t-60 -256q0 -150 59.5 -243.5t153.5 -93.5q107 0 173 93t66 244q0 154 -67 254.5t-168 100.5z" />
    <glyph glyph-name="Hcircumflex" unicode="&#x124;" horiz-adv-x="1478" 
d="M1038 678h-592v-678h-307v1493h307v-559h590v559h310v-1493h-308v678zM635 1917h221l211 -307h-160l-168 205l-168 -205h-155z" />
    <glyph glyph-name="hcircumflex" unicode="&#x125;" horiz-adv-x="1251" 
d="M137 1493h287v-547q60 92 139 135t185 43q147 0 247 -84q113 -94 113 -299v-741h-287v676q0 54 -6.5 82t-26.5 55q-50 68 -143 68q-97 0 -159 -61t-62 -156v-664h-287v1493zM193 1917h219l211 -307h-160l-168 205l-168 -205h-156z" />
    <glyph glyph-name="Hbar" unicode="&#x126;" horiz-adv-x="1478" 
d="M1038 678h-592v-678h-307v1100h-137v164h137v229h307v-229h592v229h308v-229h137v-164h-137v-1100h-308v678zM1038 934v166h-592v-166h592z" />
    <glyph glyph-name="hbar" unicode="&#x127;" horiz-adv-x="1251" 
d="M424 1376h367v-164h-367v-266q118 178 321 178q150 0 250 -84q113 -94 113 -299v-741h-287v676q0 52 -7 79.5t-28 57.5q-50 68 -141 68q-97 0 -159 -61t-62 -156v-664h-287v1212h-127v164h127v117h287v-117z" />
    <glyph glyph-name="Itilde" unicode="&#x128;" horiz-adv-x="569" 
d="M436 1493v-1493h-307v1493h307zM520 1901h129q-15 -261 -194 -261q-46 0 -113 25l-145 53q-37 13 -62 13q-37 0 -55.5 -21.5t-26.5 -71.5h-129q6 120 57 187t136 67q29 0 47 -4t67 -22l146 -51q35 -13 69 -13q65 0 74 99z" />
    <glyph glyph-name="itilde" unicode="&#x129;" horiz-adv-x="569" 
d="M424 1106v-1106h-287v1106h287zM520 1534h129q-12 -260 -194 -260q-49 0 -113 24l-145 54q-35 12 -62 12q-37 0 -55.5 -21t-26.5 -71h-129q6 120 57 187t136 67q29 0 44 -3.5t70 -23.5l146 -51q28 -12 69 -12q65 0 74 98z" />
    <glyph glyph-name="Imacron" unicode="&#x12a;" horiz-adv-x="569" 
d="M436 1493v-1493h-307v1493h307zM561 1839v-162h-557v162h557z" />
    <glyph glyph-name="imacron" unicode="&#x12b;" horiz-adv-x="569" 
d="M426 1106v-1106h-287v1106h287zM547 1473v-162h-531v162h531z" />
    <glyph glyph-name="Ibreve" unicode="&#x12c;" horiz-adv-x="569" 
d="M436 1493v-1493h-307v1493h307zM555 1898v-22q0 -116 -77.5 -193t-192.5 -77q-117 0 -194 77.5t-77 194.5v20h115q18 -135 158 -135q68 0 104 31.5t49 103.5h115z" />
    <glyph glyph-name="ibreve" unicode="&#x12d;" horiz-adv-x="569" 
d="M424 1106v-1106h-287v1106h287zM547 1516v-23q0 -115 -77.5 -192.5t-193.5 -77.5q-117 0 -193.5 77.5t-76.5 194.5v21h115q18 -136 158 -136q67 0 103 32.5t50 103.5h115z" />
    <glyph glyph-name="Iogonek" unicode="&#x12e;" horiz-adv-x="569" 
d="M436 1493v-1493q-88 -63 -135 -132.5t-47 -135.5q0 -46 36 -75.5t93 -29.5q41 0 102 11v-97q-79 -18 -143 -18q-126 0 -199 53t-73 145q0 80 56.5 148t174.5 131h-172v1493h307z" />
    <glyph glyph-name="iogonek" unicode="&#x12f;" horiz-adv-x="569" 
d="M424 1106v-1106q-170 -123 -170 -262q0 -34 9.5 -53.5t33.5 -34.5q44 -23 86 -23q25 0 90 11v-97q-81 -18 -129 -18q-128 0 -201 53t-73 145q0 148 225 279h-158v1106h287zM424 1493v-256h-287v256h287z" />
    <glyph glyph-name="Idotaccent" unicode="&#x130;" horiz-adv-x="569" 
d="M436 1493v-1493h-307v1493h307zM395 1888v-250h-225v250h225z" />
    <glyph glyph-name="dotlessi" unicode="&#x131;" horiz-adv-x="569" 
d="M424 1106v-1106h-287v1106h287z" />
    <glyph glyph-name="IJ" unicode="&#x132;" horiz-adv-x="1607" 
d="M438 1493v-1493h-307v1493h307zM1178 1493h307v-1104q0 -209 -125 -322.5t-354 -113.5q-211 0 -342 119q-66 62 -95.5 140t-29.5 194v147h307v-143q0 -103 39 -149t127 -46q80 0 123 45t43 129v1104z" />
    <glyph glyph-name="ij" unicode="&#x133;" 
d="M459 1106v-1106h-287v1106h287zM459 1493v-256h-287v256h287zM981 1106v-1299q0 -135 -59 -194t-193 -59q-78 0 -170 10v229q24 -8 51 -8q46 0 65 19.5t19 66.5v1235h287zM981 1493v-256h-287v256h287z" />
    <glyph glyph-name="Jcircumflex" unicode="&#x134;" 
d="M688 1493h307v-1104q0 -209 -125 -322.5t-354 -113.5q-211 0 -342 119q-66 62 -95.5 140t-29.5 194v147h307v-143q0 -103 39 -149t127 -46q80 0 123 45t43 129v1104zM735 1917h221l211 -307h-159l-168 205l-168 -205h-156z" />
    <glyph glyph-name="jcircumflex" unicode="&#x135;" horiz-adv-x="569" 
d="M430 1106v-1299q0 -135 -59 -194t-193 -59q-78 0 -170 10v229q24 -8 51 -8q46 0 65 19.5t19 66.5v1235h287zM178 1550h219l211 -307h-159l-168 205l-168 -205h-156z" />
    <glyph glyph-name="Kcommaaccent" unicode="&#x136;" horiz-adv-x="1478" 
d="M459 500v-500h-307v1493h307v-655l583 655h363l-596 -643l659 -850h-366l-490 659zM645 -123h250v-211q4 -120 -69 -206t-181 -89v94q140 27 137 183h-137v229z" />
    <glyph glyph-name="kcommaaccent" unicode="&#x137;" 
d="M408 676l362 430h326l-377 -418l403 -688h-336l-264 487l-114 -125v-362h-287v1493h287v-817zM469 -123h250v-211q4 -120 -69 -206t-181 -89v94q140 27 137 183h-137v229z" />
    <glyph glyph-name="kgreenlandic" unicode="&#x138;" 
d="M326 348v-348h-215v1044h215v-458l407 458h256l-418 -448l461 -596h-258l-342 461z" />
    <glyph glyph-name="Lacute" unicode="&#x139;" horiz-adv-x="1251" 
d="M471 1493v-1237h715v-256h-1022v1493h307zM610 1917l-258 -307h-143l143 307h258z" />
    <glyph glyph-name="lacute" unicode="&#x13a;" horiz-adv-x="569" 
d="M424 1493v-1493h-287v1493h287zM569 1917l-258 -307h-143l143 307h258z" />
    <glyph glyph-name="Lcommaaccent" unicode="&#x13b;" horiz-adv-x="1251" 
d="M471 1493v-1237h715v-256h-1022v1493h307zM551 -123h250v-211q4 -120 -69 -206t-181 -89v94q140 27 137 183h-137v229z" />
    <glyph glyph-name="lcommaaccent" unicode="&#x13c;" horiz-adv-x="569" 
d="M424 1493v-1493h-287v1493h287zM160 -123h250v-211q4 -120 -69 -206t-181 -89v94q140 27 137 183h-137v229z" />
    <glyph glyph-name="Lcaron" unicode="&#x13d;" horiz-adv-x="1251" 
d="M471 1493v-1237h715v-256h-1022v1493h307zM676 1493h250v-211q4 -120 -69 -206t-181 -89v94q140 27 137 183h-137v229z" />
    <glyph glyph-name="lcaron" unicode="&#x13e;" horiz-adv-x="819" 
d="M424 1493v-1493h-287v1493h287zM532 1493h250v-211q4 -120 -69 -206t-181 -89v94q141 27 138 183h-138v229z" />
    <glyph glyph-name="Ldot" unicode="&#x13f;" horiz-adv-x="1251" 
d="M471 1493v-1237h715v-256h-1022v1493h307zM780 870h254v-252h-254v252z" />
    <glyph glyph-name="ldot" unicode="&#x140;" horiz-adv-x="980" 
d="M449 1493v-1493h-287v1493h287zM647 870h254v-252h-254v252z" />
    <glyph glyph-name="Lslash" unicode="&#x141;" horiz-adv-x="1251" 
d="M471 866l338 230v-181l-338 -231v-428h752v-256h-1059v526l-164 -114v182l164 115v784h307v-627z" />
    <glyph glyph-name="lslash" unicode="&#x142;" horiz-adv-x="569" 
d="M401 905l115 82v-162l-115 -82v-743h-286v602l-115 -82v162l115 82v729h286v-588z" />
    <glyph glyph-name="Nacute" unicode="&#x143;" horiz-adv-x="1478" 
d="M1047 0l-601 1032v-1032h-307v1493h316l592 -1016v1016h307v-1493h-307zM1024 1917l-258 -307h-143l143 307h258z" />
    <glyph glyph-name="nacute" unicode="&#x144;" horiz-adv-x="1251" 
d="M129 1106h287v-160q61 94 140 136t192 42q178 0 274 -99t96 -284v-741h-287v682q0 199 -184 199q-105 0 -168 -59t-63 -158v-664h-287v1106zM899 1550l-258 -307h-143l143 307h258z" />
    <glyph glyph-name="Ncommaaccent" unicode="&#x145;" horiz-adv-x="1478" 
d="M1047 0l-601 1032v-1032h-307v1493h316l592 -1016v1016h307v-1493h-307zM614 -123h250v-211q4 -120 -69 -206t-181 -89v94q141 27 138 183h-138v229z" />
    <glyph glyph-name="ncommaaccent" unicode="&#x146;" horiz-adv-x="1251" 
d="M129 1106h287v-160q61 94 140 136t192 42q178 0 274 -99t96 -284v-741h-287v682q0 199 -184 199q-105 0 -168 -59t-63 -158v-664h-287v1106zM500 -123h250v-211q4 -120 -69 -206t-181 -89v94q140 27 137 183h-137v229z" />
    <glyph glyph-name="Ncaron" unicode="&#x147;" horiz-adv-x="1478" 
d="M1047 0l-601 1032v-1032h-307v1493h316l592 -1016v1016h307v-1493h-307zM854 1610h-219l-211 307h160l166 -199l170 199h155z" />
    <glyph glyph-name="ncaron" unicode="&#x148;" horiz-adv-x="1251" 
d="M129 1106h287v-160q61 94 140 136t192 42q178 0 274 -99t96 -284v-741h-287v682q0 199 -184 199q-105 0 -168 -59t-63 -158v-664h-287v1106zM721 1243h-221l-211 307h160l167 -198l168 198h156z" />
    <glyph glyph-name="napostrophe" unicode="&#x149;" horiz-adv-x="1449" 
d="M299 1106h287v-160q61 94 140 136t192 42q178 0 274 -99t96 -284v-741h-287v682q0 199 -184 199q-105 0 -168 -59t-63 -158v-664h-287v1106zM31 1493h250v-211q4 -120 -69 -206t-181 -89v94q140 27 137 183h-137v229z" />
    <glyph glyph-name="Eng" unicode="&#x14a;" horiz-adv-x="1480" 
d="M807 -588v285q71 -12 111 -12q69 0 91.5 28t22.5 117v1120q0 146 -59.5 205t-206.5 59q-146 0 -225 -65q-99 -83 -99 -227v-922h-307v1493h307v-217q78 126 181.5 184t248.5 58q197 0 324 -115q78 -69 111.5 -162t33.5 -240v-1234q0 -105 -11.5 -164t-39.5 -101
q-70 -104 -258 -104q-102 0 -225 14z" />
    <glyph glyph-name="eng" unicode="&#x14b;" horiz-adv-x="1251" 
d="M696 -436v231q31 -10 58 -10q43 0 60 22t17 78v799q0 102 -45 149.5t-141 47.5q-104 0 -166.5 -59.5t-62.5 -157.5v-664h-287v1106h287v-160q61 94 140 136t192 42q158 0 258 -84q58 -49 85 -121t27 -178v-934q0 -138 -57 -195.5t-195 -57.5q-78 0 -170 10z" />
    <glyph glyph-name="Omacron" unicode="&#x14c;" horiz-adv-x="1593" 
d="M799 1518q320 0 512 -207q100 -106 154.5 -258.5t54.5 -327.5q0 -158 -56 -310t-153 -255q-192 -207 -510 -207t-510 207q-100 106 -154.5 256.5t-54.5 318.5q0 167 54.5 318t154.5 258q192 207 508 207zM801 1255q-187 0 -299.5 -142t-112.5 -378t112.5 -378t299.5 -142
q185 0 298 141t113 371q0 243 -111 385.5t-300 142.5zM1108 1839v-162h-612v162h612z" />
    <glyph glyph-name="omacron" unicode="&#x14d;" horiz-adv-x="1251" 
d="M616 1124q260 0 404.5 -156.5t144.5 -437.5q0 -267 -147 -422t-400 -155q-255 0 -400.5 156t-145.5 430q0 272 145.5 428.5t398.5 156.5zM618 893q-117 0 -188.5 -97t-71.5 -257t71.5 -257.5t188.5 -97.5q115 0 188 98t73 253q0 163 -71 260.5t-190 97.5zM926 1473v-162
h-613v162h613z" />
    <glyph glyph-name="Obreve" unicode="&#x14e;" horiz-adv-x="1593" 
d="M799 1518q320 0 512 -207q100 -106 154.5 -258.5t54.5 -327.5q0 -158 -56 -310t-153 -255q-192 -207 -510 -207t-510 207q-100 106 -154.5 256.5t-54.5 318.5q0 167 54.5 318t154.5 258q192 207 508 207zM801 1255q-187 0 -299.5 -142t-112.5 -378t112.5 -378t299.5 -142
q185 0 298 141t113 371q0 243 -111 385.5t-300 142.5zM954 1898h113q2 -10 2 -22q0 -116 -77.5 -193t-192.5 -77q-123 0 -195.5 78t-75.5 214h113q21 -135 158 -135q69 0 105.5 31.5t49.5 103.5z" />
    <glyph glyph-name="obreve" unicode="&#x14f;" horiz-adv-x="1251" 
d="M616 1124q260 0 404.5 -156.5t144.5 -437.5q0 -267 -147 -422t-400 -155q-255 0 -400.5 156t-145.5 430q0 272 145.5 428.5t398.5 156.5zM618 893q-117 0 -188.5 -97t-71.5 -257t71.5 -257.5t188.5 -97.5q115 0 188 98t73 253q0 163 -71 260.5t-190 97.5zM883 1532v-23
q0 -115 -77.5 -192.5t-193.5 -77.5q-117 0 -193.5 77.5t-76.5 194.5v21h115q18 -135 157 -135q67 0 103.5 32t50.5 103h115z" />
    <glyph glyph-name="Ohungarumlaut" unicode="&#x150;" horiz-adv-x="1593" 
d="M799 1518q320 0 512 -207q100 -106 154.5 -258.5t54.5 -327.5q0 -158 -56 -310t-153 -255q-192 -207 -510 -207t-510 207q-100 106 -154.5 256.5t-54.5 318.5q0 167 54.5 318t154.5 258q192 207 508 207zM801 1255q-187 0 -299.5 -142t-112.5 -378t112.5 -378t299.5 -142
q185 0 298 141t113 371q0 243 -111 385.5t-300 142.5zM944 1917l-258 -301h-143l143 301h258zM1329 1917l-258 -301h-143l143 301h258z" />
    <glyph glyph-name="ohungarumlaut" unicode="&#x151;" horiz-adv-x="1251" 
d="M616 1124q260 0 404.5 -156.5t144.5 -437.5q0 -267 -147 -422t-400 -155q-255 0 -400.5 156t-145.5 430q0 272 145.5 428.5t398.5 156.5zM618 893q-117 0 -188.5 -97t-71.5 -257t71.5 -257.5t188.5 -97.5q115 0 188 98t73 253q0 163 -71 260.5t-190 97.5zM760 1550
l-258 -301h-144l144 301h258zM1145 1550l-258 -301h-144l144 301h258z" />
    <glyph glyph-name="OE" unicode="&#x152;" horiz-adv-x="2048" 
d="M1278 643v-387h709v-256h-1004v121q-75 -95 -144 -131.5t-173 -36.5q-175 0 -314 99.5t-217 278.5t-78 404q0 229 77.5 407.5t218.5 277t321 98.5q98 0 167 -29.5t142 -102.5v107h965v-256h-670v-338h612v-256h-612zM971 365v741q-44 78 -101.5 113.5t-140.5 35.5
q-164 0 -264 -142.5t-100 -377.5t100 -377.5t264 -142.5q83 0 140.5 36t101.5 114z" />
    <glyph glyph-name="oe" unicode="&#x153;" horiz-adv-x="1933" 
d="M1589 311h283q-47 -163 -186.5 -260.5t-325.5 -97.5q-229 0 -367 153q-156 -153 -399 -153q-255 0 -401 156t-146 430q0 273 146 429t401 156q250 0 399 -155q134 155 369 155q170 0 296.5 -85t182.5 -236q43 -124 43 -291q0 -24 -2 -49h-741q3 -128 43 -193
q28 -46 78.5 -72t111.5 -26q75 0 135 38.5t80 100.5zM594 893q-117 0 -188.5 -97t-71.5 -257t71.5 -257.5t188.5 -97.5q115 0 187.5 98t72.5 253q0 163 -71 260.5t-189 97.5zM1145 653h440q-11 108 -47 160q-29 43 -76 67.5t-98 24.5q-59 0 -108.5 -29.5t-75.5 -80.5
q-27 -56 -35 -142z" />
    <glyph glyph-name="Racute" unicode="&#x154;" horiz-adv-x="1478" 
d="M471 592v-592h-307v1493h801q189 0 288 -102q113 -116 113 -301q0 -270 -252 -369q41 -18 63.5 -28.5t47.5 -30t36.5 -33t24 -46.5t17 -60.5t9.5 -86t6 -111.5t3 -147q0 -49 14.5 -75.5t50.5 -47.5v-55h-329q-28 54 -36.5 102.5t-8.5 153.5q0 59 2 98v62q0 92 -45.5 134
t-145.5 42h-352zM471 848h371q65 0 100.5 8.5t61.5 30.5q55 46 55 160q0 105 -55 151q-29 23 -62.5 31t-99.5 8h-371v-389zM1012 1917l-260 -307h-142l142 307h260z" />
    <glyph glyph-name="racute" unicode="&#x155;" horiz-adv-x="796" 
d="M129 1106h287v-217q47 112 127.5 173.5t179.5 61.5q19 0 35 -2v-291q-58 9 -90 9q-252 0 -252 -252v-588h-287v1106zM713 1550l-258 -307h-144l144 307h258z" />
    <glyph glyph-name="Rcommaaccent" unicode="&#x156;" horiz-adv-x="1478" 
d="M471 592v-592h-307v1493h801q189 0 288 -102q113 -116 113 -301q0 -270 -252 -369q41 -18 63.5 -28.5t47.5 -30t36.5 -33t24 -46.5t17 -60.5t9.5 -86t6 -111.5t3 -147q0 -49 14.5 -75.5t50.5 -47.5v-55h-329q-28 54 -36.5 102.5t-8.5 153.5q0 59 2 98v62q0 92 -45.5 134
t-145.5 42h-352zM471 848h371q65 0 100.5 8.5t61.5 30.5q55 46 55 160q0 105 -55 151q-29 23 -62.5 31t-99.5 8h-371v-389zM651 -123h250v-211q4 -120 -69 -206t-181 -89v94q140 27 137 183h-137v229z" />
    <glyph glyph-name="rcommaaccent" unicode="&#x157;" horiz-adv-x="796" 
d="M129 1106h287v-217q47 112 127.5 173.5t179.5 61.5q19 0 35 -2v-291q-58 9 -90 9q-252 0 -252 -252v-588h-287v1106zM152 -123h249v-211q4 -120 -68.5 -206t-180.5 -89v94q140 27 137 183h-137v229z" />
    <glyph glyph-name="Rcaron" unicode="&#x158;" horiz-adv-x="1478" 
d="M471 592v-592h-307v1493h801q189 0 288 -102q113 -116 113 -301q0 -270 -252 -369q41 -18 63.5 -28.5t47.5 -30t36.5 -33t24 -46.5t17 -60.5t9.5 -86t6 -111.5t3 -147q0 -49 14.5 -75.5t50.5 -47.5v-55h-329q-28 54 -36.5 102.5t-8.5 153.5q0 59 2 98v62q0 92 -45.5 134
t-145.5 42h-352zM471 848h371q65 0 100.5 8.5t61.5 30.5q55 46 55 160q0 105 -55 151q-29 23 -62.5 31t-99.5 8h-371v-389zM842 1610h-221l-211 307h159l168 -199l168 199h156z" />
    <glyph glyph-name="rcaron" unicode="&#x159;" horiz-adv-x="796" 
d="M129 1106h287v-217q47 112 127.5 173.5t179.5 61.5q19 0 35 -2v-291q-58 9 -90 9q-252 0 -252 -252v-588h-287v1106zM541 1243h-219l-211 307h159l168 -198l168 198h156z" />
    <glyph glyph-name="Sacute" unicode="&#x15a;" horiz-adv-x="1366" 
d="M1243 1038h-287q-8 114 -87.5 174t-225.5 60q-120 0 -189 -50t-69 -135q0 -81 59 -121.5t224 -72.5l233 -45q207 -40 301 -137.5t94 -274.5q0 -229 -161.5 -356t-450.5 -127q-286 0 -445.5 127t-172.5 366h299q8 -120 93.5 -183.5t241.5 -63.5q140 0 220.5 53.5
t80.5 146.5q0 91 -63 139.5t-217 77.5l-209 41q-227 43 -323.5 135.5t-96.5 266.5q0 218 148 338.5t417 120.5q282 0 433 -124t153 -356zM954 1917l-258 -307h-143l143 307h258z" />
    <glyph glyph-name="sacute" unicode="&#x15b;" 
d="M1034 750h-276q-3 149 -207 149q-75 0 -120.5 -28t-45.5 -74q0 -33 20 -50t80 -36l363 -105q217 -64 217 -278q0 -81 -34.5 -154t-96.5 -123q-122 -98 -352 -98q-252 0 -384.5 93t-138.5 276h281q9 -44 20.5 -66t34.5 -39q53 -39 170 -39q100 0 156.5 29t56.5 80
q0 34 -21 53.5t-75 36.5l-342 106q-79 26 -115 44.5t-65 47.5q-62 68 -62 181q0 170 122 269t333 99q223 0 350.5 -99.5t130.5 -274.5zM858 1550l-260 -307h-141l141 307h260z" />
    <glyph glyph-name="Scircumflex" unicode="&#x15c;" horiz-adv-x="1366" 
d="M1243 1038h-287q-8 114 -87.5 174t-225.5 60q-120 0 -189 -50t-69 -135q0 -81 59 -121.5t224 -72.5l233 -45q207 -40 301 -137.5t94 -274.5q0 -229 -161.5 -356t-450.5 -127q-286 0 -445.5 127t-172.5 366h299q8 -120 93.5 -183.5t241.5 -63.5q140 0 220.5 53.5
t80.5 146.5q0 91 -63 139.5t-217 77.5l-209 41q-227 43 -323.5 135.5t-96.5 266.5q0 218 148 338.5t417 120.5q282 0 433 -124t153 -356zM547 1917h219l211 -307h-160l-168 205l-168 -205h-155z" />
    <glyph glyph-name="scircumflex" unicode="&#x15d;" 
d="M1034 750h-276q-3 149 -207 149q-75 0 -120.5 -28t-45.5 -74q0 -33 20 -50t80 -36l363 -105q217 -64 217 -278q0 -81 -34.5 -154t-96.5 -123q-122 -98 -352 -98q-252 0 -384.5 93t-138.5 276h281q9 -44 20.5 -66t34.5 -39q53 -39 170 -39q100 0 156.5 29t56.5 80
q0 34 -21 53.5t-75 36.5l-342 106q-79 26 -115 44.5t-65 47.5q-62 68 -62 181q0 170 122 269t333 99q223 0 350.5 -99.5t130.5 -274.5zM471 1550h219l211 -307h-160l-166 205l-167 -205h-158z" />
    <glyph glyph-name="Scedilla" unicode="&#x15e;" horiz-adv-x="1366" 
d="M696 -47l-34 -80q47 12 83 12q74 0 116 -38t42 -107q0 -92 -68 -141.5t-194 -49.5q-68 0 -129 12.5t-156 45.5l39 106q135 -61 213 -61q49 0 83 24.5t34 59.5q0 32 -28 51.5t-74 19.5q-54 0 -101 -24l86 170q-262 28 -394.5 148.5t-147.5 344.5h299q8 -120 93.5 -183.5
t241.5 -63.5q140 0 220.5 53.5t80.5 146.5q0 91 -63 139.5t-217 77.5l-209 41q-227 43 -323.5 135.5t-96.5 266.5q0 218 148 338.5t417 120.5q282 0 433 -124t153 -356h-287q-8 114 -87.5 174t-225.5 60q-120 0 -189 -50t-69 -135q0 -81 59 -121.5t224 -72.5l233 -45
q207 -40 301 -137.5t94 -272.5q0 -458 -600 -485z" />
    <glyph glyph-name="scedilla" unicode="&#x15f;" 
d="M580 -47l-39 -82q43 14 86 14q72 0 113.5 -39t41.5 -106q0 -92 -67.5 -141.5t-194.5 -49.5q-68 0 -128 12.5t-156 45.5l38 106q135 -61 213 -61q49 0 83 24.5t34 59.5q0 32 -28 51.5t-74 19.5q-52 0 -101 -24l88 172q-220 26 -321 113t-109 254h281q9 -44 20.5 -66
t34.5 -39q53 -39 170 -39q100 0 156.5 29t56.5 80q0 34 -21 53.5t-75 36.5l-342 106q-79 26 -115 44.5t-65 47.5q-62 68 -62 181q0 170 122 269t333 99q223 0 350.5 -99.5t130.5 -274.5h-276q-3 149 -207 149q-75 0 -120.5 -28t-45.5 -74q0 -33 20 -50t80 -36l363 -105
q217 -64 217 -278q0 -166 -125.5 -270.5t-323.5 -104.5h-36z" />
    <glyph glyph-name="Scaron" unicode="&#x160;" horiz-adv-x="1366" 
d="M1243 1038h-287q-8 114 -87.5 174t-225.5 60q-120 0 -189 -50t-69 -135q0 -81 59 -121.5t224 -72.5l233 -45q207 -40 301 -137.5t94 -274.5q0 -229 -161.5 -356t-450.5 -127q-286 0 -445.5 127t-172.5 366h299q8 -120 93.5 -183.5t241.5 -63.5q140 0 220.5 53.5
t80.5 146.5q0 91 -63 139.5t-217 77.5l-209 41q-227 43 -323.5 135.5t-96.5 266.5q0 218 148 338.5t417 120.5q282 0 433 -124t153 -356zM780 1610h-221l-211 307h160l168 -199l168 199h155z" />
    <glyph glyph-name="scaron" unicode="&#x161;" 
d="M1034 750h-276q-3 149 -207 149q-75 0 -120.5 -28t-45.5 -74q0 -33 20 -50t80 -36l363 -105q217 -64 217 -278q0 -81 -34.5 -154t-96.5 -123q-122 -98 -352 -98q-252 0 -384.5 93t-138.5 276h281q9 -44 20.5 -66t34.5 -39q53 -39 170 -39q100 0 156.5 29t56.5 80
q0 34 -21 53.5t-75 36.5l-342 106q-79 26 -115 44.5t-65 47.5q-62 68 -62 181q0 170 122 269t333 99q223 0 350.5 -99.5t130.5 -274.5zM682 1243h-221l-211 307h160l168 -198l167 198h156z" />
    <glyph glyph-name="Tcommaaccent" unicode="&#x162;" horiz-adv-x="1251" 
d="M788 1237v-1237h-307v1237h-452v256h1196v-256h-437zM516 -123h250v-211q4 -120 -69 -206t-181 -89v94q140 27 137 183h-137v229z" />
    <glyph glyph-name="tcommaaccent" unicode="&#x163;" horiz-adv-x="681" 
d="M616 1083v-190h-159v-602q0 -73 18.5 -97t75.5 -24q21 0 65 6v-201q-73 -22 -165 -22q-281 0 -281 260v680h-141v190h141v297h287v-297h159zM260 -123h250v-211q4 -120 -69 -206t-181 -89v94q140 27 137 183h-137v229z" />
    <glyph glyph-name="Tcaron" unicode="&#x164;" horiz-adv-x="1251" 
d="M788 1237v-1237h-307v1237h-452v256h1196v-256h-437zM741 1610h-221l-211 307h160l168 -199l168 199h156z" />
    <glyph glyph-name="tcaron" unicode="&#x165;" horiz-adv-x="796" 
d="M616 1083v-190h-159v-602q0 -73 18.5 -97t75.5 -24q21 0 65 6v-201q-73 -22 -165 -22q-281 0 -281 260v680h-141v190h141v297h287v-297h159zM565 1698h250v-211q4 -120 -69 -206t-181 -89v94q140 27 137 182h-137v230z" />
    <glyph glyph-name="Tbar" unicode="&#x166;" horiz-adv-x="1251" 
d="M788 930h302v-164h-302v-766h-307v766h-299v164h299v307h-452v256h1196v-256h-437v-307z" />
    <glyph glyph-name="tbar" unicode="&#x167;" horiz-adv-x="681" 
d="M457 690h145v-137h-145v-262q0 -73 18 -97t74 -24q23 0 67 6v-201q-76 -22 -165 -22q-281 0 -281 260v340h-121v137h121v203h-141v190h141v297h287v-297h159v-190h-159v-203z" />
    <glyph glyph-name="Utilde" unicode="&#x168;" horiz-adv-x="1478" 
d="M1032 1493h307v-1012q0 -247 -145 -377q-168 -151 -446 -151q-279 0 -447 151q-145 130 -145 377v1012h307v-1012q0 -135 70 -200.5t215 -65.5t214.5 65.5t69.5 200.5v1012zM977 1901h129q-15 -261 -195 -261q-45 0 -112 25l-146 53q-41 13 -63 13q-35 0 -55 -22t-27 -71
h-127q5 120 55.5 187t136.5 67q29 0 47 -4t66 -22l148 -51q30 -13 69 -13q62 0 74 99z" />
    <glyph glyph-name="utilde" unicode="&#x169;" horiz-adv-x="1251" 
d="M1108 0h-287v131q-61 -94 -140 -136t-192 -42q-178 0 -274 99t-96 284v770h287v-711q0 -198 184 -198q105 0 168 59t63 158v692h287v-1106zM862 1534h129q-12 -260 -194 -260q-49 0 -113 24l-145 54q-34 12 -62 12q-37 0 -55.5 -21t-26.5 -71h-129q6 120 57 187t136 67
q29 0 44 -3.5t70 -23.5l146 -51q28 -12 69 -12q65 0 74 98z" />
    <glyph glyph-name="Umacron" unicode="&#x16a;" horiz-adv-x="1478" 
d="M1032 1493h307v-1012q0 -247 -145 -377q-168 -151 -446 -151q-279 0 -447 151q-145 130 -145 377v1012h307v-1012q0 -135 70 -200.5t215 -65.5t214.5 65.5t69.5 200.5v1012zM1055 1839v-162h-613v162h613z" />
    <glyph glyph-name="umacron" unicode="&#x16b;" horiz-adv-x="1251" 
d="M1108 0h-287v131q-61 -94 -140 -136t-192 -42q-178 0 -274 99t-96 284v770h287v-711q0 -198 184 -198q105 0 168 59t63 158v692h287v-1106zM920 1473v-162h-613v162h613z" />
    <glyph glyph-name="Ubreve" unicode="&#x16c;" horiz-adv-x="1478" 
d="M1032 1493h307v-1012q0 -247 -145 -377q-168 -151 -446 -151q-279 0 -447 151q-145 130 -145 377v1012h307v-1012q0 -135 70 -200.5t215 -65.5t214.5 65.5t69.5 200.5v1012zM897 1898h113q2 -10 2 -22q0 -115 -77.5 -192.5t-193.5 -77.5q-123 0 -195 78t-75 214h113
q21 -135 157 -135q69 0 106 31.5t50 103.5z" />
    <glyph glyph-name="ubreve" unicode="&#x16d;" horiz-adv-x="1251" 
d="M1108 0h-287v131q-61 -94 -140 -136t-192 -42q-178 0 -274 99t-96 284v770h287v-711q0 -198 184 -198q105 0 168 59t63 158v692h287v-1106zM750 1532h112q0 -133 -73.5 -213t-196.5 -80q-117 0 -193.5 77.5t-76.5 194.5q0 13 2 21h112q21 -135 158 -135q69 0 105.5 32
t50.5 103z" />
    <glyph glyph-name="Uring" unicode="&#x16e;" horiz-adv-x="1478" 
d="M1032 1493h307v-1012q0 -247 -145 -377q-168 -151 -446 -151q-279 0 -447 151q-145 130 -145 377v1012h307v-1012q0 -135 70 -200.5t215 -65.5t214.5 65.5t69.5 200.5v1012zM750 1944q77 0 129.5 -54t52.5 -133q0 -75 -54.5 -128.5t-129.5 -53.5q-77 0 -131 54t-54 130
q0 78 54.5 131.5t132.5 53.5zM750 1845q-37 0 -62.5 -24.5t-25.5 -61.5q0 -35 25.5 -60.5t62.5 -25.5q34 0 59 25.5t25 60.5q0 37 -24.5 61.5t-59.5 24.5z" />
    <glyph glyph-name="uring" unicode="&#x16f;" horiz-adv-x="1251" 
d="M1108 0h-287v131q-61 -94 -140 -136t-192 -42q-178 0 -274 99t-96 284v770h287v-711q0 -198 184 -198q105 0 168 59t63 158v692h287v-1106zM616 1577q77 0 130 -53.5t53 -132.5q0 -75 -55 -129t-130 -54q-76 0 -130 54t-54 131q0 78 54 131t132 53zM616 1479
q-37 0 -62.5 -24.5t-25.5 -61.5q0 -35 25.5 -60.5t62.5 -25.5q34 0 59 25.5t25 60.5q0 37 -24.5 61.5t-59.5 24.5z" />
    <glyph glyph-name="Uhungarumlaut" unicode="&#x170;" horiz-adv-x="1478" 
d="M1032 1493h307v-1012q0 -247 -145 -377q-168 -151 -446 -151q-279 0 -447 151q-145 130 -145 377v1012h307v-1012q0 -135 70 -200.5t215 -65.5t214.5 65.5t69.5 200.5v1012zM887 1917l-258 -301h-144l144 301h258zM1272 1917l-258 -301h-144l144 301h258z" />
    <glyph glyph-name="uhungarumlaut" unicode="&#x171;" horiz-adv-x="1251" 
d="M1108 0h-287v131q-61 -94 -140 -136t-192 -42q-178 0 -274 99t-96 284v770h287v-711q0 -198 184 -198q105 0 168 59t63 158v692h287v-1106zM760 1550l-258 -301h-144l144 301h258zM1145 1550l-258 -301h-144l144 301h258z" />
    <glyph glyph-name="Uogonek" unicode="&#x172;" horiz-adv-x="1478" 
d="M1223 -362v-97q-79 -20 -164 -20q-83 0 -156 24q-139 46 -139 172q0 74 48 135t165 134q-117 -33 -223 -33q-285 0 -453 151q-145 130 -145 377v1012h307v-1012q0 -135 70 -200.5t215 -65.5t214.5 65.5t69.5 200.5v1012h307v-1012q-3 -87 -12 -139t-39 -111t-75.5 -113.5
t-133.5 -144.5q-71 -75 -102 -132t-31 -111q0 -105 158 -105q56 0 119 13z" />
    <glyph glyph-name="uogonek" unicode="&#x173;" horiz-adv-x="1251" 
d="M952 0h-131v131q-61 -94 -140 -136t-192 -42q-178 0 -274 99t-96 284v770h287v-711q0 -198 184 -198q105 0 168 59t63 158v692h287v-1106q-227 -115 -227 -264q0 -109 155 -109q48 0 119 11v-97q-73 -18 -154 -18q-146 0 -225.5 51t-79.5 143q0 67 44 132.5t118 107.5
q33 21 94 43z" />
    <glyph glyph-name="Wcircumflex" unicode="&#x174;" horiz-adv-x="1933" 
d="M1495 0h-276l-250 1165l-244 -1165h-276l-422 1493h325l232 -1118l231 1118h303l242 -1120l223 1120h326zM862 1917h221l211 -307h-159l-168 205l-168 -205h-156z" />
    <glyph glyph-name="wcircumflex" unicode="&#x175;" horiz-adv-x="1593" 
d="M1255 0h-297l-165 780l-177 -780h-294l-312 1106h297l176 -774l168 774h287l166 -774l168 774h297zM690 1526h219l211 -307h-157l-168 204l-168 -204h-158z" />
    <glyph glyph-name="Ycircumflex" unicode="&#x176;" horiz-adv-x="1366" 
d="M858 553v-553h-307v553l-496 940h342l305 -659l285 659h344zM580 1917h219l211 -307h-160l-168 205l-168 -205h-156z" />
    <glyph glyph-name="ycircumflex" unicode="&#x177;" 
d="M807 1106h295l-455 -1309q-35 -100 -68.5 -143t-93.5 -68q-89 -35 -206 -35q-39 0 -103 9v215q57 -13 76 -13q80 0 129 53.5t49 139.5l-412 1151h316l244 -805zM463 1550h221l211 -307h-160l-168 205l-168 -205h-155z" />
    <glyph glyph-name="Ydieresis" unicode="&#x178;" horiz-adv-x="1366" 
d="M858 553v-553h-307v553l-496 940h342l305 -659l285 659h344zM623 1888v-250h-226v250h226zM1004 1888v-250h-226v250h226z" />
    <glyph glyph-name="Zacute" unicode="&#x179;" horiz-adv-x="1251" 
d="M1184 1493v-256l-762 -981h762v-256h-1123v256l764 981h-764v256h1123zM903 1917l-258 -307h-143l143 307h258z" />
    <glyph glyph-name="zacute" unicode="&#x17a;" horiz-adv-x="1024" 
d="M940 1106v-232l-543 -643h561v-231h-915v231l547 643h-510v232h860zM793 1550l-258 -307h-144l144 307h258z" />
    <glyph glyph-name="Zdotaccent" unicode="&#x17b;" horiz-adv-x="1251" 
d="M1184 1493v-256l-762 -981h762v-256h-1123v256l764 981h-764v256h1123zM741 1888v-250h-225v250h225z" />
    <glyph glyph-name="zdotaccent" unicode="&#x17c;" horiz-adv-x="1024" 
d="M940 1106v-232l-543 -643h561v-231h-915v231l547 643h-510v232h860zM627 1522v-250h-226v250h226z" />
    <glyph glyph-name="Zcaron" unicode="&#x17d;" horiz-adv-x="1251" 
d="M1184 1493v-256l-762 -981h762v-256h-1123v256l764 981h-764v256h1123zM735 1610h-221l-211 307h160l168 -199l168 199h155z" />
    <glyph glyph-name="zcaron" unicode="&#x17e;" horiz-adv-x="1024" 
d="M940 1106v-232l-543 -643h561v-231h-915v231l547 643h-510v232h860zM621 1243h-222l-211 307h160l168 -198l168 198h156z" />
    <glyph glyph-name="longs" unicode="&#x17f;" horiz-adv-x="569" 
d="M416 0h-287v893h-158v190h158v134q0 276 279 276q70 0 165 -6v-215q-43 6 -79 6q-78 0 -78 -86v-1192z" />
    <glyph glyph-name="florin" unicode="&#x192;" 
d="M1024 983v-199h-281l-120 -782q-39 -253 -140 -354q-45 -46 -112.5 -72.5t-143.5 -26.5q-91 0 -184 45l49 236q68 -43 117 -43q56 0 85.5 50t49.5 177l121 770h-252v199h285l20 121q37 218 128.5 319t252.5 101q83 0 197 -35l-41 -236q-70 33 -113 33q-119 0 -156 -219
l-14 -84h252z" />
    <glyph glyph-name="Aringacute" unicode="&#x1fa;" horiz-adv-x="1478" 
d="M1026 301h-559l-100 -301h-314l531 1493h340l516 -1493h-316zM942 557l-194 584l-195 -584h389zM743 1944q77 0 130 -54t53 -133q0 -75 -55 -128.5t-130 -53.5q-77 0 -130.5 53.5t-53.5 130.5q0 78 54 131.5t132 53.5zM743 1845q-37 0 -62.5 -24.5t-25.5 -61.5
q0 -35 25.5 -60.5t62.5 -25.5q34 0 59 25.5t25 60.5q0 37 -24.5 61.5t-59.5 24.5zM805 2191l-258 -307h-144l144 307h258z" />
    <glyph glyph-name="aringacute" unicode="&#x1fb;" 
d="M1073 35v-35h-311q-20 25 -26.5 46.5t-6.5 64.5q-152 -158 -336 -158q-152 0 -244 91t-92 241q0 149 80.5 234.5t245.5 113.5l115 20q106 17 128.5 22.5t51.5 20.5q49 28 49 86q0 111 -166 111q-105 0 -148.5 -33t-54.5 -119h-276q27 383 473 383q224 0 338.5 -85.5
t114.5 -254.5v-614q0 -41 14 -70.5t51 -64.5zM727 444v78q-27 -13 -47 -19t-74 -16l-98 -18q-89 -19 -126.5 -53.5t-37.5 -98.5q0 -61 42 -97t114 -36q109 0 168 67.5t59 192.5zM545 1577q77 0 129.5 -53.5t52.5 -132.5q0 -75 -54.5 -129t-129.5 -54q-77 0 -131 54t-54 131
q0 78 54.5 131t132.5 53zM545 1479q-37 0 -62.5 -24.5t-25.5 -61.5q0 -35 25.5 -60.5t62.5 -25.5q34 0 59 25.5t25 60.5q0 37 -24.5 61.5t-59.5 24.5zM621 1827l-259 -307h-143l143 307h259z" />
    <glyph glyph-name="AEacute" unicode="&#x1fc;" horiz-adv-x="2048" 
d="M881 311h-457l-109 -311h-313l539 1493h1396v-256h-749v-338h694v-256h-694v-387h790v-256h-1097v311zM881 567v670h-138l-233 -670h371zM1421 1917l-258 -307h-143l143 307h258z" />
    <glyph glyph-name="aeacute" unicode="&#x1fd;" horiz-adv-x="1820" 
d="M1458 311h283q-47 -164 -185.5 -261t-326.5 -97q-135 0 -240.5 54.5t-169.5 158.5q-95 -113 -195 -164t-225 -51q-158 0 -251 91.5t-93 246.5q0 151 80 236.5t246 113.5l115 20q106 17 128.5 22.5t51.5 20.5q23 12 36 34.5t13 47.5q0 109 -174 109q-97 0 -140.5 -34.5
t-54.5 -117.5h-268q6 383 467 383q241 0 358 -102q126 102 318 102q172 0 298 -84.5t183 -236.5q43 -118 43 -291q0 -24 -2 -49h-741q0 -71 9 -113.5t32 -77.5q31 -47 81.5 -73.5t110.5 -26.5q74 0 134 39t79 100zM725 442v78q-47 -27 -121 -39l-98 -14q-164 -21 -164 -150
q0 -63 42 -99t114 -36q110 0 168.5 67t58.5 193zM1014 653h442q-21 252 -223 252q-98 0 -154 -64t-65 -188zM1126 1550l-258 -307h-143l143 307h258z" />
    <glyph glyph-name="Oslashacute" unicode="&#x1fe;" horiz-adv-x="1593" 
d="M338 106l-170 -186l-105 94l177 195q-168 226 -168 526q0 168 55 319.5t156 256.5q192 207 512 207q147 0 260 -41t215 -131l170 188l106 -92l-182 -203q69 -94 109 -230t40 -278q0 -165 -55 -316t-153 -255q-195 -207 -510 -207q-279 0 -457 153zM1161 1018l-637 -705
q47 -46 118.5 -72t150.5 -26q189 0 301 142.5t112 381.5q0 155 -45 279zM438 428l643 709q-112 118 -286 118q-191 0 -303.5 -142.5t-112.5 -383.5q0 -168 59 -301zM1014 1917l-258 -307h-144l144 307h258z" />
    <glyph glyph-name="oslashacute" unicode="&#x1ff;" horiz-adv-x="1251" 
d="M258 72l-147 -150l-88 82l153 158q-102 146 -102 377q0 274 146.5 429.5t404.5 155.5q218 0 372 -127l140 144l88 -84l-148 -150q97 -150 97 -368q0 -272 -147 -429t-400 -157q-110 0 -209 32t-160 87zM862 688l-411 -418q74 -86 176 -86q114 0 187 97.5t73 250.5
q0 79 -25 156zM389 377l414 422q-78 96 -182 96q-116 0 -188.5 -97.5t-72.5 -252.5q0 -92 29 -168zM856 1550l-258 -307h-143l143 307h258z" />
    <glyph glyph-name="Scommaaccent" unicode="&#x218;" horiz-adv-x="1366" 
d="M1243 1038h-287q-8 114 -87.5 174t-225.5 60q-120 0 -189 -50t-69 -135q0 -81 59 -121.5t224 -72.5l233 -45q207 -40 301 -137.5t94 -274.5q0 -229 -161.5 -356t-450.5 -127q-286 0 -445.5 127t-172.5 366h299q8 -120 93.5 -183.5t241.5 -63.5q140 0 220.5 53.5
t80.5 146.5q0 91 -63 139.5t-217 77.5l-209 41q-227 43 -323.5 135.5t-96.5 266.5q0 218 148 338.5t417 120.5q282 0 433 -124t153 -356zM578 -123h249v-211q4 -120 -68.5 -206t-180.5 -89v94q140 27 137 183h-137v229z" />
    <glyph glyph-name="scommaaccent" unicode="&#x219;" 
d="M1034 750h-276q-3 149 -207 149q-75 0 -120.5 -28t-45.5 -74q0 -33 20 -50t80 -36l363 -105q217 -64 217 -278q0 -81 -34.5 -154t-96.5 -123q-122 -98 -352 -98q-252 0 -384.5 93t-138.5 276h281q9 -44 20.5 -66t34.5 -39q53 -39 170 -39q100 0 156.5 29t56.5 80
q0 34 -21 53.5t-75 36.5l-342 106q-79 26 -115 44.5t-65 47.5q-62 68 -62 181q0 170 122 269t333 99q223 0 350.5 -99.5t130.5 -274.5zM465 -123h250v-211q4 -120 -69 -206t-181 -89v94q140 27 137 183h-137v229z" />
    <glyph glyph-name="uni021A" unicode="&#x21a;" horiz-adv-x="1251" 
d="M788 1237v-1237h-307v1237h-452v256h1196v-256h-437zM516 -123h250v-211q4 -120 -69 -206t-181 -89v94q140 27 137 183h-137v229z" />
    <glyph glyph-name="uni021B" unicode="&#x21b;" horiz-adv-x="681" 
d="M616 1083v-190h-159v-602q0 -73 18.5 -97t75.5 -24q21 0 65 6v-201q-73 -22 -165 -22q-281 0 -281 260v680h-141v190h141v297h287v-297h159zM260 -123h250v-211q4 -120 -69 -206t-181 -89v94q140 27 137 183h-137v229z" />
    <glyph glyph-name="circumflex" unicode="&#x2c6;" horiz-adv-x="681" 
d="M238 1550h219l211 -307h-160l-168 205l-168 -205h-156z" />
    <glyph glyph-name="caron" unicode="&#x2c7;" horiz-adv-x="681" 
d="M449 1243h-220l-211 307h160l168 -198l168 198h156z" />
    <glyph glyph-name="uni02C9" unicode="&#x2c9;" horiz-adv-x="681" 
d="M645 1473v-162h-612v162h612z" />
    <glyph glyph-name="breve" unicode="&#x2d8;" horiz-adv-x="681" 
d="M612 1532v-23q0 -115 -77 -192.5t-193 -77.5q-117 0 -193.5 77.5t-76.5 194.5v21h114q18 -135 158 -135q67 0 103.5 32t50.5 103h114z" />
    <glyph glyph-name="dotaccent" unicode="&#x2d9;" horiz-adv-x="681" 
d="M455 1522v-250h-226v250h226z" />
    <glyph glyph-name="ring" unicode="&#x2da;" horiz-adv-x="681" 
d="M344 1577q77 0 129.5 -53.5t52.5 -132.5q0 -75 -54.5 -129t-129.5 -54q-76 0 -130 54t-54 131q0 78 54 131t132 53zM344 1479q-37 0 -62.5 -24.5t-25.5 -61.5q0 -35 25.5 -60.5t62.5 -25.5q34 0 59 25.5t25 60.5q0 37 -24.5 61.5t-59.5 24.5z" />
    <glyph glyph-name="ogonek" unicode="&#x2db;" horiz-adv-x="681" 
d="M346 0h154q-130 -79 -177 -136.5t-47 -135.5q0 -53 37.5 -78t118.5 -25q57 0 117 13v-97q-79 -20 -162 -20q-136 0 -215.5 52.5t-79.5 141.5q0 91 67.5 166.5t186.5 118.5z" />
    <glyph glyph-name="tilde" unicode="&#x2dc;" horiz-adv-x="681" 
d="M578 1534h129q-12 -260 -195 -260q-48 0 -113 24l-145 54q-35 12 -61 12q-37 0 -55.5 -21t-26.5 -71h-129q6 120 56.5 187t135.5 67q30 0 45 -3.5t70 -23.5l145 -51q28 -12 70 -12q65 0 74 98z" />
    <glyph glyph-name="hungarumlaut" unicode="&#x2dd;" horiz-adv-x="681" 
d="M311 1550l-258 -301h-143l143 301h258zM696 1550l-258 -301h-143l143 301h258z" />
    <glyph glyph-name="tonos" unicode="&#x384;" horiz-adv-x="681" 
d="M446 1616v-205l-65 -203h-82l-61 203v205h208z" />
    <glyph glyph-name="dieresistonos" unicode="&#x385;" horiz-adv-x="952" 
d="M373 1522v-250h-199v250h199zM780 1522v-250h-198v250h198zM582 1821v-185l-66 -202h-82l-61 202v185h209z" />
    <glyph glyph-name="Alphatonos" unicode="&#x386;" horiz-adv-x="1478" 
d="M1026 301h-559l-100 -301h-314l531 1493h340l516 -1493h-316zM942 557l-194 584l-195 -584h389zM330 1493v-205l-66 -203h-82l-61 203v205h209z" />
    <glyph glyph-name="uni0387" unicode="&#x387;" horiz-adv-x="569" 
d="M131 598h254v-252h-254v252z" />
    <glyph glyph-name="Epsilontonos" unicode="&#x388;" horiz-adv-x="1746" 
d="M745 643v-387h809v-256h-1116v1493h1080v-256h-773v-338h715v-256h-715zM315 1493v-205l-65 -203h-82l-62 203v205h209z" />
    <glyph glyph-name="Etatonos" unicode="&#x389;" horiz-adv-x="1855" 
d="M1323 678h-592v-678h-307v1493h307v-559h590v559h309v-1493h-307v678zM301 1493v-205l-65 -203h-82l-62 203v205h209z" />
    <glyph glyph-name="Iotatonos" unicode="&#x38a;" horiz-adv-x="970" 
d="M739 1493v-1493h-307v1493h307zM309 1493v-205l-65 -203h-82l-62 203v205h209z" />
    <glyph glyph-name="Omicrontonos" unicode="&#x38c;" horiz-adv-x="1689" 
d="M889 1518q320 0 512 -207q100 -106 154.5 -258.5t54.5 -327.5q0 -158 -56 -310t-153 -255q-192 -207 -510 -207t-510 207q-100 106 -154.5 256.5t-54.5 318.5q0 167 54.5 318t154.5 258q192 207 508 207zM891 1255q-187 0 -299.5 -142t-112.5 -378t112.5 -378t299.5 -142
q185 0 298.5 141t113.5 371q0 243 -111.5 385.5t-300.5 142.5zM215 1493v-205l-65 -203h-82l-62 203v205h209z" />
    <glyph glyph-name="Upsilontonos" unicode="&#x38e;" horiz-adv-x="1898" 
d="M1233 553v-553h-307v553l-496 940h342l305 -659l285 659h344zM369 1493v-205l-66 -203h-82l-61 203v205h209z" />
    <glyph glyph-name="Omegatonos" unicode="&#x38f;" horiz-adv-x="1716" 
d="M797 256v-256h-641v256h336q-67 42 -105.5 73t-71.5 72q-131 158 -131 412q0 201 92 362.5t256 252t369 90.5t369 -90.5t256 -252t92 -362.5q0 -254 -131 -412q-34 -41 -72 -72t-104 -73h336v-256h-641v256q81 52 121 85t71 73q109 143 109 385q0 223 -110.5 356
t-295.5 133q-184 0 -294.5 -133t-110.5 -356q0 -262 127 -408q46 -54 174 -135zM227 1493v-205l-65 -203h-82l-62 203v205h209z" />
    <glyph glyph-name="iotadieresistonos" unicode="&#x390;" horiz-adv-x="569" 
d="M428 1106v-1106h-287v1106h287zM180 1522v-250h-198v250h198zM588 1522v-250h-199v250h199zM389 1821v-185l-65 -202h-82l-62 202v185h209z" />
    <glyph glyph-name="Alpha" unicode="&#x391;" horiz-adv-x="1478" 
d="M1026 301h-559l-100 -301h-314l531 1493h340l516 -1493h-316zM942 557l-194 584l-195 -584h389z" />
    <glyph glyph-name="Beta" unicode="&#x392;" horiz-adv-x="1478" 
d="M168 0v1493h666q120 0 203 -26t149 -83q63 -56 99 -131t36 -153q0 -95 -47.5 -165.5t-157.5 -141.5q248 -143 248 -363q0 -91 -39.5 -177.5t-107.5 -143.5q-67 -57 -157.5 -83t-219.5 -26h-672zM475 1237v-338h334q217 0 217 170q0 168 -217 168h-334zM475 643v-387h367
q227 0 227 193q0 194 -227 194h-367z" />
    <glyph glyph-name="Gamma" unicode="&#x393;" horiz-adv-x="1230" 
d="M152 0v1493h1048v-256h-741v-1237h-307z" />
    <glyph glyph-name="uni0394" unicode="&#x394;" horiz-adv-x="1472" 
d="M6 0l533 1493h395l532 -1493h-1460zM410 256h653l-328 942z" />
    <glyph glyph-name="Epsilon" unicode="&#x395;" horiz-adv-x="1366" 
d="M469 643v-387h809v-256h-1116v1493h1079v-256h-772v-338h715v-256h-715z" />
    <glyph glyph-name="Zeta" unicode="&#x396;" horiz-adv-x="1251" 
d="M1184 1493v-256l-762 -981h762v-256h-1123v256l764 981h-764v256h1123z" />
    <glyph glyph-name="Eta" unicode="&#x397;" horiz-adv-x="1478" 
d="M1038 678h-592v-678h-307v1493h307v-559h590v559h310v-1493h-308v678z" />
    <glyph glyph-name="Theta" unicode="&#x398;" horiz-adv-x="1593" 
d="M1075 834v-201h-547v201h547zM799 1518q320 0 512 -207q100 -106 154.5 -258.5t54.5 -327.5q0 -158 -56 -310t-153 -255q-192 -207 -510 -207t-510 207q-100 106 -154.5 256.5t-54.5 318.5q0 167 54.5 318t154.5 258q192 207 508 207zM801 1255q-187 0 -299.5 -142
t-112.5 -378t112.5 -378t299.5 -142q185 0 298 141t113 371q0 243 -111 385.5t-300 142.5z" />
    <glyph glyph-name="Iota" unicode="&#x399;" horiz-adv-x="569" 
d="M436 1493v-1493h-307v1493h307z" />
    <glyph glyph-name="Kappa" unicode="&#x39a;" horiz-adv-x="1478" 
d="M459 500v-500h-307v1493h307v-655l583 655h363l-596 -643l659 -850h-366l-490 659z" />
    <glyph glyph-name="Lambda" unicode="&#x39b;" horiz-adv-x="1366" 
d="M-10 0l530 1493h326l530 -1493h-313l-379 1141l-381 -1141h-313z" />
    <glyph glyph-name="Mu" unicode="&#x39c;" horiz-adv-x="1705" 
d="M442 1163v-1163h-307v1493h459l270 -1188l262 1188h463v-1493h-307v1163l-264 -1163h-307z" />
    <glyph glyph-name="Nu" unicode="&#x39d;" horiz-adv-x="1478" 
d="M1047 0l-601 1032v-1032h-307v1493h316l592 -1016v1016h307v-1493h-307z" />
    <glyph glyph-name="Xi" unicode="&#x39e;" horiz-adv-x="1318" 
d="M55 0v256h1207v-256h-1207zM127 643v256h1047v-256h-1047zM66 1237v256h1183v-256h-1183z" />
    <glyph glyph-name="Omicron" unicode="&#x39f;" horiz-adv-x="1593" 
d="M799 1518q320 0 512 -207q100 -106 154.5 -258.5t54.5 -327.5q0 -158 -56 -310t-153 -255q-192 -207 -510 -207t-510 207q-100 106 -154.5 256.5t-54.5 318.5q0 167 54.5 318t154.5 258q192 207 508 207zM801 1255q-187 0 -299.5 -142t-112.5 -378t112.5 -378t299.5 -142
q185 0 298 141t113 371q0 243 -111 385.5t-300 142.5z" />
    <glyph glyph-name="Pi" unicode="&#x3a0;" horiz-adv-x="1478" 
d="M135 0v1493h1206v-1493h-309v1237h-590v-1237h-307z" />
    <glyph glyph-name="Rho" unicode="&#x3a1;" horiz-adv-x="1366" 
d="M463 532v-532h-307v1493h659q233 0 357 -119.5t124 -343.5q0 -227 -122.5 -362.5t-327.5 -135.5h-383zM463 788h287q123 0 181 55t58 171q0 114 -58 168.5t-181 54.5h-287v-449z" />
    <glyph glyph-name="Sigma" unicode="&#x3a3;" horiz-adv-x="1228" 
d="M53 0v244l486 510l-480 483v256h1094v-256h-709l471 -483l-479 -498h750v-256h-1133z" />
    <glyph glyph-name="Tau" unicode="&#x3a4;" horiz-adv-x="1251" 
d="M788 1237v-1237h-307v1237h-452v256h1196v-256h-437z" />
    <glyph glyph-name="Upsilon" unicode="&#x3a5;" horiz-adv-x="1366" 
d="M858 553v-553h-307v553l-496 940h342l305 -659l285 659h344z" />
    <glyph glyph-name="Phi" unicode="&#x3a6;" horiz-adv-x="1681" 
d="M715 -29v183q-179 16 -299 79q-135 69 -214 208.5t-79 306.5q0 166 79 304.5t214 207.5q120 63 299 79v183h256v-183q189 -16 313 -84q131 -71 204 -204.5t73 -302.5q0 -170 -73 -304.5t-204 -205.5q-124 -68 -313 -84v-183h-256zM715 393v703q-148 -23 -224.5 -111.5
t-76.5 -236.5q0 -146 77.5 -237.5t223.5 -117.5zM971 1096v-703q141 26 220 121.5t79 241.5q0 84 -29.5 155t-83.5 115q-36 30 -77 45.5t-109 24.5z" />
    <glyph glyph-name="Chi" unicode="&#x3a7;" horiz-adv-x="1366" 
d="M858 762l479 -762h-364l-287 518l-285 -518h-356l471 752l-455 741h365l262 -492l275 492h356z" />
    <glyph glyph-name="Psi" unicode="&#x3a8;" horiz-adv-x="1656" 
d="M682 0v266q-280 9 -426 164q-86 98 -115.5 224.5t-27.5 392.5v446h307v-446q0 -233 13.5 -313.5t60.5 -133.5q74 -80 188 -80v973h301v-973q127 0 207 103q34 52 43.5 129.5t9.5 294.5v446h307v-446q2 -290 -37 -427.5t-151 -232.5q-138 -112 -379 -121v-266h-301z" />
    <glyph glyph-name="uni03A9" unicode="&#x3a9;" horiz-adv-x="1642" 
d="M715 256v-256h-639v256h334q-65 41 -102.5 72t-71.5 73q-132 160 -132 412q0 201 92 362.5t255.5 252t367.5 90.5q205 0 369 -90t256 -251.5t92 -363.5q0 -254 -131 -412q-34 -42 -71.5 -73t-102.5 -72h334v-256h-639v256q81 52 121 85t71 73q109 143 109 385
q0 223 -111 356t-297 133q-184 0 -294.5 -133t-110.5 -356q0 -262 127 -408q46 -54 174 -135z" />
    <glyph glyph-name="Iotadieresis" unicode="&#x3aa;" horiz-adv-x="569" 
d="M436 1493v-1493h-307v1493h307zM207 1888v-250h-225v250h225zM588 1888v-250h-226v250h226z" />
    <glyph glyph-name="Upsilondieresis" unicode="&#x3ab;" horiz-adv-x="1366" 
d="M858 553v-553h-307v553l-496 940h342l305 -659l285 659h344zM606 1888v-250h-225v250h225zM987 1888v-250h-225v250h225z" />
    <glyph glyph-name="alphatonos" unicode="&#x3ac;" horiz-adv-x="1259" 
d="M1057 561l260 -561h-316l-102 285q-82 -172 -179 -252t-226 -80q-126 0 -228 75.5t-159.5 208.5t-57.5 298q0 166 58.5 301t161.5 211.5t229 76.5q76 0 151 -33.5t135 -95.5q60 -63 109 -161l84 272h299zM793 561q-55 175 -118 254.5t-145 79.5q-92 0 -149 -97t-57 -253
q0 -159 57 -260t147 -101t162 111q41 66 103 266zM653 1616v-205l-65 -203h-82l-62 203v205h209z" />
    <glyph glyph-name="epsilontonos" unicode="&#x3ad;" horiz-adv-x="923" 
d="M600 637v-184q-72 -1 -107.5 -3t-49.5 -4.5t-44 -9.5q-42 -10 -67 -44.5t-25 -80.5q0 -67 48 -107t128 -40q89 0 140 41t79 133h287q-19 -83 -44.5 -134.5t-74.5 -101.5q-143 -149 -395 -149q-210 0 -332.5 94.5t-122.5 257.5q0 191 166 258q-129 108 -129 254
q0 141 114 224t308 83q212 0 338.5 -90.5t155.5 -263.5h-287q-36 137 -194 137q-72 0 -113 -35t-41 -96q0 -46 26.5 -78.5t73.5 -44.5q48 -14 162 -16zM565 1616v-205l-65 -203h-82l-62 203v205h209z" />
    <glyph glyph-name="etatonos" unicode="&#x3ae;" horiz-adv-x="1251" 
d="M135 1106h287v-160q61 94 140 136t192 42q178 0 274 -99t96 -284v-1187h-286v1128q0 199 -185 199q-105 0 -168 -59t-63 -158v-664h-287v1106zM813 1616v-205l-65 -203h-82l-62 203v205h209z" />
    <glyph glyph-name="iotatonos" unicode="&#x3af;" horiz-adv-x="569" 
d="M428 1106v-1106h-287v1106h287zM389 1616v-205l-65 -203h-82l-62 203v205h209z" />
    <glyph glyph-name="upsilondieresistonos" unicode="&#x3b0;" horiz-adv-x="1191" 
d="M389 1106v-660q0 -87 10.5 -129t40.5 -73q57 -60 158 -60q99 0 158 62q28 31 38.5 73.5t10.5 126.5v660h287v-672q0 -130 -20 -207t-68 -133q-120 -141 -404 -141q-268 0 -391 123q-56 56 -81.5 141t-25.5 217v672h287zM494 1522v-250h-199v250h199zM901 1522v-250h-199
v250h199zM702 1821v-185l-65 -202h-82l-61 202v185h208z" />
    <glyph glyph-name="alpha" unicode="&#x3b1;" horiz-adv-x="1259" 
d="M1034 561l258 -561h-313l-102 285q-82 -172 -179.5 -253t-224.5 -81q-122 0 -220 75.5t-153 209t-55 299.5q0 167 56 301.5t155 211t221 76.5q75 0 150 -34t133 -95q54 -54 110 -161l82 272h299zM768 561q-54 173 -116 253.5t-142 80.5q-86 0 -138.5 -97t-52.5 -257
q0 -158 53 -258.5t136 -100.5q40 0 82 29.5t76 81.5q23 34 42 85t60 183z" />
    <glyph glyph-name="beta" unicode="&#x3b2;" horiz-adv-x="1249" 
d="M135 -446v1427q0 147 18 227t64 142q61 79 165.5 122.5t235.5 43.5q204 0 332.5 -108t128.5 -280q0 -100 -44.5 -173.5t-141.5 -135.5q69 -24 106.5 -44t67.5 -50q51 -51 80 -130.5t29 -170.5q0 -201 -131.5 -336t-329.5 -135q-90 0 -158.5 24.5t-134.5 81.5v-505h-287z
M422 1010v-774q100 -74 217 -74q109 0 179.5 80.5t70.5 203.5q0 88 -35.5 153t-101.5 97q-32 17 -77.5 29t-70.5 10l-31 -2h-10v168q100 5 148 31q43 23 68.5 74t25.5 112q0 91 -51 146t-136 55q-52 0 -97 -25t-68 -67q-19 -34 -25 -77.5t-6 -139.5z" />
    <glyph glyph-name="gamma" unicode="&#x3b3;" 
d="M434 -446v466l-405 1086h307l233 -801l234 801h307l-405 -1086v-466h-271z" />
    <glyph glyph-name="delta" unicode="&#x3b4;" horiz-adv-x="1241" 
d="M219 1534h817v-227h-438l299 -228q148 -113 209 -235t61 -305q0 -274 -145.5 -430t-400.5 -156q-254 0 -400.5 156t-146.5 426q0 290 170 446q59 53 122.5 76.5t170.5 32.5l-318 245v199zM621 893q-117 0 -189 -97.5t-72 -256.5q0 -160 72 -257.5t189 -97.5
q115 0 187.5 98t72.5 253q0 163 -71 260.5t-189 97.5z" />
    <glyph glyph-name="epsilon" unicode="&#x3b5;" horiz-adv-x="972" 
d="M625 637v-184q-76 -1 -112.5 -3t-50.5 -4.5t-44 -9.5q-44 -10 -70 -44.5t-26 -80.5q0 -68 49.5 -107.5t134.5 -39.5q91 0 142 40t79 134h287q-19 -83 -44.5 -134.5t-74.5 -101.5q-74 -78 -169.5 -113.5t-231.5 -35.5q-209 0 -334 95t-125 255q0 193 176 260
q-139 109 -139 256q0 139 116.5 222t313.5 83q214 0 340 -90.5t155 -263.5h-286q-36 137 -197 137q-75 0 -118.5 -35t-43.5 -96q0 -46 27 -78.5t76 -44.5q53 -14 170 -16z" />
    <glyph glyph-name="zeta" unicode="&#x3b6;" horiz-adv-x="942" 
d="M143 1262v231h781v-231q-148 -72 -232 -139.5t-172 -184.5q-180 -239 -180 -463q0 -155 86 -207q48 -30 197 -43l77 -8q149 -14 210 -70t61 -180q0 -92 -19.5 -171.5t-81.5 -241.5h-241q61 135 84.5 208.5t23.5 126.5q0 57 -32 77.5t-136 29.5l-75 6q-165 15 -258 61
q-87 44 -137 147.5t-50 238.5q0 259 178 509q70 98 136.5 162t181.5 142h-402z" />
    <glyph glyph-name="eta" unicode="&#x3b7;" horiz-adv-x="1251" 
d="M135 1106h287v-160q61 94 140 136t192 42q178 0 274 -99t96 -284v-1187h-286v1128q0 199 -185 199q-105 0 -168 -59t-63 -158v-664h-287v1106z" />
    <glyph glyph-name="theta" unicode="&#x3b8;" horiz-adv-x="1107" 
d="M557 1511q273 0 410 -241q106 -186 106 -553q0 -376 -132.5 -570t-389.5 -194q-299 0 -428 264q-40 85 -64 230t-24 305q0 394 139 579q139 180 383 180zM322 856h464q-2 131 -22 227q-44 197 -213 197q-144 0 -201 -162q-23 -75 -28 -262zM786 666h-464q0 -167 16 -254
q19 -110 75 -169t144 -59q137 0 195 156q20 54 27 126t7 200z" />
    <glyph glyph-name="iota" unicode="&#x3b9;" horiz-adv-x="569" 
d="M428 1106v-1106h-287v1106h287z" />
    <glyph glyph-name="kappa" unicode="&#x3ba;" horiz-adv-x="1142" 
d="M410 676l362 430h326l-377 -418l403 -688h-331l-265 492l-118 -130v-362h-287v1106h287v-430z" />
    <glyph glyph-name="lambda" unicode="&#x3bb;" 
d="M33 0l391 1006l-191 487h289l594 -1493h-313l-236 719l-239 -719h-295z" />
    <glyph glyph-name="uni03BC" unicode="&#x3bc;" horiz-adv-x="1253" 
d="M133 1106h287v-690q0 -107 53 -163t154 -56q97 0 153 58t56 159v692h286v-1106h-286v139q-54 -98 -108 -137t-134 -39q-65 0 -109.5 31t-78.5 98v-538h-273v1552z" />
    <glyph glyph-name="nu" unicode="&#x3bd;" 
d="M723 0h-301l-387 1106h303l240 -809l223 809h303z" />
    <glyph glyph-name="xi" unicode="&#x3be;" horiz-adv-x="911" 
d="M854 -446h-240q69 170 87 225.5t18 99.5q0 61 -33 84q-19 14 -42 19.5t-87 11.5l-94 8q-102 11 -167 30t-114 54q-71 51 -112 138t-41 188q0 181 123 282q36 31 74.5 50.5t111.5 43.5q-209 76 -209 261q0 123 109 213h-168v231h815v-231h-183q-79 0 -123.5 -7t-82.5 -26
q-43 -22 -69 -62t-26 -86q0 -50 30.5 -93t78.5 -64q76 -31 192 -31h127v-231h-131q-165 0 -247 -31q-61 -23 -98.5 -78t-37.5 -123q0 -48 19 -90.5t51 -65.5q28 -20 58.5 -28t115.5 -19l141 -16q76 -9 118 -23.5t71 -42.5q67 -61 67 -180q0 -82 -22 -169.5t-80 -241.5z" />
    <glyph glyph-name="omicron" unicode="&#x3bf;" horiz-adv-x="1251" 
d="M625 1124q260 0 404.5 -156.5t144.5 -437.5q0 -267 -147 -422t-400 -155q-255 0 -401 156t-146 430q0 272 146 428.5t399 156.5zM627 893q-117 0 -188.5 -97t-71.5 -257t71.5 -257.5t188.5 -97.5q115 0 187.5 98t72.5 253q0 163 -71 260.5t-189 97.5z" />
    <glyph glyph-name="pi" unicode="&#x3c0;" horiz-adv-x="1568" 
d="M1425 1106v-229h-149v-877h-287v877h-409v-877h-287v877h-150v229h1282z" />
    <glyph glyph-name="rho" unicode="&#x3c1;" horiz-adv-x="1267" 
d="M133 -446v948q0 166 28 268.5t97 183.5q67 82 172.5 126t231.5 44q249 0 388.5 -157.5t139.5 -438.5q0 -255 -130 -415t-339 -160q-106 0 -176.5 42.5t-124.5 137.5v-579h-287zM668 893q-118 0 -183 -92.5t-65 -261.5q0 -167 64.5 -261t179.5 -94q112 0 175.5 91.5
t63.5 252.5q0 172 -62.5 268.5t-172.5 96.5z" />
    <glyph glyph-name="uni03C2" unicode="&#x3c2;" horiz-adv-x="1064" 
d="M1049 680h-275q-9 103 -65.5 158t-153.5 55q-113 0 -182.5 -83t-69.5 -218q0 -80 26 -149.5t72 -110.5q69 -62 217 -113l115 -39q101 -36 141.5 -55.5t69.5 -46.5q68 -68 68 -166q0 -66 -17.5 -133.5t-76.5 -224.5h-240q96 218 96 294q0 43 -27 67t-98 44l-180 49
q-223 60 -338 200t-115 351q0 131 51.5 252.5t139.5 196.5q137 116 354 116q258 0 395 -172q46 -57 66.5 -116.5t26.5 -155.5z" />
    <glyph glyph-name="sigma" unicode="&#x3c3;" horiz-adv-x="1400" 
d="M1303 1106v-229h-246q91 -82 132.5 -171.5t41.5 -203.5q0 -105 -38.5 -208t-105.5 -179q-71 -78 -174 -120t-227 -42q-254 0 -399.5 156.5t-145.5 429.5q0 266 144 422q69 75 172.5 119t210.5 44q70 0 196 -18h439zM688 893q-117 0 -188.5 -97t-71.5 -257t71.5 -257.5
t188.5 -97.5q115 0 187.5 98t72.5 253q0 163 -71 260.5t-189 97.5z" />
    <glyph glyph-name="tau" unicode="&#x3c4;" horiz-adv-x="913" 
d="M315 0v877h-292v229h870v-229h-291v-877h-287z" />
    <glyph glyph-name="upsilon" unicode="&#x3c5;" horiz-adv-x="1191" 
d="M389 1106v-660q0 -87 10.5 -129t40.5 -73q57 -60 158 -60q99 0 158 62q28 31 38.5 73.5t10.5 126.5v660h287v-672q0 -130 -20 -207t-68 -133q-120 -141 -404 -141q-268 0 -391 123q-56 56 -81.5 141t-25.5 217v672h287z" />
    <glyph glyph-name="phi" unicode="&#x3c6;" horiz-adv-x="1464" 
d="M598 178v938q68 8 131 8q326 0 499 -150.5t173 -434.5q0 -336 -234 -482q-66 -40 -131.5 -58.5t-169.5 -25.5v-419h-268v419q-104 7 -169 25.5t-130 58.5q-236 145 -236 484q0 214 105.5 355t300.5 191v-178q-139 -108 -139 -348q0 -185 92 -297q33 -39 73.5 -58.5
t102.5 -27.5zM866 909v-731q62 6 102 24.5t74 57.5q93 107 93 281q0 177 -93 284q-34 40 -73.5 59t-102.5 25z" />
    <glyph glyph-name="chi" unicode="&#x3c7;" horiz-adv-x="1179" 
d="M592 604l231 502h301l-387 -744l422 -808h-315l-256 559l-260 -559h-305l419 800l-389 752h309z" />
    <glyph glyph-name="psi" unicode="&#x3c8;" horiz-adv-x="1542" 
d="M635 -446v417q-281 3 -426 176q-57 75 -75.5 146.5t-18.5 214.5v598h286v-584q-3 -173 51.5 -250t182.5 -82v916h272v-916q126 1 182.5 81t53.5 251v584h287v-598q0 -149 -23.5 -227.5t-91.5 -155.5q-77 -78 -175 -115.5t-233 -38.5v-417h-272z" />
    <glyph glyph-name="omega" unicode="&#x3c9;" horiz-adv-x="1730" 
d="M1061 1106h311q110 -138 161.5 -285t51.5 -325q0 -259 -125 -408q-56 -65 -131 -100t-158 -35q-199 0 -305 207q-104 -207 -305 -207q-173 0 -287 133q-127 148 -127 412q0 177 51.5 323.5t161.5 284.5h312q-238 -273 -238 -606q0 -146 43.5 -229t120.5 -83q75 0 113 78
q26 56 26 213v348h258v-348q0 -98 7.5 -146.5t27.5 -82.5q41 -62 105 -62q76 0 119.5 83t43.5 229q0 334 -237 606z" />
    <glyph glyph-name="iotadieresis" unicode="&#x3ca;" horiz-adv-x="569" 
d="M428 1106v-1106h-287v1106h287zM207 1522v-250h-225v250h225zM588 1522v-250h-226v250h226z" />
    <glyph glyph-name="upsilondieresis" unicode="&#x3cb;" horiz-adv-x="1191" 
d="M389 1106v-660q0 -87 10.5 -129t40.5 -73q57 -60 158 -60q99 0 158 62q28 31 38.5 73.5t10.5 126.5v660h287v-672q0 -130 -20 -207t-68 -133q-120 -141 -404 -141q-268 0 -391 123q-56 56 -81.5 141t-25.5 217v672h287zM520 1522v-250h-225v250h225zM901 1522v-250h-225
v250h225z" />
    <glyph glyph-name="omicrontonos" unicode="&#x3cc;" horiz-adv-x="1251" 
d="M625 1124q260 0 404.5 -156.5t144.5 -437.5q0 -267 -147 -422t-400 -155q-255 0 -401 156t-146 430q0 272 146 428.5t399 156.5zM627 893q-117 0 -188.5 -97t-71.5 -257t71.5 -257.5t188.5 -97.5q115 0 187.5 98t72.5 253q0 163 -71 260.5t-189 97.5zM731 1616v-205
l-65 -203h-82l-62 203v205h209z" />
    <glyph glyph-name="upsilontonos" unicode="&#x3cd;" horiz-adv-x="1191" 
d="M389 1106v-660q0 -87 10.5 -129t40.5 -73q57 -60 158 -60q99 0 158 62q28 31 38.5 73.5t10.5 126.5v660h287v-672q0 -130 -20 -207t-68 -133q-120 -141 -404 -141q-268 0 -391 123q-56 56 -81.5 141t-25.5 217v672h287zM702 1616v-205l-65 -203h-82l-61 203v205h208z" />
    <glyph glyph-name="omegatonos" unicode="&#x3ce;" horiz-adv-x="1730" 
d="M1061 1106h311q110 -138 161.5 -285t51.5 -325q0 -259 -125 -408q-56 -65 -131 -100t-158 -35q-199 0 -305 207q-104 -207 -305 -207q-173 0 -287 133q-127 148 -127 412q0 177 51.5 323.5t161.5 284.5h312q-238 -273 -238 -606q0 -146 43.5 -229t120.5 -83q75 0 113 78
q26 56 26 213v348h258v-348q0 -98 7.5 -146.5t27.5 -82.5q41 -62 105 -62q76 0 119.5 83t43.5 229q0 334 -237 606zM971 1616v-205l-66 -203h-82l-61 203v205h209z" />
    <glyph glyph-name="theta1" unicode="&#x3d1;" horiz-adv-x="1191" 
d="M14 614h332q7 -194 27 -268q22 -77 73 -119.5t123 -42.5q160 0 207 213q21 103 21 256v33q-288 17 -441 98q-109 60 -167 150.5t-58 200.5q0 164 121 270t309 106q285 0 428 -276q67 -128 84 -350q56 5 84 10v-195q-33 -8 -84 -10q-3 -298 -82 -473q-58 -126 -172.5 -195
t-263.5 -69q-123 0 -220 51t-155 148q-32 51 -50 112t-30 160h-86v190zM797 877q0 140 -45 260q-26 69 -82 109t-127 40q-67 0 -112.5 -45t-45.5 -111q0 -109 108.5 -176t303.5 -77z" />
    <glyph glyph-name="phi1" unicode="&#x3d5;" horiz-adv-x="1536" 
d="M633 -446v419q-104 7 -169.5 25.5t-131.5 58.5q-234 146 -234 484q0 152 55.5 270.5t159.5 192.5q67 47 140 69.5t180 30.5v254h268v-254q107 -8 180 -30.5t140 -69.5q104 -74 159.5 -192.5t55.5 -270.5q0 -338 -234 -484q-66 -40 -131.5 -58.5t-169.5 -25.5v-419h-268z
M901 901v-723q64 8 103.5 26t72.5 56q92 106 92 281t-92 278q-34 39 -73.5 57.5t-102.5 24.5zM633 178v723q-63 -6 -102.5 -24.5t-73.5 -57.5q-92 -103 -92 -278t92 -281q33 -38 72.5 -56t103.5 -26z" />
    <glyph glyph-name="omega1" unicode="&#x3d6;" horiz-adv-x="1730" 
d="M299 891h-143v215h592q322 0 509 -115q269 -169 269 -508q0 -215 -119.5 -360.5t-296.5 -145.5q-146 0 -258 115q-112 -115 -258 -115q-137 0 -246 95q-172 144 -172 422q0 176 60 299q25 49 63 98zM698 891h-59q-103 -75 -148 -168t-45 -231q0 -131 38 -206t104 -75
q53 0 90 57q31 53 31 181v223h286v-223q0 -81 9.5 -124.5t33.5 -72.5q34 -43 80 -43q61 0 100 74.5t39 193.5q0 123 -51.5 216.5t-148.5 142.5q-60 31 -140.5 43t-218.5 12z" />
    <glyph glyph-name="uni0400" unicode="&#x400;" horiz-adv-x="1366" 
d="M469 643v-387h809v-256h-1116v1493h1079v-256h-772v-338h715v-256h-715zM408 1917h258l143 -307h-143z" />
    <glyph glyph-name="afii10023" unicode="&#x401;" horiz-adv-x="1370" 
d="M459 643v-387h809v-256h-1116v1493h1079v-256h-772v-338h715v-256h-715zM631 1888v-250h-225v250h225zM1012 1888v-250h-226v250h226z" />
    <glyph glyph-name="afii10051" unicode="&#x402;" horiz-adv-x="1812" 
d="M518 0v1237h-416v256h1121v-256h-398v-371q175 135 412 135q207 0 307 -120q74 -93 74 -215v-359q-5 -131 -99.5 -222t-218.5 -85h-262v256h146q55 -1 89.5 28.5t37.5 82.5v231q0 66 -50 103.5t-139 37.5q-103 0 -179.5 -36t-117.5 -105v-598h-307z" />
    <glyph glyph-name="afii10052" unicode="&#x403;" horiz-adv-x="1161" 
d="M244 0v1493h817v-256h-510v-1237h-307zM485 1628l138 250h272l-180 -250h-230z" />
    <glyph glyph-name="afii10053" unicode="&#x404;" horiz-adv-x="1456" 
d="M991 643h-618q23 -206 120.5 -317t256.5 -111q141 0 234 81.5t146 250.5l287 -92q-78 -243 -252.5 -372.5t-423.5 -129.5q-333 0 -520 254q-77 104 -118.5 241.5t-41.5 286.5q0 166 51.5 317t143.5 257q185 209 487 209q433 0 629 -388l-266 -131q-62 134 -147 195
t-209 61q-92 0 -167 -39.5t-122 -111.5q-27 -43 -42.5 -85.5t-33.5 -119.5h606v-256z" />
    <glyph glyph-name="afii10054" unicode="&#x405;" horiz-adv-x="1366" 
d="M1243 1038h-287q-8 114 -87.5 174t-225.5 60q-120 0 -189 -49.5t-69 -135.5q0 -82 58.5 -122t224.5 -72l233 -45q206 -40 300.5 -138t94.5 -272q0 -230 -161 -357.5t-451 -127.5q-286 0 -445.5 127t-172.5 366h299q7 -121 92.5 -184t242.5 -63q140 0 220.5 53.5
t80.5 146.5q0 91 -63.5 139.5t-218.5 77.5l-207 41q-227 43 -323.5 135.5t-96.5 266.5q0 218 148 338.5t415 120.5q284 0 435 -124t153 -356z" />
    <glyph glyph-name="afii10055" unicode="&#x406;" horiz-adv-x="569" 
d="M438 1493v-1493h-307v1493h307z" />
    <glyph glyph-name="afii10056" unicode="&#x407;" horiz-adv-x="565" 
d="M434 1493v-1493h-307v1493h307zM205 1888v-250h-225v250h225zM586 1888v-250h-226v250h226z" />
    <glyph glyph-name="afii10057" unicode="&#x408;" 
d="M694 1493h307v-1096q0 -213 -125 -328.5t-356 -115.5q-211 0 -340 117q-66 60 -95.5 136t-29.5 191v156h307v-156q0 -96 39 -139t125 -43q82 0 125 46.5t43 135.5v1096z" />
    <glyph glyph-name="afii10058" unicode="&#x409;" horiz-adv-x="2240" 
d="M33 0v256h108q71 0 74 72v1165h1088v-567h327q214 0 352 -131t138 -332t-139 -332t-351 -131h-635v1237h-473v-932q5 -120 -91.5 -213t-225.5 -92h-172zM1303 256h327q83 0 132.5 57t49.5 152t-48.5 150t-133.5 55h-327v-414z" />
    <glyph glyph-name="afii10059" unicode="&#x40a;" horiz-adv-x="2177" 
d="M414 678v-678h-308v1493h308v-559h592v559h307v-567h327q214 0 352 -130.5t138 -332.5q0 -201 -139 -332t-351 -131h-634v678h-592zM1313 256h327q83 0 133 57t50 152t-49 150t-134 55h-327v-414z" />
    <glyph glyph-name="afii10060" unicode="&#x40b;" horiz-adv-x="1792" 
d="M506 0v1237h-377v256h1088v-256h-404v-371q96 80 176.5 107.5t224.5 27.5q128 0 206 -28t130 -92q37 -42 57.5 -100t20.5 -115v-666h-307v598q0 51 -37 98q-22 23 -62.5 33t-119.5 10t-142.5 -18.5t-95.5 -50.5q-23 -23 -51 -72v-598h-307z" />
    <glyph glyph-name="afii10061" unicode="&#x40c;" horiz-adv-x="1249" 
d="M68 0v1493h307v-559h178l197 559h311l-236 -690l326 -803h-326l-274 678h-176v-678h-307zM502 1628l137 250h272l-182 -250h-227z" />
    <glyph glyph-name="uni040D" unicode="&#x40d;" horiz-adv-x="1472" 
d="M133 0v1493h307v-924l592 738v186h307v-1493h-307v915l-592 -733v-182h-307zM449 1917h258l143 -307h-143z" />
    <glyph glyph-name="afii10062" unicode="&#x40e;" horiz-adv-x="1273" 
d="M104 0v256h265q37 6 48.5 18.5t33.5 67.5l38 82l-477 1069h318l317 -756l316 756h317l-582 -1303q-93 -187 -301 -190h-293zM795 1911h180q-1 -65 -10 -101t-33 -75q-91 -146 -297 -146q-226 0 -309 168q-29 62 -31 154h182q9 -75 49.5 -113.5t108.5 -38.5q139 0 160 152
z" />
    <glyph glyph-name="afii10145" unicode="&#x40f;" horiz-adv-x="1472" 
d="M158 0v1493h307v-1237h545v1237h307v-1493h-426v-328h-307v328h-426z" />
    <glyph glyph-name="afii10017" unicode="&#x410;" horiz-adv-x="1478" 
d="M1020 301h-559l-101 -301h-313l531 1493h358l498 -1493h-316zM936 557l-195 584l-194 -584h389z" />
    <glyph glyph-name="afii10018" unicode="&#x411;" horiz-adv-x="1472" 
d="M152 0v1493h1083v-256h-776v-338h411q137 0 252 -60t181.5 -163.5t66.5 -226.5q0 -192 -142.5 -320.5t-357.5 -128.5h-718zM459 256h440q72 0 118 53t46 137t-47.5 140.5t-116.5 56.5h-440v-387z" />
    <glyph glyph-name="afii10019" unicode="&#x412;" horiz-adv-x="1478" 
d="M162 0v1493h674q118 0 199.5 -26t146.5 -83q63 -55 98 -130.5t35 -153.5q0 -96 -46.5 -166.5t-158.5 -140.5q248 -143 248 -363q0 -90 -40 -177t-108 -144t-156.5 -83t-217.5 -26h-674zM469 1237v-338h334q217 0 217 170q0 168 -217 168h-334zM469 643v-387h367
q227 0 227 193q0 194 -227 194h-367z" />
    <glyph glyph-name="afii10020" unicode="&#x413;" horiz-adv-x="1161" 
d="M244 0v1493h817v-256h-510v-1237h-307z" />
    <glyph glyph-name="afii10021" unicode="&#x414;" horiz-adv-x="1458" 
d="M-27 -279v535h52q132 2 222 93.5t89 223.5v920h983v-1237h135v-535h-307v279h-866v-279h-308zM1012 256v981h-369v-676q0 -89 -46 -170.5t-124 -134.5h539z" />
    <glyph glyph-name="afii10022" unicode="&#x415;" horiz-adv-x="1366" 
d="M457 643v-387h809v-256h-1116v1493h1079v-256h-772v-338h714v-256h-714z" />
    <glyph glyph-name="afii10024" unicode="&#x416;" horiz-adv-x="1851" 
d="M772 0v678h-199l-274 -678h-324l324 803l-236 690h312l186 -559h211v559h307v-559h193l186 559h309l-235 -690l326 -803h-326l-275 678h-178v-678h-307z" />
    <glyph glyph-name="afii10025" unicode="&#x417;" horiz-adv-x="1282" 
d="M121 496h307q0 -148 47 -209q56 -72 174 -72q97 0 153 58t56 159q0 116 -80 170q-62 41 -135 41h-115v256h93q89 0 145.5 51t56.5 133q0 77 -53 124.5t-139 47.5q-88 0 -137.5 -49t-49.5 -135v-51h-307v51q0 109 26.5 182.5t86.5 130.5q65 62 169.5 98t221.5 36
q212 0 350.5 -114.5t138.5 -289.5q0 -208 -196 -317q112 -38 173.5 -133t61.5 -228q0 -204 -151 -343.5t-373 -139.5q-123 0 -231.5 44t-180.5 122q-112 121 -112 319v58z" />
    <glyph glyph-name="afii10026" unicode="&#x418;" horiz-adv-x="1472" 
d="M133 0v1493h307v-924l592 738v186h307v-1493h-307v915l-592 -733v-182h-307z" />
    <glyph glyph-name="afii10027" unicode="&#x419;" horiz-adv-x="1472" 
d="M133 0v1493h307v-924l592 738v186h307v-1493h-307v915l-592 -733v-182h-307zM895 1911h182q-3 -67 -12 -103t-33 -73q-91 -146 -295 -146q-225 0 -311 168q-27 57 -29 154h181q21 -152 159 -152q68 0 108.5 38.5t49.5 113.5z" />
    <glyph glyph-name="afii10028" unicode="&#x41a;" horiz-adv-x="1249" 
d="M119 0v1493h307v-559h176l207 559h311l-235 -690l323 -803h-323l-275 678h-184v-678h-307z" />
    <glyph glyph-name="afii10029" unicode="&#x41b;" horiz-adv-x="1437" 
d="M10 0v256h109q71 0 74 72v1165h1087v-1493h-307v1237h-473v-932q3 -78 -40.5 -149.5t-118.5 -114t-159 -41.5h-172z" />
    <glyph glyph-name="afii10030" unicode="&#x41c;" horiz-adv-x="1705" 
d="M434 1163v-1163h-307v1493h459l270 -1188l262 1188h463v-1493h-307v1163l-264 -1163h-308z" />
    <glyph glyph-name="afii10031" unicode="&#x41d;" horiz-adv-x="1478" 
d="M444 678v-678h-307v1493h307v-559h592v559h307v-1493h-307v678h-592z" />
    <glyph glyph-name="afii10032" unicode="&#x41e;" horiz-adv-x="1593" 
d="M795 1518q320 0 512 -207q100 -106 154.5 -258.5t54.5 -327.5q0 -158 -56 -310t-153 -255q-192 -207 -510 -207t-510 207q-100 106 -154.5 256.5t-54.5 318.5q0 167 54.5 318t154.5 258q192 207 508 207zM797 1255q-187 0 -299.5 -142t-112.5 -378t112.5 -378t299.5 -142
q185 0 298 141t113 371q0 243 -111 385.5t-300 142.5z" />
    <glyph glyph-name="afii10033" unicode="&#x41f;" horiz-adv-x="1472" 
d="M147 0v1493h1180v-1493h-307v1241h-565v-1241h-308z" />
    <glyph glyph-name="afii10034" unicode="&#x420;" horiz-adv-x="1366" 
d="M449 532v-532h-308v1493h660q233 0 357 -119.5t124 -343.5q0 -227 -122.5 -362.5t-328.5 -135.5h-382zM449 788h286q123 0 181.5 55t58.5 171q0 114 -58.5 168.5t-181.5 54.5h-286v-449z" />
    <glyph glyph-name="afii10035" unicode="&#x421;" horiz-adv-x="1478" 
d="M1395 987h-295q-31 137 -109 202.5t-211 65.5q-182 0 -284.5 -139.5t-102.5 -386.5q0 -245 99.5 -381.5t277.5 -136.5q142 0 228.5 78t101.5 221h295q-13 -256 -185 -406.5t-450 -150.5q-312 0 -493 209.5t-181 570.5q0 364 183.5 574.5t500.5 210.5q167 0 302.5 -61
t221.5 -175q47 -63 70 -130.5t31 -164.5z" />
    <glyph glyph-name="afii10036" unicode="&#x422;" horiz-adv-x="1251" 
d="M786 1237v-1237h-307v1237h-452v256h1196v-256h-437z" />
    <glyph glyph-name="afii10037" unicode="&#x423;" horiz-adv-x="1273" 
d="M104 0v256h265q37 6 48.5 18.5t33.5 67.5l38 82l-477 1069h318l317 -756l316 756h317l-582 -1303q-93 -187 -301 -190h-293z" />
    <glyph glyph-name="afii10038" unicode="&#x424;" horiz-adv-x="1748" 
d="M719 0v207h-111q-230 0 -383 155t-153 388q0 230 153 383t383 153h111v207h307v-207h100q230 0 383.5 -153t153.5 -383q0 -233 -153.5 -388t-383.5 -155h-100v-207h-307zM713 1030h-51q-126 0 -204.5 -77.5t-78.5 -202.5q0 -126 79.5 -206.5t203.5 -80.5h51v567z
M1030 1030v-567h41q126 0 205.5 80.5t79.5 206.5q0 124 -79.5 202t-205.5 78h-41z" />
    <glyph glyph-name="afii10039" unicode="&#x425;" horiz-adv-x="1366" 
d="M850 758l469 -758h-358l-283 518l-285 -518h-348l463 758l-463 735h373l260 -492l283 492h358z" />
    <glyph glyph-name="afii10040" unicode="&#x426;" horiz-adv-x="1495" 
d="M139 0v1493h307v-1237h545v1237h307v-1237h136v-582h-308v326h-987z" />
    <glyph glyph-name="afii10041" unicode="&#x427;" horiz-adv-x="1439" 
d="M1010 0v510q-143 -38 -211 -48.5t-162 -10.5q-269 0 -419 118.5t-150 331.5v592h307v-592q0 -90 70 -139t198 -49q154 0 367 59v721h307v-1493h-307z" />
    <glyph glyph-name="afii10042" unicode="&#x428;" horiz-adv-x="2058" 
d="M100 0v1493h308v-1237h466v1237h308v-1237h467v1237h307v-1493h-1856z" />
    <glyph glyph-name="afii10043" unicode="&#x429;" horiz-adv-x="2086" 
d="M106 0v1493h308v-1237h448v1237h307v-1237h453v1237h307v-1237h135v-582h-307v326h-1651z" />
    <glyph glyph-name="afii10044" unicode="&#x42a;" horiz-adv-x="1781" 
d="M537 0v1237h-504v256h811v-567h327q214 0 352 -131t138 -332t-139 -332t-351 -131h-634zM844 256h327q83 0 133 57t50 152t-49 150t-134 55h-327v-414z" />
    <glyph glyph-name="afii10045" unicode="&#x42b;" horiz-adv-x="2004" 
d="M219 0v1493h307v-567h328q213 0 351 -131t138 -332t-138.5 -332t-350.5 -131h-635zM526 256h328q83 0 132.5 57t49.5 152t-48.5 150t-133.5 55h-328v-414zM1479 0v1493h307v-1493h-307z" />
    <glyph glyph-name="afii10046" unicode="&#x42c;" horiz-adv-x="1472" 
d="M205 0v1493h307v-567h328q213 0 351 -131t138 -332t-138.5 -332t-350.5 -131h-635zM512 256h328q83 0 132.5 57t49.5 152t-48.5 150t-133.5 55h-328v-414z" />
    <glyph glyph-name="afii10047" unicode="&#x42d;" horiz-adv-x="1456" 
d="M1083 643h-618v256h606q-18 77 -33.5 119.5t-42.5 85.5q-48 72 -122 111.5t-166 39.5q-125 0 -210.5 -61.5t-146.5 -194.5l-266 131q196 388 629 388q336 0 518 -250q78 -105 121 -244t43 -289q0 -164 -50 -312.5t-141 -254.5q-185 -215 -489 -215q-249 0 -426.5 132
t-249.5 370l287 92q52 -169 146 -250.5t235 -81.5q159 0 256 111t120 317z" />
    <glyph glyph-name="afii10048" unicode="&#x42e;" horiz-adv-x="2111" 
d="M416 934h235q60 280 237 432t441 152q308 0 494 -207q97 -107 149.5 -257.5t52.5 -318.5q0 -167 -52.5 -317.5t-149.5 -257.5q-186 -207 -494 -207q-407 0 -596 352q-85 160 -100 373h-217v-678h-307v1493h307v-559zM1327 1255q-177 0 -283 -142t-106 -378
q0 -237 106.5 -378.5t284.5 -141.5q175 0 282 141t107 371q0 243 -105.5 385.5t-285.5 142.5z" />
    <glyph glyph-name="afii10049" unicode="&#x42f;" horiz-adv-x="1472" 
d="M1010 0v563h-402q-58 -3 -82 -27t-24 -79v-285q-4 -88 -33.5 -131t-83.5 -41h-283q45 15 66 59t27 136v247q-2 104 46 165.5t134 64.5q-51 22 -79.5 42t-53.5 52q-92 119 -92 278q0 96 40 185t113 153q126 111 315 111h699v-1493h-307zM1010 819v418h-357
q-86 0 -141 -59.5t-55 -151.5q0 -94 53.5 -150.5t142.5 -56.5h357z" />
    <glyph glyph-name="afii10065" unicode="&#x430;" 
d="M1073 35v-35h-313q-20 25 -26.5 46.5t-6.5 64.5q-152 -158 -336 -158q-152 0 -244 91t-92 241q0 149 80.5 234.5t245.5 113.5l115 20q106 17 128.5 22.5t51.5 20.5q49 28 49 86q0 111 -166 111q-105 0 -148.5 -33t-54.5 -119h-276q27 383 473 383q227 0 343 -85.5
t116 -254.5v-614q0 -42 13 -72t48 -63zM725 444v78q-27 -13 -47 -19t-74 -16l-98 -18q-89 -19 -126.5 -53.5t-37.5 -98.5q0 -61 42 -97t114 -36q109 0 168 67.5t59 192.5z" />
    <glyph glyph-name="afii10066" unicode="&#x431;" horiz-adv-x="1265" 
d="M770 1735h299q-5 -166 -38.5 -258.5t-107 -143.5t-214.5 -80q-186 -38 -264.5 -91.5t-90.5 -151.5q156 106 322 106q109 0 209.5 -46.5t169.5 -129.5q125 -152 125 -401q0 -274 -146 -430t-401 -156q-170 0 -299.5 76.5t-190.5 214.5q-57 126 -57 397q0 399 160 612
q64 89 146.5 141.5t228.5 98.5q82 23 114 75t35 167zM633 893q-117 0 -188.5 -97t-71.5 -257t71.5 -257.5t188.5 -97.5q115 0 187.5 98t72.5 253q0 163 -71 260.5t-189 97.5z" />
    <glyph glyph-name="afii10067" unicode="&#x432;" horiz-adv-x="1259" 
d="M178 0v1106h637q128 0 214.5 -81.5t86.5 -201.5q0 -173 -180 -248q203 -67 203 -266q0 -135 -91.5 -222t-232.5 -87h-637zM465 231h270q50 0 83.5 35.5t33.5 87.5q0 51 -34 87t-83 36h-270v-246zM465 672h270q41 0 67.5 28t26.5 74q0 44 -26.5 72t-67.5 28h-270v-202z
" />
    <glyph glyph-name="afii10068" unicode="&#x433;" horiz-adv-x="854" 
d="M150 0v1106h675v-232h-389v-874h-286z" />
    <glyph glyph-name="afii10069" unicode="&#x434;" horiz-adv-x="1300" 
d="M14 -229v460h115q73 0 117.5 73.5t42.5 193.5v608h870v-875h103v-460h-287v229h-674v-229h-287zM872 231v643h-297v-337q-3 -206 -126 -306h423z" />
    <glyph glyph-name="afii10070" unicode="&#x435;" 
d="M1085 463h-739q5 -137 41 -191q63 -94 188 -94q77 0 133.5 34.5t82.5 98.5h294q-47 -163 -188 -260.5t-328 -97.5q-236 0 -373 153t-137 418q0 278 137 439t373 161q167 0 293.5 -85t181.5 -236q43 -118 43 -287q0 -30 -2 -53zM350 653h441q-10 120 -68 183t-156 63
q-190 0 -217 -246z" />
    <glyph glyph-name="afii10072" unicode="&#x436;" horiz-adv-x="1452" 
d="M870 0h-286v489h-123l-182 -489h-295l229 616l-182 490h288l142 -385h123v385h286v-385h105l141 385h293l-186 -490l229 -616h-293l-184 489h-105v-489z" />
    <glyph glyph-name="afii10073" unicode="&#x437;" horiz-adv-x="1017" 
d="M70 367h286q3 -93 35 -134q43 -49 119 -49q63 0 102 39t39 99q0 68 -49 108q-23 19 -47.5 24t-87.5 5h-55v194h55q162 0 162 121q0 56 -35 87.5t-96 31.5q-60 0 -95.5 -31t-35.5 -82v-24h-275v80q0 126 116 207t296 81q186 0 298.5 -83t112.5 -218q0 -172 -157 -254
q92 -53 133 -114.5t41 -149.5q0 -152 -121 -252t-305 -100q-221 0 -344 141q-46 53 -66 112t-26 161z" />
    <glyph glyph-name="afii10074" unicode="&#x438;" horiz-adv-x="1259" 
d="M143 0v1106h287v-666l399 521v145h287v-1106h-287v666l-399 -521v-145h-287z" />
    <glyph glyph-name="afii10075" unicode="&#x439;" horiz-adv-x="1259" 
d="M143 0v1106h287v-666l399 521v145h287v-1106h-287v666l-399 -521v-145h-287zM778 1528h140q-2 -73 -27 -127q-31 -62 -103 -100.5t-157 -38.5q-86 0 -158.5 38.5t-103.5 100.5q-25 55 -25 127h137q6 -61 40.5 -87t109.5 -26q74 0 107.5 26t39.5 87z" />
    <glyph glyph-name="afii10076" unicode="&#x43a;" horiz-adv-x="1024" 
d="M72 1106h286v-385h134l143 385h291l-185 -490l228 -616h-293l-184 489h-134v-489h-286v1106z" />
    <glyph glyph-name="afii10077" unicode="&#x43b;" horiz-adv-x="1300" 
d="M76 0v231h100q35 3 59 32t23 67v776h870v-1106h-286v874h-297v-602q1 -110 -79.5 -190t-193.5 -82h-196z" />
    <glyph glyph-name="afii10078" unicode="&#x43c;" horiz-adv-x="1515" 
d="M1350 0h-275v844l-209 -844h-227l-205 844v-844h-268v1106h385l201 -830l211 830h387v-1106z" />
    <glyph glyph-name="afii10079" unicode="&#x43d;" horiz-adv-x="1236" 
d="M131 0v1106h287v-410h399v410h287v-1106h-287v465h-399v-465h-287z" />
    <glyph glyph-name="afii10080" unicode="&#x43e;" horiz-adv-x="1251" 
d="M625 1124q260 0 404.5 -156.5t144.5 -437.5q0 -267 -147 -422t-400 -155q-255 0 -401 156t-146 430q0 272 146 428.5t399 156.5zM627 893q-117 0 -188.5 -97t-71.5 -257t71.5 -257.5t188.5 -97.5q115 0 187.5 98t72.5 253q0 163 -71 260.5t-189 97.5z" />
    <glyph glyph-name="afii10081" unicode="&#x43f;" horiz-adv-x="1236" 
d="M150 0v1106h937v-1106h-286v874h-365v-874h-286z" />
    <glyph glyph-name="afii10082" unicode="&#x440;" horiz-adv-x="1251" 
d="M410 1106v-164q104 182 315 182q200 0 327.5 -163.5t127.5 -421.5q0 -253 -132 -419.5t-333 -166.5q-205 0 -305 178v-577h-287v1552h287zM651 885q-109 0 -175 -95.5t-66 -252.5q0 -154 66 -249t175 -95q107 0 174.5 94t67.5 245q0 159 -66.5 256t-175.5 97z" />
    <glyph glyph-name="afii10083" unicode="&#x441;" 
d="M1073 692h-274q-25 109 -71.5 155t-133.5 46q-127 0 -178 -94q-56 -106 -56 -269t61.5 -254.5t170.5 -91.5q86 0 133.5 45.5t73.5 153.5h274q-20 -198 -150 -314t-331 -116q-246 0 -382 151t-136 426q0 283 136.5 438.5t385.5 155.5q209 0 335.5 -114.5t141.5 -317.5z
" />
    <glyph glyph-name="afii10084" unicode="&#x442;" horiz-adv-x="1003" 
d="M358 0v874h-325v232h938v-232h-326v-874h-287z" />
    <glyph glyph-name="afii10085" unicode="&#x443;" 
d="M825 1106h295l-454 -1309q-37 -107 -77 -152.5t-122 -74.5q-43 -11 -88 -13.5t-184 -2.5v231q140 -5 189.5 28.5t64.5 141.5l-412 1151h315l244 -805z" />
    <glyph glyph-name="afii10086" unicode="&#x444;" horiz-adv-x="1792" 
d="M754 0h-43q-168 0 -309.5 75t-223.5 204.5t-82 283.5q0 152 80.5 276.5t221.5 195.5t313 71h43v401h286v-401h43q254 0 426 -152q84 -74 134.5 -183.5t50.5 -219.5q0 -117 -55.5 -229.5t-149.5 -186.5q-78 -60 -191 -97.5t-215 -37.5h-43v-446h-286v446zM754 231v643
q-98 -7 -153.5 -26t-106.5 -62q-53 -44 -82 -104.5t-29 -124.5q0 -67 31.5 -132.5t85.5 -111.5q51 -41 105 -58.5t149 -23.5zM1040 874v-643q93 4 145.5 20.5t100.5 53.5q57 43 89 107.5t32 136.5q0 69 -29 132.5t-82 109.5q-51 42 -104.5 59.5t-151.5 23.5z" />
    <glyph glyph-name="afii10087" unicode="&#x445;" 
d="M733 557l369 -557h-344l-187 344l-188 -344h-344l369 557l-361 549h344l180 -334l179 334h344z" />
    <glyph glyph-name="afii10088" unicode="&#x446;" horiz-adv-x="1259" 
d="M145 0v1106h287v-875h354v875h287v-875h115v-559h-287v328h-756z" />
    <glyph glyph-name="afii10089" unicode="&#x447;" horiz-adv-x="1189" 
d="M784 0v369q-184 -54 -340 -54q-94 0 -171.5 27.5t-122.5 75.5q-68 80 -68 235v453h287v-453q0 -49 46 -77.5t126 -28.5q113 0 250 49v510h286v-1106h-293z" />
    <glyph glyph-name="afii10090" unicode="&#x448;" horiz-adv-x="1705" 
d="M123 0v1106h287v-875h301v875h286v-875h301v875h287v-1106h-1462z" />
    <glyph glyph-name="afii10091" unicode="&#x449;" horiz-adv-x="1728" 
d="M88 0v1106h287v-875h325v875h287v-875h324v875h286v-875h115v-557h-287v326h-1337z" />
    <glyph glyph-name="afii10092" unicode="&#x44a;" horiz-adv-x="1492" 
d="M418 0v874h-367v232h654v-410h292q169 0 273 -95t104 -247q0 -154 -107 -254t-270 -100h-579zM705 231h278q46 0 75 33t29 84t-29 84t-75 33h-278v-234z" />
    <glyph glyph-name="afii10093" unicode="&#x44b;" horiz-adv-x="1748" 
d="M207 0v1106h287v-410h292q169 0 273 -95t104 -247q0 -154 -107 -254t-270 -100h-579zM494 231h278q46 0 75.5 33t29.5 84t-29.5 84t-75.5 33h-278v-234zM1253 0v1106h287v-1106h-287z" />
    <glyph glyph-name="afii10094" unicode="&#x44c;" horiz-adv-x="1259" 
d="M188 0v1106h287v-410h293q169 0 273 -95t104 -247q0 -154 -107 -254t-270 -100h-580zM475 231h279q46 0 75 33t29 84t-29 84t-75 33h-279v-234z" />
    <glyph glyph-name="afii10095" unicode="&#x44d;" horiz-adv-x="1130" 
d="M354 463v194h432q-17 106 -85 171t-162 65q-146 0 -222 -154l-254 123q66 126 190.5 194t287.5 68q254 0 399 -156t145 -429q0 -274 -145.5 -430t-400.5 -156q-200 0 -333.5 96t-187.5 279l277 73q62 -217 246 -217q103 0 169 73t85 206h-441z" />
    <glyph glyph-name="afii10096" unicode="&#x44e;" horiz-adv-x="1748" 
d="M387 696h215q19 86 44 141t69 109q146 178 420 178q255 0 400.5 -156t145.5 -431q0 -272 -145.5 -428t-400.5 -156q-238 0 -379 132.5t-164 379.5h-205v-465h-287v1106h287v-410zM1135 893q-117 0 -189 -98t-72 -256q0 -160 72 -257.5t189 -97.5q116 0 188 97t72 254
q0 163 -71 260.5t-189 97.5z" />
    <glyph glyph-name="afii10097" unicode="&#x44f;" horiz-adv-x="1193" 
d="M764 0v412h-189q-76 0 -106.5 -30.5t-30.5 -105.5v-69q0 -127 -41 -207h-297q35 53 48.5 106.5t17.5 165.5q5 102 24 143.5t82 82.5q-83 35 -127.5 108t-44.5 174q0 146 93.5 236t244.5 90h613v-1106h-287zM764 643v231h-289q-44 0 -72 -32t-28 -84q0 -51 28.5 -83
t71.5 -32h289z" />
    <glyph glyph-name="uni0450" unicode="&#x450;" 
d="M1073 463h-741q5 -141 41 -195q65 -96 188 -96q78 0 135.5 36.5t83.5 102.5h283q-47 -164 -186.5 -261t-325.5 -97q-235 0 -370.5 153t-135.5 418q0 278 137 439t375 161q167 0 293.5 -85t181.5 -236q43 -124 43 -291q0 -24 -2 -49zM336 653h440q-10 123 -67.5 187.5
t-155.5 64.5q-190 0 -217 -252zM272 1550h260l142 -307h-142z" />
    <glyph glyph-name="afii10071" unicode="&#x451;" 
d="M1085 463h-739q5 -138 41 -195q62 -96 188 -96q77 0 133.5 36t82.5 103h294q-47 -163 -188 -260.5t-328 -97.5q-236 0 -373 153t-137 418q0 278 137 439t373 161q167 0 293.5 -85t181.5 -236q43 -118 43 -287q0 -30 -2 -53zM350 653h441q-10 123 -68 187.5t-156 64.5
q-190 0 -217 -252zM498 1522v-250h-226v250h226zM879 1522v-250h-226v250h226z" />
    <glyph glyph-name="afii10099" unicode="&#x452;" horiz-adv-x="1251" 
d="M291 0v1104h-217v190h217v213h287v-213h274v-190h-274v-436q74 53 130.5 74.5t122.5 21.5q134 0 216.5 -86t82.5 -225v-371q4 -152 -98.5 -259.5t-253.5 -109.5h-254v191h195q57 2 91.5 39.5t33.5 95.5v414q0 102 -107 102q-45 0 -79.5 -22t-79.5 -80v-453h-287z" />
    <glyph glyph-name="afii10100" unicode="&#x453;" horiz-adv-x="854" 
d="M150 0v1106h675v-232h-389v-874h-286zM324 1225l182 323h274l-274 -323h-182z" />
    <glyph glyph-name="afii10101" unicode="&#x454;" horiz-adv-x="1130" 
d="M776 463h-440q19 -133 85 -206t169 -73q185 0 244 217l278 -73q-56 -183 -188.5 -279t-331.5 -96q-256 0 -401.5 156t-145.5 430q0 273 145.5 429t399.5 156q163 0 287 -68t190 -194l-254 -123q-76 154 -221 154q-94 0 -162.5 -65t-85.5 -171h432v-194z" />
    <glyph glyph-name="afii10102" unicode="&#x455;" 
d="M1034 750h-278q0 149 -205 149q-75 0 -120.5 -28t-45.5 -74q0 -33 20 -50t80 -36l363 -105q217 -65 217 -276q0 -77 -30.5 -147t-84.5 -117q-128 -113 -377 -113t-378.5 93t-135.5 276h281q15 -80 64.5 -112t158.5 -32q102 0 158.5 28.5t56.5 80.5q0 34 -21 53.5
t-75 36.5l-342 106q-79 26 -115 44.5t-65 47.5q-62 68 -62 181q0 170 122 269t331 99q224 0 352 -99.5t131 -274.5z" />
    <glyph glyph-name="afii10103" unicode="&#x456;" horiz-adv-x="569" 
d="M428 1106v-1106h-287v1106h287zM428 1493v-256h-287v256h287z" />
    <glyph glyph-name="afii10104" unicode="&#x457;" horiz-adv-x="575" 
d="M426 1106v-1106h-287v1106h287zM209 1522v-250h-225v250h225zM590 1522v-250h-225v250h225z" />
    <glyph glyph-name="afii10105" unicode="&#x458;" horiz-adv-x="569" 
d="M432 1106v-1305q0 -173 -106 -223q-41 -18 -79.5 -21t-205.5 -3h-31v231h31q63 0 83.5 17.5t20.5 68.5v1235h287zM432 1493v-256h-287v256h287z" />
    <glyph glyph-name="afii10106" unicode="&#x459;" horiz-adv-x="1984" 
d="M68 0v231h100q35 3 59 32t23 67v776h924v-410h339q169 0 273 -95t104 -247q0 -154 -107 -254t-270 -100h-626v874h-350v-602q1 -110 -79.5 -190t-193.5 -82h-196zM1174 231h327q44 0 73.5 33t29.5 84t-29.5 84t-73.5 33h-327v-234z" />
    <glyph glyph-name="afii10107" unicode="&#x45a;" horiz-adv-x="1855" 
d="M143 0v1106h287v-410h399v410h287v-410h293q169 0 273 -95t104 -247q0 -154 -107 -254t-270 -100h-580v465h-399v-465h-287zM1116 231h279q46 0 75 33t29 84t-29 84t-75 33h-279v-234z" />
    <glyph glyph-name="afii10108" unicode="&#x45b;" horiz-adv-x="1251" 
d="M164 0v1110h-211v190h211v207h287v-207h280v-190h-280v-236q106 80 178.5 110t161.5 30q152 0 250 -96.5t98 -247.5v-670h-287v604q0 80 -48.5 128t-129.5 48q-75 0 -127.5 -41.5t-95.5 -134.5v-604h-287z" />
    <glyph glyph-name="afii10109" unicode="&#x45c;" horiz-adv-x="1024" 
d="M389 1225l189 323h268l-268 -323h-189zM72 1106h286v-385h127l144 385h293l-187 -490l230 -616h-295l-185 489h-127v-489h-286v1106z" />
    <glyph glyph-name="uni045D" unicode="&#x45d;" horiz-adv-x="1259" 
d="M143 0v1106h287v-666l399 521v145h287v-1106h-287v666l-399 -521v-145h-287zM330 1550h258l143 -307h-143z" />
    <glyph glyph-name="afii10110" unicode="&#x45e;" 
d="M825 1106h295l-454 -1309q-37 -107 -77 -152.5t-122 -74.5q-43 -11 -88 -13.5t-184 -2.5v231q140 -5 189.5 28.5t64.5 141.5l-412 1151h315l244 -805zM745 1528h140q-3 -80 -27 -127q-29 -61 -102 -100t-158 -39t-158 39t-102 100q-24 47 -27 127h140q6 -61 39.5 -87
t107.5 -26t107.5 26t39.5 87z" />
    <glyph glyph-name="afii10193" unicode="&#x45f;" horiz-adv-x="1236" 
d="M156 0v1106h286v-875h355v875h286v-1106h-321v-328h-287v328h-319z" />
    <glyph glyph-name="uni0462" unicode="&#x462;" horiz-adv-x="1779" 
d="M326 1044h-275v273h275v176h307v-176h434v-273h-434v-145h485q207 0 353.5 -131.5t146.5 -318.5q0 -192 -143 -320.5t-357 -128.5h-792v1044zM633 256h512q74 0 120 52.5t46 137.5q0 84 -47.5 140.5t-118.5 56.5h-512v-387z" />
    <glyph glyph-name="uni0463" unicode="&#x463;" horiz-adv-x="1439" 
d="M293 891h-176v215h178v276h260v-276h211v-215h-211v-205h389q62 0 129 -16t105 -41q74 -50 114.5 -125.5t40.5 -165.5q0 -152 -107 -245t-282 -93h-651v891zM555 227h383q127 0 127 115q0 117 -127 117h-383v-232z" />
    <glyph glyph-name="uni0472" unicode="&#x472;" horiz-adv-x="1593" 
d="M811 1516q155 0 287 -57t224.5 -158t145 -244.5t52.5 -311.5q0 -163 -54.5 -311t-154.5 -254q-191 -203 -510 -203t-510 203q-100 106 -154.5 253t-54.5 310q0 166 54.5 315t154.5 255q194 203 520 203zM1192 573q-150 -45 -234 -45q-61 0 -95 14t-138 81q-88 57 -180 57
q-73 0 -152 -21q26 -201 132.5 -310t275.5 -109q149 0 250 86.5t141 246.5zM406 901q106 29 188 29q120 0 229 -72q84 -56 111 -68t70 -12t103 11t103 28q-22 206 -129.5 321t-279.5 115q-154 0 -255.5 -90t-139.5 -262z" />
    <glyph glyph-name="uni0473" unicode="&#x473;" horiz-adv-x="1251" 
d="M629 1128q249 0 393.5 -154.5t144.5 -420.5q0 -269 -145.5 -422.5t-400.5 -153.5t-401 153.5t-146 420.5q0 274 146 425.5t409 151.5zM367 627q72 28 101 36.5t58 8.5q35 0 65.5 -13.5t76.5 -50.5q60 -49 98 -49q19 0 37.5 6t77.5 31q-12 140 -82 221.5t-178 81.5
q-101 0 -168 -71.5t-86 -200.5zM872 451q-114 -45 -153 -45q-45 0 -109 53q-40 33 -66.5 45t-58.5 12q-44 0 -120 -31q11 -67 24 -104.5t39 -73.5q32 -46 84 -72t109 -26q96 0 162.5 64.5t88.5 177.5z" />
    <glyph glyph-name="uni0474" unicode="&#x474;" horiz-adv-x="1669" 
d="M1542 1470v-284q-13 7 -34.5 19.5t-30.5 17.5q-37 18 -70 18q-20 0 -40 -9.5t-24 -21.5l-423 -1210h-261l-503 1493h307l334 -1124l266 886q76 256 305 256q46 0 82 -8.5t92 -32.5z" />
    <glyph glyph-name="uni0475" unicode="&#x475;" horiz-adv-x="1323" 
d="M1210 1096v-236q-63 23 -76 27t-28 4q-29 0 -44 -16.5t-30 -67.5l-246 -807h-251l-410 1106h289l245 -713l121 469q34 134 101.5 195t181.5 61q61 0 147 -22z" />
    <glyph glyph-name="afii10050" unicode="&#x490;" horiz-adv-x="997" 
d="M752 1493l137 250h272l-182 -250v-256h-510v-1237h-307v1493h590z" />
    <glyph glyph-name="afii10098" unicode="&#x491;" horiz-adv-x="915" 
d="M674 1106l182 324h274l-274 -324v-232h-389v-874h-287v1106h494z" />
    <glyph glyph-name="uni0492" unicode="&#x492;" horiz-adv-x="980" 
d="M461 899h387v-256h-387v-643h-307v643h-103v256h103v594h817v-256h-510v-338z" />
    <glyph glyph-name="uni0493" unicode="&#x493;" horiz-adv-x="819" 
d="M418 657h327v-194h-327v-463h-287v463h-84v194h84v449h676v-232h-389v-217z" />
    <glyph glyph-name="uni0496" unicode="&#x496;" horiz-adv-x="2301" 
d="M946 0v678h-211l-276 -678h-324l324 803l-236 690h312l186 -559h225v559h307v-559h220l186 559h309l-233 -690l221 -547h205v-582h-308v326h-118l-275 678h-207v-678h-307z" />
    <glyph glyph-name="uni0497" unicode="&#x497;" horiz-adv-x="1835" 
d="M1014 0h-287v489h-143l-183 -489h-295l230 616l-182 490h288l142 -385h143v385h287v-385h133l143 385h291l-184 -490l141 -385h182v-559h-286v328h-103l-184 489h-133v-489z" />
    <glyph glyph-name="uni049A" unicode="&#x49a;" horiz-adv-x="1490" 
d="M1001 0h-110l-275 678h-174v-678h-307v1493h307v-559h166l207 559h311l-235 -690l221 -547h197v-584h-308v328z" />
    <glyph glyph-name="uni049B" unicode="&#x49b;" horiz-adv-x="1239" 
d="M842 0h-137l-185 489h-102v-489h-287v1106h287v-385h102l144 385h292l-186 -490l143 -385h215v-559h-286v328z" />
    <glyph glyph-name="uni049C" unicode="&#x49c;" horiz-adv-x="1388" 
d="M506 934v287h162v-287h53l186 559h312l-236 -690l324 -803h-324l-274 678h-41v-287h-162v287h-62v-678h-307v1493h307v-559h62z" />
    <glyph glyph-name="uni049D" unicode="&#x49d;" horiz-adv-x="1144" 
d="M483 721v215h62v-215h55l143 385h291l-184 -490l227 -616h-293l-184 489h-55v-202h-62v202h-65v-489h-287v1106h287v-385h65z" />
    <glyph glyph-name="uni04A2" unicode="&#x4a2;" horiz-adv-x="1478" 
d="M444 678v-678h-307v1493h307v-559h592v559h307v-1237h136v-584h-308v328h-135v678h-592z" />
    <glyph glyph-name="uni04A3" unicode="&#x4a3;" horiz-adv-x="1234" 
d="M131 0v1106h287v-410h399v410h287v-875h115v-561h-287v330h-115v465h-399v-465h-287z" />
    <glyph glyph-name="uni04AE" unicode="&#x4ae;" horiz-adv-x="1366" 
d="M858 553v-553h-307v553l-496 940h342l305 -659l285 659h344z" />
    <glyph glyph-name="uni04AF" unicode="&#x4af;" horiz-adv-x="1112" 
d="M811 1106h295l-393 -1106v-446h-287v446l-403 1106h315l246 -805z" />
    <glyph glyph-name="uni04B0" unicode="&#x4b0;" horiz-adv-x="1366" 
d="M858 489h268v-256h-268v-233h-307v233h-268v256h268v66l-496 938h342l305 -657l285 657h344l-473 -938v-66z" />
    <glyph glyph-name="uni04B1" unicode="&#x4b1;" horiz-adv-x="1112" 
d="M713 0h219v-195h-219v-251h-287v251h-219v195h219l-403 1106h315l246 -805l227 805h295z" />
    <glyph glyph-name="uni04B2" unicode="&#x4b2;" horiz-adv-x="1468" 
d="M848 758l311 -502h262v-582h-307v326h-156l-280 518l-287 -518h-346l463 758l-463 735h373l260 -492l280 492h361z" />
    <glyph glyph-name="uni04B3" unicode="&#x4b3;" horiz-adv-x="1185" 
d="M719 557l215 -326h250v-557h-287v326h-154l-186 344l-188 -344h-344l368 557l-360 549h344l180 -334l178 334h344z" />
    <glyph glyph-name="uni04B6" unicode="&#x4b6;" horiz-adv-x="1468" 
d="M1024 0v510q-143 -38 -211 -48.5t-162 -10.5q-269 0 -419 118.5t-150 331.5v592h307v-592q0 -90 70 -139t198 -49q154 0 367 59v721h307v-1237h135v-588h-307v332h-135z" />
    <glyph glyph-name="uni04B7" unicode="&#x4b7;" horiz-adv-x="1230" 
d="M805 0v369q-184 -54 -340 -54q-94 0 -172 27.5t-123 75.5q-68 80 -68 235v453h287v-453q0 -49 46 -77.5t126 -28.5q113 0 250 49v510h287v-875h114v-553h-286v322h-121z" />
    <glyph glyph-name="uni04B8" unicode="&#x4b8;" horiz-adv-x="1468" 
d="M788 459v-285h-161v277q-255 4 -400 124t-143 326v592h307v-592q0 -84 61 -132t175 -56v311h161v-301q124 15 238 49v721h307v-1493h-307v510q-173 -45 -238 -51z" />
    <glyph glyph-name="uni04B9" unicode="&#x4b9;" horiz-adv-x="1230" 
d="M662 334v-254h-123v237q-33 -2 -72 -2q-96 0 -174 27.5t-123 75.5q-68 77 -68 235v453h287v-453q0 -46 39 -74t111 -32v256h123v-248q73 13 149 41v510h287v-1106h-293v369q-68 -21 -143 -35z" />
    <glyph glyph-name="uni04BA" unicode="&#x4ba;" horiz-adv-x="1468" 
d="M444 1493v-510q143 38 211 48.5t162 10.5q269 0 419 -118.5t150 -331.5v-592h-307v592q0 90 -70 139t-198 49q-154 0 -367 -59v-721h-307v1493h307z" />
    <glyph glyph-name="uni04BB" unicode="&#x4bb;" horiz-adv-x="1259" 
d="M168 0v1507h287v-633q105 81 177.5 111.5t160.5 30.5q152 0 250 -97t98 -249v-670h-287v604q0 80 -48.5 129t-127.5 49q-75 0 -127.5 -42t-95.5 -136v-604h-287z" />
    <glyph glyph-name="uni04C0" unicode="&#x4c0;" horiz-adv-x="569" 
d="M438 1493v-1493h-307v1493h307z" />
    <glyph glyph-name="uni04CF" unicode="&#x4cf;" horiz-adv-x="569" 
d="M438 1493v-1493h-307v1493h307z" />
    <glyph glyph-name="uni04D8" unicode="&#x4d8;" horiz-adv-x="1593" 
d="M86 866h1112q-73 389 -393 389q-132 0 -220.5 -60.5t-152.5 -195.5l-266 131q199 388 643 388q266 0 451 -156q120 -104 188 -271t68 -356q0 -167 -55 -318t-154 -257q-192 -207 -510 -207t-510 207q-99 106 -154 257t-55 316q0 62 8 133zM1198 610h-803
q32 -190 137 -292.5t265 -102.5q161 0 265 102t136 293z" />
    <glyph glyph-name="afii10846" unicode="&#x4d9;" horiz-adv-x="1177" 
d="M74 614h737q-5 137 -41 191q-60 94 -186 94q-78 0 -133.5 -34.5t-81.5 -98.5h-295q47 163 187 260.5t329 97.5q236 0 373 -153t137 -418q0 -278 -137 -439t-373 -161q-167 0 -293.5 85t-181.5 236q-43 118 -43 287q0 30 2 53zM809 424h-440q9 -120 66 -183t157 -63
q190 0 217 246z" />
    <glyph glyph-name="uni04E2" unicode="&#x4e2;" horiz-adv-x="1478" 
d="M1020 301h-559l-101 -301h-313l531 1493h358l498 -1493h-316zM936 557l-195 584l-194 -584h389zM899 1911h182q-3 -67 -12 -103t-33 -73q-91 -146 -295 -146q-225 0 -311 168q-27 57 -29 154h181q21 -152 159 -152q68 0 108.5 38.5t49.5 113.5z" />
    <glyph glyph-name="uni04E3" unicode="&#x4e3;" 
d="M1073 35v-35h-313q-20 25 -26.5 46.5t-6.5 64.5q-152 -158 -336 -158q-152 0 -244 91t-92 241q0 149 80.5 234.5t245.5 113.5l115 20q106 17 128.5 22.5t51.5 20.5q49 28 49 86q0 111 -166 111q-105 0 -148.5 -33t-54.5 -119h-276q27 383 473 383q227 0 343 -85.5
t116 -254.5v-614q0 -42 13 -72t48 -63zM725 444v78q-27 -13 -47 -19t-74 -16l-98 -18q-89 -19 -126.5 -53.5t-37.5 -98.5q0 -61 42 -97t114 -36q109 0 168 67.5t59 192.5zM717 1528h139q-3 -80 -27 -127q-29 -61 -102 -100t-158 -39t-158 39t-102 100q-23 45 -26 127h139
q6 -61 39.5 -87t107.5 -26t108 26t40 87z" />
    <glyph glyph-name="uni04E8" unicode="&#x4e8;" horiz-adv-x="1593" 
d="M795 1518q320 0 512 -207q100 -106 154.5 -258.5t54.5 -327.5q0 -158 -56 -310t-153 -255q-192 -207 -510 -207t-510 207q-100 106 -154.5 256.5t-54.5 318.5q0 167 54.5 318t154.5 258q192 207 508 207zM1198 610h-803q32 -190 137 -292.5t265 -102.5q161 0 265 102
t136 293zM395 866h803q-34 188 -137.5 288.5t-263.5 100.5t-264 -101t-138 -288z" />
    <glyph glyph-name="uni04E9" unicode="&#x4e9;" horiz-adv-x="1251" 
d="M625 1124q260 0 404.5 -156.5t144.5 -437.5q0 -267 -147 -422t-400 -155q-255 0 -401 156t-146 430q0 272 146 428.5t399 156.5zM879 442h-504q23 -124 88.5 -191t163.5 -67t163.5 67t88.5 191zM375 635h504q-23 124 -88.5 191t-163.5 67t-163.5 -67t-88.5 -191z" />
    <glyph glyph-name="uni04EE" unicode="&#x4ee;" horiz-adv-x="1341" 
d="M444 643v-387h809v-256h-1116v1493h1080v-256h-773v-338h715v-256h-715zM829 1911h183q-3 -67 -12 -103t-33 -73q-91 -146 -295 -146q-227 0 -310 168q-17 31 -22.5 62.5t-7.5 91.5h180q21 -152 160 -152q68 0 108 38.5t49 113.5z" />
    <glyph glyph-name="uni04EF" unicode="&#x4ef;" horiz-adv-x="1177" 
d="M1106 463h-739q5 -137 41 -191q63 -94 188 -94q77 0 133 34.5t82 98.5h295q-47 -163 -188 -260.5t-328 -97.5q-236 0 -373 153t-137 418q0 278 137 439t373 161q167 0 293.5 -85t181.5 -236q43 -118 43 -287q0 -30 -2 -53zM371 653h440q-10 120 -67.5 183t-155.5 63
q-190 0 -217 -246zM739 1528h138q-3 -78 -25 -127q-31 -61 -104 -100t-158 -39t-158 39t-102 100q-24 47 -27 127h139q6 -61 40 -87t108 -26t108 26t41 87z" />
    <glyph glyph-name="Wgrave" unicode="&#x1e80;" horiz-adv-x="1933" 
d="M1495 0h-276l-250 1165l-244 -1165h-276l-422 1493h325l232 -1118l231 1118h303l242 -1120l223 1120h326zM723 1917h258l143 -307h-143z" />
    <glyph glyph-name="wgrave" unicode="&#x1e81;" horiz-adv-x="1593" 
d="M1255 0h-297l-165 780l-177 -780h-294l-312 1106h297l176 -774l168 774h287l166 -774l168 774h297zM537 1550h258l143 -307h-143z" />
    <glyph glyph-name="Wacute" unicode="&#x1e82;" horiz-adv-x="1933" 
d="M1495 0h-276l-250 1165l-244 -1165h-276l-422 1493h325l232 -1118l231 1118h303l242 -1120l223 1120h326zM1288 1917l-258 -307h-143l143 307h258z" />
    <glyph glyph-name="wacute" unicode="&#x1e83;" horiz-adv-x="1593" 
d="M1255 0h-297l-165 780l-177 -780h-294l-312 1106h297l176 -774l168 774h287l166 -774l168 774h297zM1006 1550l-258 -307h-144l144 307h258z" />
    <glyph glyph-name="Wdieresis" unicode="&#x1e84;" horiz-adv-x="1933" 
d="M1495 0h-276l-250 1165l-244 -1165h-276l-422 1493h325l232 -1118l231 1118h303l242 -1120l223 1120h326zM889 1888v-250h-225v250h225zM1270 1888v-250h-226v250h226z" />
    <glyph glyph-name="wdieresis" unicode="&#x1e85;" horiz-adv-x="1593" 
d="M1255 0h-297l-165 780l-177 -780h-294l-312 1106h297l176 -774l168 774h287l166 -774l168 774h297zM702 1522v-250h-225v250h225zM1083 1522v-250h-225v250h225z" />
    <glyph glyph-name="Ygrave" unicode="&#x1ef2;" horiz-adv-x="1366" 
d="M858 553v-553h-307v553l-496 940h342l305 -659l285 659h344zM489 1917h259l143 -307h-143z" />
    <glyph glyph-name="ygrave" unicode="&#x1ef3;" 
d="M807 1106h295l-455 -1309q-35 -100 -68.5 -143t-93.5 -68q-89 -35 -206 -35q-39 0 -103 9v215q57 -13 76 -13q80 0 129 53.5t49 139.5l-412 1151h316l244 -805zM264 1550h258l144 -307h-144z" />
    <glyph glyph-name="uni2002" unicode="&#x2002;" horiz-adv-x="1024" 
 />
    <glyph glyph-name="endash" unicode="&#x2013;" 
d="M1141 637v-213h-1159v213h1159z" />
    <glyph glyph-name="emdash" unicode="&#x2014;" horiz-adv-x="2048" 
d="M2054 637v-213h-2068v213h2068z" />
    <glyph glyph-name="afii00208" unicode="&#x2015;" horiz-adv-x="2048" 
d="M2054 637v-213h-2068v213h2068z" />
    <glyph glyph-name="underscoredbl" unicode="&#x2017;" horiz-adv-x="1130" 
d="M1180 -528v-142h-1229v142h1229zM1180 -246v-141h-1229v141h1229z" />
    <glyph glyph-name="quoteleft" unicode="&#x2018;" horiz-adv-x="569" 
d="M422 961h-277v223q-6 133 68 215.5t209 93.5v-94q-170 -30 -164 -182h164v-256z" />
    <glyph glyph-name="quoteright" unicode="&#x2019;" horiz-adv-x="569" 
d="M135 1493h277v-223q6 -133 -68 -215t-209 -94v94q170 30 164 182h-164v256z" />
    <glyph glyph-name="quotesinglbase" unicode="&#x201a;" horiz-adv-x="569" 
d="M135 256h277v-223q6 -133 -68 -215t-209 -94v94q170 30 164 182h-164v256z" />
    <glyph glyph-name="quotereversed" unicode="&#x201b;" horiz-adv-x="569" 
d="M442 1493v-256h-163q-6 -153 163 -182v-94q-135 12 -208.5 94t-67.5 215v223h276z" />
    <glyph glyph-name="quotedblleft" unicode="&#x201c;" horiz-adv-x="1024" 
d="M430 961h-276v223q-6 134 67.5 216.5t208.5 92.5v-94q-170 -30 -164 -182h164v-256zM895 961h-277v223q-6 133 68 215.5t209 93.5v-94q-170 -30 -164 -182h164v-256z" />
    <glyph glyph-name="quotedblright" unicode="&#x201d;" horiz-adv-x="1024" 
d="M150 1493h276v-223q6 -133 -67.5 -215t-208.5 -94v94q169 29 163 182h-163v256zM625 1493h276v-223q6 -133 -67.5 -215t-208.5 -94v94q169 29 163 182h-163v256z" />
    <glyph glyph-name="quotedblbase" unicode="&#x201e;" horiz-adv-x="1024" 
d="M147 256h277v-223q6 -133 -68 -215t-209 -94v94q170 30 164 182h-164v256zM608 256h277v-223q6 -133 -68 -215t-209 -94v94q170 30 164 182h-164v256z" />
    <glyph glyph-name="dagger" unicode="&#x2020;" 
d="M1071 993v-237h-366v-1153h-275v1153h-367v237h367v459h275v-459h366z" />
    <glyph glyph-name="daggerdbl" unicode="&#x2021;" 
d="M1065 993v-237h-367v-457h367v-238h-367v-458h-274v458h-367v238h367v457h-367v237h367v459h274v-459h367z" />
    <glyph glyph-name="bullet" unicode="&#x2022;" horiz-adv-x="716" 
d="M362 870q103 0 177.5 -75.5t74.5 -180.5q0 -106 -75 -181t-181 -75t-181 75t-75 181q0 107 75.5 181.5t184.5 74.5z" />
    <glyph glyph-name="ellipsis" unicode="&#x2026;" horiz-adv-x="2048" 
d="M496 299v-299h-308v299h308zM1178 299v-299h-308v299h308zM1860 299v-299h-308v299h308z" />
    <glyph glyph-name="perthousand" unicode="&#x2030;" horiz-adv-x="2048" 
d="M328 1513q129 0 218 -89t89 -218q0 -123 -90 -211t-215 -88q-128 0 -217.5 88.5t-89.5 214.5t89.5 214.5t215.5 88.5zM328 1350q-60 0 -102 -41.5t-42 -100.5q0 -60 42.5 -101.5t101.5 -41.5q60 0 102.5 41.5t42.5 99.5q0 60 -42 102t-103 42zM1016 1511h137l-862 -1554
h-135zM965 561q129 0 218 -89t89 -218q0 -123 -90 -211t-215 -88q-128 0 -218 88.5t-90 214.5q0 125 90 214t216 89zM965 397q-59 0 -101.5 -41.5t-42.5 -99.5q0 -60 43 -101.5t103 -41.5q59 0 101 41.5t42 99.5q0 60 -42 101.5t-103 41.5zM1720 561q129 0 218.5 -89
t89.5 -218q0 -123 -90.5 -211t-215.5 -88q-128 0 -217.5 88.5t-89.5 214.5t89.5 214.5t215.5 88.5zM1720 397q-60 0 -101.5 -41t-41.5 -100q0 -60 42.5 -101.5t102.5 -41.5q59 0 101.5 41.5t42.5 99.5q0 60 -42.5 101.5t-103.5 41.5z" />
    <glyph glyph-name="minute" unicode="&#x2032;" horiz-adv-x="491" 
d="M381 1378l-145 -524h-117l110 524h152z" />
    <glyph glyph-name="second" unicode="&#x2033;" horiz-adv-x="980" 
d="M494 1378l-146 -524h-117l111 524h152zM766 1378l-145 -524h-117l110 524h152z" />
    <glyph glyph-name="guilsinglleft" unicode="&#x2039;" horiz-adv-x="681" 
d="M170 446v234l342 305v-240l-207 -182l207 -182v-234z" />
    <glyph glyph-name="guilsinglright" unicode="&#x203a;" horiz-adv-x="681" 
d="M506 686v-235l-342 -304v240l207 182l-207 183v233z" />
    <glyph glyph-name="exclamdbl" unicode="&#x203c;" horiz-adv-x="1236" 
d="M504 1487v-430l-86 -633h-137l-84 633v430h307zM504 299v-299h-307v299h307zM1126 1487v-430l-86 -633h-137l-84 633v430h307zM1126 299v-299h-307v299h307z" />
    <glyph glyph-name="uni203E" unicode="&#x203e;" horiz-adv-x="681" 
d="M954 1880v-141h-1228v141h1228z" />
    <glyph glyph-name="fraction" unicode="&#x2044;" horiz-adv-x="569" 
d="M625 1464h178l-866 -1505h-179z" />
    <glyph glyph-name="zerosuperior" unicode="&#x2070;" horiz-adv-x="681" 
d="M334 1470q172 0 256 -131q65 -98 65 -333q0 -241 -80 -340q-87 -113 -241 -113q-166 0 -256 129q-66 104 -66 330q0 247 80 346q83 112 242 112zM334 1319q-71 0 -99 -68t-28 -239q0 -168 28 -234.5t99 -66.5t99 66t28 233q0 173 -28 241t-99 68z" />
    <glyph glyph-name="foursuperior" unicode="&#x2074;" horiz-adv-x="681" 
d="M662 926v-154h-95v-190h-194v190h-367v152l338 528h223v-526h95zM373 926v336l-217 -336h217z" />
    <glyph glyph-name="fivesuperior" unicode="&#x2075;" horiz-adv-x="681" 
d="M623 1452v-164h-379l-27 -158q47 27 78 36.5t74 9.5q129 0 209.5 -84.5t80.5 -219.5q0 -141 -93 -229t-244 -88q-138 0 -224.5 73.5t-83.5 190.5h191q3 -106 121 -106q65 0 102 41.5t37 113.5q0 75 -37 117.5t-104 42.5q-84 0 -111 -65h-176l84 489h502z" />
    <glyph glyph-name="sixsuperior" unicode="&#x2076;" horiz-adv-x="681" 
d="M645 1243h-180q-19 43 -42.5 59.5t-66.5 16.5q-88 0 -125 -88q-15 -37 -18 -131q73 59 170 59q124 0 200 -78.5t76 -206.5q0 -143 -87 -232t-226 -89q-84 0 -153 34t-109 95q-68 104 -68 311q0 234 88 355.5t258 121.5q75 0 138 -26.5t98 -73.5q33 -44 47 -127zM342 1012
q-60 0 -96.5 -42.5t-36.5 -111.5q0 -65 36.5 -106t94.5 -41t95.5 42.5t37.5 108.5q0 69 -35.5 109.5t-95.5 40.5z" />
    <glyph glyph-name="sevensuperior" unicode="&#x2077;" horiz-adv-x="681" 
d="M670 1452v-141q-165 -186 -240.5 -354t-87.5 -375h-197q29 224 97 376.5t217 329.5h-447v164h658z" />
    <glyph glyph-name="eightsuperior" unicode="&#x2078;" horiz-adv-x="681" 
d="M524 1055q76 -43 109 -93.5t33 -125.5q0 -126 -91 -204.5t-239 -78.5q-149 0 -240.5 78.5t-91.5 204.5q0 75 33 126.5t108 92.5q-62 44 -86 83.5t-24 94.5q0 102 86 169.5t215 67.5q128 0 213.5 -67.5t85.5 -169.5q0 -54 -24 -93.5t-87 -84.5zM336 1319q-57 0 -93 -29.5
t-36 -75.5q0 -47 36.5 -76.5t94.5 -29.5q55 0 91 30t36 76t-35.5 75.5t-93.5 29.5zM334 979q-62 0 -98.5 -36.5t-36.5 -98.5q0 -61 36.5 -97t98.5 -36q63 0 100 35.5t37 95.5q0 63 -36.5 100t-100.5 37z" />
    <glyph glyph-name="ninesuperior" unicode="&#x2079;" horiz-adv-x="681" 
d="M25 795h188q1 -40 29 -62t75 -22q69 0 106.5 55t37.5 158q-69 -66 -166 -66q-126 0 -204.5 84t-78.5 219q0 138 88 223.5t228 85.5q174 0 264 -143q63 -100 63 -291q0 -237 -87 -360t-255 -123q-124 0 -205 68t-83 174zM324 1319q-58 0 -91.5 -42t-33.5 -114
q0 -71 33.5 -111t91.5 -40q60 0 96.5 41t36.5 108q0 73 -35.5 115.5t-97.5 42.5z" />
    <glyph glyph-name="nsuperior" unicode="&#x207f;" horiz-adv-x="811" 
d="M86 1200h201v-82q40 52 88.5 75.5t116.5 23.5q67 0 124 -27.5t86 -73.5q33 -49 33 -164v-405h-200v391q0 63 -25.5 92t-81.5 29q-73 0 -107 -43t-34 -137v-332h-201v653z" />
    <glyph glyph-name="franc" unicode="&#x20a3;" 
d="M864 899v-217q47 113 127 174.5t180 61.5q11 0 35 -3v-290q-52 8 -90 8q-252 0 -252 -252v-381h-286v643h-226v-643h-307v1493h1049v-256h-742v-338h512z" />
    <glyph glyph-name="lira" unicode="&#x20a4;" 
d="M768 647h-250q22 -53 25 -65h225v-113h-225q-26 -134 -232 -293q96 46 141 61t89 15q37 0 129 -23q79 -20 131 -20q97 0 215 59l84 -223q-85 -50 -153 -71t-144 -21q-71 0 -203 33q-128 32 -201 32q-59 0 -107.5 -13t-115.5 -48l-113 207q128 88 175.5 152t48.5 153h-224
v113h205q-2 7 -10 30t-12 35h-183v113h123l-8 14q-62 109 -81 162.5t-19 120.5q0 87 40 168.5t111 138.5q126 100 336 100q160 0 275 -58t172 -167q44 -84 55 -248h-268l-2 23q-9 70 -24 105t-48 63q-61 55 -158 55q-87 0 -143.5 -52t-56.5 -132q0 -32 9 -58.5t46 -101.5
q44 -91 61 -133h285v-113z" />
    <glyph glyph-name="peseta" unicode="&#x20a7;" horiz-adv-x="2240" 
d="M1364 586v-111h-90v-319q0 -39 9 -51.5t38 -12.5q25 0 43 4v-108q-54 -13 -96 -13q-86 0 -126 34.5t-40 105.5v360h-80v111h80v159h172v-159h90zM1507 174h168q8 -43 35.5 -60.5t89.5 -17.5q119 0 119 60q0 19 -11 29.5t-40 17.5l-197 59q-81 25 -111 56.5t-30 91.5
q0 92 71 145t191 53q129 0 204 -54t77 -148h-166q-3 44 -29.5 62.5t-85.5 18.5q-42 0 -66 -14.5t-24 -40.5q0 -20 10 -29t43 -18l207 -57q129 -34 129 -150q0 -94 -75.5 -148.5t-205.5 -54.5q-146 0 -223 50.5t-80 148.5zM494 532v-532h-308v1493h353q233 0 357 -119.5
t124 -343.5q0 -227 -122.5 -362.5t-328.5 -135.5h-75zM494 788h41q91 0 134.5 55t43.5 169q0 115 -43.5 170t-134.5 55h-41v-449z" />
    <glyph glyph-name="Euro" unicode="&#x20ac;" 
d="M61 651h82q-4 29 -4 72t2 68h-129l49 139h99q57 263 210.5 408t374.5 145q107 0 185 -29t188 -111l-92 -264q-97 77 -163 107.5t-136 30.5q-95 0 -163 -73t-105 -214h514l-49 -139h-492q-6 -49 -6 -84q0 -36 4 -56h444l-51 -139h-370q40 -140 111 -215.5t163 -75.5
q61 0 119.5 21t179.5 86v-305q-125 -41 -188.5 -55.5t-122.5 -14.5q-122 0 -238.5 62.5t-185.5 164.5q-90 135 -131 332h-148z" />
    <glyph glyph-name="afii61248" unicode="&#x2105;" horiz-adv-x="1812" 
d="M1028 930v-250h-225v250h225z" />
    <glyph glyph-name="Ifraktur" unicode="&#x2111;" horiz-adv-x="1478" 
d="M983 479l-123 158q-25 32 -41 80t-16 88q0 61 31 108t118 115q-130 37 -331 37q-304 0 -304 -133q0 -53 43 -78q25 -13 134 -51q41 -13 68.5 -48t27.5 -73q0 -71 -88 -166q-4 67 -29.5 102t-118.5 101q-57 43 -82.5 93.5t-25.5 119.5q0 149 114 232t318 83q254 0 530 -96
l-4 -29q-128 -89 -172.5 -143.5t-44.5 -120.5q0 -54 21 -91t102 -126q72 -78 103.5 -142t31.5 -132q0 -77 -36.5 -146.5t-100.5 -111.5q-78 -52 -176 -90.5t-154 -38.5q-47 0 -116 34l-138 68q-56 27 -102 27q-40 0 -117 -31l-20 16q76 100 118 136t80 36q42 0 109 -33
l192 -92q64 -31 89.5 -39t56.5 -8q55 0 94 57.5t39 139.5q0 49 -17 88t-63 100z" />
    <glyph glyph-name="afii61289" unicode="&#x2113;" horiz-adv-x="1001" 
d="M348 594q-24 -116 -48 -273t-24 -196q0 -28 8.5 -39.5t28.5 -11.5q28 0 51.5 26t57.5 95q22 43 47 43q15 0 25 -10t10 -25q0 -43 -41 -111q-78 -135 -189 -135q-72 0 -113.5 50.5t-41.5 139.5q0 91 26 287q-38 -37 -73.5 -63.5t-46.5 -26.5q-12 0 -22.5 12.5t-10.5 26.5
q0 22 49 66q54 47 123 126q94 492 199.5 719.5t240.5 227.5q64 0 102.5 -50t38.5 -133q0 -89 -36 -201.5t-99 -219.5q-72 -122 -262 -324zM371 731q131 145 207.5 311t76.5 304q0 35 -14 57t-37 22q-64 0 -117 -157t-116 -537z" />
    <glyph glyph-name="afii61352" unicode="&#x2116;" horiz-adv-x="2283" 
d="M877 0l-484 1032v-1032h-248v1493h254l478 -1016v1016h247v-1493h-247zM1325 0v195h860v-195h-860zM1747 1518q209 0 325.5 -156.5t116.5 -437.5q0 -267 -119 -422.5t-323 -155.5q-206 0 -323 156t-117 430q0 272 118 429t322 157zM1747 1286q-94 0 -151.5 -97
t-57.5 -257t58 -257t153 -97q92 0 150.5 97.5t58.5 252.5q0 162 -58 260t-153 98z" />
    <glyph glyph-name="weierstrass" unicode="&#x2118;" horiz-adv-x="1402" 
d="M641 823l23 -32q-145 -85 -209 -173.5t-64 -203.5q0 -67 25 -121q242 253 370.5 342.5t249.5 89.5q89 0 145 -65t56 -171q0 -176 -129 -323q-72 -85 -155.5 -132.5t-159.5 -47.5q-78 0 -128.5 44.5t-50.5 114.5q0 58 32.5 100t76.5 42q26 0 42.5 -16.5t16.5 -41.5
q0 -29 -20.5 -49.5t-54.5 -23.5q-43 -3 -43 -43q0 -35 36.5 -62.5t83.5 -27.5q52 0 105.5 35t91.5 94q52 76 85.5 181t33.5 189q0 68 -31.5 110t-83.5 42q-56 0 -118.5 -33.5t-157.5 -114.5q-161 -132 -275 -274q63 -130 89 -210t26 -142q0 -103 -58 -174.5t-141 -71.5
q-75 0 -125.5 54.5t-50.5 137.5q0 63 28 126.5t107 179.5q-47 122 -47 196q0 252 379 475zM328 111q-77 -118 -97 -163.5t-20 -105.5q0 -66 37 -108.5t94 -42.5q46 0 75 30.5t29 77.5q0 96 -118 312z" />
    <glyph glyph-name="Rfraktur" unicode="&#x211c;" horiz-adv-x="1593" 
d="M238 25l-35 10q34 100 77.5 146t106.5 46q30 0 54.5 -10t62.5 -37q26 -16 41 -16q14 0 32.5 23t28.5 53q27 80 27 225v303v20v21q0 136 -53.5 213.5t-147.5 77.5q-80 0 -134 -56t-54 -139q0 -80 65 -133q13 -11 30.5 -21t98.5 -51q92 -48 92 -112q0 -40 -20.5 -81
t-71.5 -101l-22 6q6 30 6 49q0 73 -117 139q-91 51 -124.5 104.5t-33.5 147.5q0 161 105 273t256 112q78 0 145.5 -36.5t108.5 -100.5q129 135 295 135q129 0 216 -83t87 -206q0 -82 -65 -141.5t-210 -110.5q45 -28 70 -68.5t49 -127.5l60 -228q13 -58 32 -81t52 -23
q10 0 45 12l26 -28q-61 -76 -123 -119t-112 -43q-57 0 -92 137l-86 344q-19 75 -28.5 97t-29.5 34q-30 21 -92 21q-12 0 -33 -3v-116q0 -213 -90 -350q-52 -76 -112 -118t-119 -42q-42 0 -61 8t-91 55q-24 17 -53 17q-31 0 -59 -47zM823 770v-76q97 24 138.5 37.5t85.5 36.5
q46 25 73 69t27 95q0 77 -54 126.5t-139 49.5q-48 0 -81.5 -11.5t-77.5 -43.5q19 -67 23.5 -112t4.5 -171z" />
    <glyph glyph-name="uni211E" unicode="&#x211e;" horiz-adv-x="1554" 
d="M956 264l-147 225q-14 -2 -37 -2h-350v-487h-281v1366h602q215 0 329 -109t114 -315q0 -131 -46.5 -233t-131.5 -154l65 -121l68 127h243l-196 -297l201 -301h-244l-72 133l-74 -133h-241zM422 721h262q114 0 167.5 50.5t53.5 156.5q0 105 -53.5 155t-167.5 50h-262v-412
z" />
    <glyph glyph-name="trademark" unicode="&#x2122;" horiz-adv-x="2048" 
d="M621 1333v-774h-195v774h-281v160h748v-160h-272zM1546 559h-192l-174 715v-715h-187v934h281l176 -717l172 717h281v-934h-187v715z" />
    <glyph glyph-name="uni2126" unicode="&#x2126;" horiz-adv-x="1572" 
d="M680 256v-256h-639v256h348q-88 58 -127 91t-74 77q-118 151 -118 389q0 151 53.5 282t148 224t227.5 146t287 53q204 0 367.5 -90.5t255.5 -251.5t92 -361q0 -256 -137 -414q-31 -35 -67 -64t-115 -81h348v-256h-639v256q83 54 124 88.5t72 75.5q105 142 105 377
q0 224 -111 357.5t-297 133.5q-185 0 -295 -133.5t-110 -357.5q0 -252 119 -396q53 -64 182 -145z" />
    <glyph glyph-name="estimated" unicode="&#x212e;" horiz-adv-x="1228" 
d="M1092 500h-764l-2 -193q30 -95 73 -135q75 -66 209 -66q112 0 195.5 50.5t124.5 142.5q4 12 8 20h131l-4 -14l-4 -10q-47 -155 -163.5 -236.5t-291.5 -81.5q-232 0 -363.5 146.5t-131.5 404.5t135.5 412t363.5 154q152 0 269.5 -73t169.5 -200q24 -61 33 -119.5
t12 -169.5v-18v-14zM901 610v166q-15 43 -43 74q-51 60 -110 86.5t-142 26.5q-102 0 -163 -42t-111 -147v-164h569z" />
    <glyph glyph-name="aleph" unicode="&#x2135;" horiz-adv-x="1024" 
d="M612 598l138 324h-82q-49 0 -74 5.5t-39 22.5q-45 39 -45 131q0 117 88 211v-32q0 -49 24 -69t83 -20h139q67 0 96 -33.5t29 -111.5q0 -82 -27 -176q-6 38 -23 55t-51 17h-45l-90 -217q-31 -82 -31 -132t19.5 -91.5t77.5 -114.5l80 -101q38 -49 52.5 -80.5t14.5 -64.5
q0 -54 -31 -121l-612 770q-29 -54 -38 -80t-9 -55q0 -46 21 -93.5t73 -117.5q85 -114 108 -162t23 -110q0 -91 -45 -121.5t-180 -30.5h-168v125h37q72 0 72 57q0 17 -6.5 30t-47.5 81q-59 104 -59 160q0 60 57 165l115 216l-143 178q-56 70 -56 123q0 59 31 129z" />
    <glyph glyph-name="oneeighth" unicode="&#x215b;" horiz-adv-x="1708" 
d="M1155 1464h178l-866 -1505h-178zM256 1174h-219v124q238 0 282 154h132v-870h-195v592zM1522 475q75 -41 109 -94t34 -129q0 -124 -86 -202.5t-223 -78.5t-223 78.5t-86 202.5q0 76 34 129t109 94q-60 31 -87.5 73t-27.5 105q0 101 80 168.5t201 67.5t200.5 -67
t79.5 -169q0 -64 -26 -105t-88 -73zM1358 750q-59 0 -95 -31t-36 -82t36.5 -83t94.5 -32q57 0 93 32t36 83t-36 82t-93 31zM1356 406q-63 0 -100 -40t-37 -106q0 -65 37 -103t100 -38t100 38t37 101q0 69 -37 108.5t-100 39.5z" />
    <glyph glyph-name="threeeighths" unicode="&#x215c;" horiz-adv-x="1708" 
d="M1223 1464h178l-866 -1505h-179zM1536 475q75 -41 109 -94t34 -129q0 -124 -86 -202.5t-223 -78.5t-223 78.5t-86 202.5q0 76 34 129t109 94q-60 31 -87 73t-27 105q0 102 79.5 169t200.5 67t201 -67.5t80 -168.5q0 -64 -26.5 -105t-88.5 -73zM1370 750q-57 0 -93 -31
t-36 -82t36 -83t93 -32q58 0 94.5 32t36.5 83t-36 82t-95 31zM1370 406q-63 0 -100 -40t-37 -106q0 -65 37 -103t100 -38t100 38t37 101q0 69 -37 108.5t-100 39.5zM291 965v127h20q156 0 156 118q0 51 -29.5 81t-79.5 30q-63 0 -89 -33.5t-27 -118.5h-183q5 77 18 121.5
t42 79.5q77 100 246 100q135 0 216 -65t81 -174q0 -116 -107 -182q135 -67 135 -211q0 -129 -89.5 -206t-238.5 -77t-231 76.5t-84 216.5h189q6 -135 133 -135q56 0 91.5 34.5t35.5 88.5q0 44 -26 76.5t-69 43.5q-41 9 -110 9z" />
    <glyph glyph-name="fiveeighths" unicode="&#x215d;" horiz-adv-x="1708" 
d="M1196 1464h178l-866 -1505h-178zM1536 475q75 -41 109 -94t34 -129q0 -124 -86 -202.5t-223 -78.5t-223 78.5t-86 202.5q0 76 34 129t109 94q-60 31 -86 73t-26 105q0 102 79.5 169t200.5 67q120 0 199.5 -67.5t79.5 -168.5q0 -64 -26.5 -105t-88.5 -73zM1372 750
q-57 0 -93 -31.5t-36 -81.5t36 -82.5t91 -32.5q58 0 94.5 32t36.5 83q0 50 -36 81.5t-93 31.5zM1370 406q-63 0 -100 -40t-37 -106q0 -65 37 -103t100 -38t100 38t37 101q0 69 -37 108.5t-100 39.5zM608 1487v-154h-360l-27 -182q67 53 150 53q121 0 196.5 -83.5
t75.5 -217.5q0 -141 -87 -229t-228 -88q-128 0 -208 72t-79 184h168q6 -109 123 -109q64 0 101.5 44.5t37.5 121.5q0 80 -37 125t-104 45q-81 0 -109 -68h-155l77 486h465z" />
    <glyph glyph-name="seveneighths" unicode="&#x215e;" horiz-adv-x="1708" 
d="M1137 1464h178l-866 -1505h-179zM1503 475q75 -41 109.5 -94t34.5 -129q0 -124 -86.5 -202.5t-223.5 -78.5t-223 78.5t-86 202.5q0 76 34 129t109 94q-60 31 -87 73t-27 105q0 102 79.5 169t200.5 67t201 -67.5t80 -168.5q0 -64 -26.5 -105t-88.5 -73zM1339 750
q-59 0 -95 -31t-36 -82t36 -83t93 -32q58 0 94.5 32t36.5 83t-36 82t-93 31zM1337 406q-63 0 -100 -40t-37 -106q0 -65 37 -103t100 -38t100.5 38t37.5 101q0 69 -37.5 108.5t-100.5 39.5zM721 1487v-135q-154 -188 -226.5 -359.5t-84.5 -378.5h-174q28 224 96 385t209 334
h-432v154h612z" />
    <glyph glyph-name="arrowleft" unicode="&#x2190;" horiz-adv-x="2048" 
d="M1870 575h-1356q37 -44 82 -132.5t45 -116.5q0 -13 -11 -23t-26 -10q-12 0 -20.5 7t-32.5 34q-62 72 -136 129.5t-186 120.5q-31 17 -43 28t-12 21q0 14 7 22.5t34 22.5q151 90 212.5 139.5t137.5 140.5q20 23 39 23q15 0 26 -10t11 -23q0 -12 -16.5 -55.5t-32.5 -73.5
q-37 -66 -78 -121h1356v-123z" />
    <glyph glyph-name="arrowup" unicode="&#x2191;" horiz-adv-x="1024" 
d="M430 -219v1356q-46 -37 -134 -82t-116 -45q-13 0 -23 11t-10 26q0 12 7 20.5t34 32.5q72 62 129.5 135.5t120.5 185.5q31 56 49 56q14 0 22.5 -7t22.5 -34q90 -150 139.5 -212.5t141.5 -138.5q23 -20 23 -38q0 -15 -10 -26t-23 -11q-12 0 -55.5 16.5t-73.5 32.5
q-66 37 -121 78v-1356h-123z" />
    <glyph glyph-name="arrowright" unicode="&#x2192;" horiz-adv-x="2048" 
d="M174 575v123h1356q-55 75 -86 138q-12 25 -26.5 64t-14.5 48q0 13 11 23t26 10q19 0 39 -23q78 -93 145 -145.5t221 -142.5q25 -16 25 -37q0 -10 -12 -21t-43 -28q-112 -63 -186 -120.5t-136 -129.5q-24 -27 -32.5 -34t-20.5 -7q-15 0 -26 10t-11 23q0 28 45 116.5
t82 132.5h-1356z" />
    <glyph glyph-name="arrowdown" unicode="&#x2193;" horiz-adv-x="1024" 
d="M553 1477v-1356q44 37 133 82t117 45q13 0 23 -11t10 -26q0 -12 -7 -20.5t-34 -32.5q-72 -62 -129.5 -136t-120.5 -186q-17 -31 -28 -43t-21 -12q-14 0 -22.5 7t-22.5 34q-89 150 -139 212t-142 138q-23 20 -23 39q0 15 10 26t23 11q12 0 55.5 -16.5t73.5 -32.5
q66 -37 121 -78v1356h123z" />
    <glyph glyph-name="arrowboth" unicode="&#x2194;" horiz-adv-x="2048" 
d="M1460 573h-874q51 -67 88 -137q13 -26 27 -63.5t14 -46.5q0 -13 -11 -23t-26 -10q-13 0 -21 6t-36 39q-67 78 -134.5 129.5t-212.5 136.5q-24 15 -24 37q0 10 12 21t43 28q113 64 185.5 121t134.5 129q24 27 32.5 34t20.5 7q15 0 26 -9.5t11 -21.5q0 -29 -44 -116
t-85 -138h874q-38 45 -82.5 134.5t-44.5 117.5q0 13 11 23t26 10q12 0 21.5 -7.5t31.5 -33.5q60 -70 133.5 -127.5t186.5 -122.5q33 -19 44 -29t11 -20q0 -16 -7 -24t-32 -21q-147 -88 -211.5 -139.5t-138.5 -141.5q-20 -22 -39 -22q-15 0 -26 10t-11 25q0 29 38 102.5
t89 142.5z" />
    <glyph glyph-name="arrowupdn" unicode="&#x2195;" horiz-adv-x="1024" 
d="M432 272l-2 865q-46 -37 -134 -82t-116 -45q-13 0 -23 11t-10 26q0 12 7 20.5t34 32.5q72 62 129.5 135.5t120.5 185.5q31 56 49 56q14 0 22.5 -7t22.5 -34q90 -150 139.5 -212.5t141.5 -138.5q23 -20 23 -38q0 -15 -10 -26t-23 -11q-12 0 -55.5 16.5t-73.5 32.5
q-66 37 -121 78l2 -865q71 54 137 88q25 12 64.5 26.5t48.5 14.5q14 0 23.5 -10.5t9.5 -25.5q0 -19 -23 -39q-92 -76 -145 -143.5t-144 -223.5q-16 -25 -37 -25q-18 0 -49 56q-63 112 -120.5 185.5t-129.5 135.5q-26 23 -33 32.5t-7 21.5q0 15 9.5 25.5t22.5 10.5
q28 0 115.5 -45t134.5 -84z" />
    <glyph glyph-name="uni2196" unicode="&#x2196;" horiz-adv-x="1478" 
d="M397 1157l893 -895l-86 -86l-893 895v-303h-125v514h512v-125h-301z" />
    <glyph glyph-name="uni2197" unicode="&#x2197;" horiz-adv-x="1478" 
d="M1081 1157h-303v125h514v-514h-125v303l-895 -895l-86 86z" />
    <glyph glyph-name="uni2198" unicode="&#x2198;" horiz-adv-x="1478" 
d="M1081 301l-895 895l86 86l895 -895v303h125v-514h-514v125h303z" />
    <glyph glyph-name="uni2199" unicode="&#x2199;" horiz-adv-x="1478" 
d="M397 301h301v-125h-512v514h125v-303l893 895l86 -86z" />
    <glyph glyph-name="arrowupdnbse" unicode="&#x21a8;" horiz-adv-x="1024" 
d="M246 -139h540v-88h-540v88zM432 385l-2 864q-44 -37 -133 -82t-117 -45q-13 0 -23 11t-10 26q0 12 7 20.5t34 32.5q72 62 129.5 136t120.5 186q17 31 28 43t21 12q14 0 22.5 -7t22.5 -34q89 -150 139 -212t142 -138q23 -20 23 -39q0 -15 -10 -26t-23 -11
q-12 0 -55.5 16.5t-73.5 32.5q-55 31 -121 78l2 -864q77 57 137 86q25 12 64.5 26.5t48.5 14.5q13 0 23 -11t10 -26q0 -19 -23 -39q-92 -76 -145 -143.5t-144 -222.5q-16 -25 -37 -25q-10 0 -21 12t-28 43q-63 112 -120.5 186t-129.5 136q-27 24 -33.5 32.5t-6.5 20.5
q0 15 9.5 26t22.5 11q28 0 116.5 -44.5t133.5 -82.5z" />
    <glyph glyph-name="carriagereturn" unicode="&#x21b5;" horiz-adv-x="2048" 
d="M1810 1079v-499h-1275l430 -168l-47 -107l-586 262v158l586 260l47 -108l-430 -166h1144v368h131z" />
    <glyph glyph-name="arrowdblleft" unicode="&#x21d0;" horiz-adv-x="1478" 
d="M162 604l168 -145h1130v-86h-1030l123 -107v-116l-537 454l537 455v-117l-123 -106h1030v-86h-1130z" />
    <glyph glyph-name="arrowdblup" unicode="&#x21d1;" horiz-adv-x="1478" 
d="M739 1182l-145 -168v-1014h-86v913l-107 -122h-116l454 536l455 -536h-117l-106 122v-913h-86v1014z" />
    <glyph glyph-name="arrowdblright" unicode="&#x21d2;" horiz-adv-x="1478" 
d="M1317 604l-168 146h-1131v86h1031l-123 106v117l536 -455l-536 -454v116l123 107h-1031v86h1131z" />
    <glyph glyph-name="arrowdbldown" unicode="&#x21d3;" horiz-adv-x="1478" 
d="M739 145l146 168v1014h86v-913l106 123h117l-455 -537l-454 537h116l107 -123v913h86v-1014z" />
    <glyph glyph-name="arrowdblboth" unicode="&#x21d4;" horiz-adv-x="1478" 
d="M426 836h635l-123 106v117l537 -455l-537 -454v116l123 107h-635l123 -107v-116l-537 454l537 455v-117zM326 750l-168 -146l168 -145h835l168 145l-168 146h-835z" />
    <glyph glyph-name="universal" unicode="&#x2200;" horiz-adv-x="569" 
d="M549 956l139 410h195l-480 -1366h-225l-487 1366h186l143 -410h529zM500 811h-434l223 -623z" />
    <glyph glyph-name="partialdiff" unicode="&#x2202;" horiz-adv-x="1011" 
d="M217 1372l-82 107q126 57 271 57q155 0 278 -90.5t192.5 -252.5t69.5 -364q0 -161 -38.5 -337.5t-96.5 -280.5q-135 -242 -369 -242q-164 0 -276.5 115.5t-112.5 282.5q0 99 40.5 196.5t111.5 169.5q103 103 250 103q83 0 142 -26t165 -108q22 150 22 230
q0 114 -30 221.5t-82 179.5q-75 107 -226 107q-58 0 -86.5 -8.5t-142.5 -59.5zM748 623q-81 129 -216 129q-123 0 -211 -128t-88 -307q0 -133 48.5 -207.5t134.5 -74.5q83 0 151 65t109 185q35 107 72 338z" />
    <glyph glyph-name="existential" unicode="&#x2203;" horiz-adv-x="872" 
d="M651 643h-714v256h714v338h-772v256h1079v-1493h-1116v256h809v387z" />
    <glyph glyph-name="emptyset" unicode="&#x2205;" horiz-adv-x="2048" 
d="M213 78l248 207q-119 186 -119 397q0 115 35 223.5t99.5 195.5t150 152.5t191.5 101.5t220 36q285 0 496 -211l225 190l66 -78l-228 -188q136 -194 136 -422q0 -144 -55 -275.5t-148.5 -226.5t-222 -151t-269.5 -56q-302 0 -516 234l-246 -205zM539 350l919 768
q-176 182 -422 182q-161 0 -297.5 -82.5t-215.5 -225t-79 -310.5q0 -172 95 -332zM1522 1040l-924 -772q181 -205 440 -205q120 0 229.5 49t189 131.5t126.5 197t47 239.5q0 203 -108 360z" />
    <glyph glyph-name="Delta" unicode="&#x2206;" horiz-adv-x="1253" 
d="M-104 0l532 1493h395l533 -1493h-1460zM299 256h653l-327 1001z" />
    <glyph glyph-name="gradient" unicode="&#x2207;" horiz-adv-x="1517" 
d="M141 1290h1237l-530 -1290h-180zM758 209l375 932h-748z" />
    <glyph glyph-name="element" unicode="&#x2208;" horiz-adv-x="2048" 
d="M1571 442h-946q9 -162 95.5 -240t254.5 -75h596v-127h-574q-105 0 -159 7.5t-107 29.5q-122 53 -188 176t-66 301q0 298 203 432q57 38 123.5 52t193.5 14h574v-127h-596q-168 3 -254.5 -75.5t-95.5 -242.5h946v-125z" />
    <glyph glyph-name="notelement" unicode="&#x2209;" horiz-adv-x="2048" 
d="M1081 442l-178 -313q18 -2 72 -2h596v-127h-574q-92 0 -163 8l-78 -137l-88 47l67 117q-124 52 -191 176t-67 303q0 297 201 432q59 38 125.5 52t193.5 14h293l96 170l87 -49l-68 -121h166v-127h-238l-180 -318h418v-125h-490zM967 442h-342q4 -110 50 -185t126 -103z
M1219 885h-244q-168 3 -254.5 -75.5t-95.5 -242.5h413z" />
    <glyph glyph-name="suchthat" unicode="&#x220b;" horiz-adv-x="2048" 
d="M477 442v125h946q-15 324 -350 318h-596v127h574q105 0 159 -7.5t107 -29.5q119 -51 186.5 -174t67.5 -289q0 -312 -201 -446q-59 -38 -125.5 -52t-193.5 -14h-574v127h596q335 -9 350 315h-946z" />
    <glyph glyph-name="product" unicode="&#x220f;" horiz-adv-x="1685" 
d="M49 1505v51h1585v-51q-62 -2 -98.5 -11t-59 -33t-30 -61t-6.5 -100v-1222q-1 -63 6.5 -100t30 -61t59 -33t98.5 -11v-51h-624v51q121 4 158.5 43.5t37.5 161.5v1368h-727v-1368q-1 -121 37 -160.5t160 -44.5v-51h-627v51q122 5 160 44.5t37 160.5v1222q1 121 -37 160.5
t-160 44.5z" />
    <glyph glyph-name="summation" unicode="&#x2211;" horiz-adv-x="1228" 
d="M1083 1542l13 -325h-39q-31 138 -83 183t-183 48h-474l488 -725l-524 -688h616q48 -1 78.5 1.5t59 12t45.5 23.5t35.5 42t32 62.5t32.5 89.5h45q-39 -163 -49 -248q-3 -21 -11 -76t-12 -85q0 -7 -6 -37h-1145l623 813l-623 909h1081z" />
    <glyph glyph-name="minus" unicode="&#x2212;" horiz-adv-x="1196" 
d="M1114 596v-244h-1032v244h1032z" />
    <glyph glyph-name="uni2213" unicode="&#x2213;" horiz-adv-x="2048" 
d="M485 1243v113h1074v-113h-1074zM1081 0h-112v489h-486v113h486v490h112v-490h486v-113h-486v-489z" />
    <glyph glyph-name="uni2215" unicode="&#x2215;" horiz-adv-x="569" 
d="M625 1464h178l-866 -1505h-179z" />
    <glyph glyph-name="asteriskmath" unicode="&#x2217;" horiz-adv-x="2048" 
d="M946 496l-215 75l78 134l172 -150l-39 227h164l-39 -227l172 150l78 -134l-215 -75l215 -78l-78 -133l-172 149l39 -227h-164l39 227l-172 -149l-78 133z" />
    <glyph glyph-name="uni2219" unicode="&#x2219;" horiz-adv-x="569" 
d="M131 598h254v-252h-254v252z" />
    <glyph glyph-name="radical" unicode="&#x221a;" horiz-adv-x="1124" 
d="M981 1870l74 -10l-312 -1934l-493 1018l-193 -94l-37 68l304 149l395 -811z" />
    <glyph glyph-name="proportional" unicode="&#x221d;" horiz-adv-x="2048" 
d="M1397 342v-127q-92 -4 -187 50.5t-182 160.5q-38 -45 -59 -66q-61 -69 -139 -106t-158 -37q-120 0 -194.5 77t-74.5 200q0 124 77.5 203t197.5 79q183 0 350 -209q158 209 344 209h25v-125h-13q-66 0 -127 -36t-131 -117q81 -89 138.5 -121.5t132.5 -34.5zM928 498
q-19 19 -39 37q-73 68 -117.5 92t-97.5 24q-69 0 -109.5 -41.5t-40.5 -111.5t38 -113t100 -43q63 0 118.5 30.5t126.5 102.5q13 13 21 23z" />
    <glyph glyph-name="infinity" unicode="&#x221e;" horiz-adv-x="1460" 
d="M729 608q99 87 150 125q56 43 122 68.5t121 25.5q119 0 203 -84t84 -202q0 -119 -84.5 -203t-202.5 -84q-57 0 -122 25.5t-121 68.5q-51 38 -150 125q-102 -91 -147 -125q-58 -43 -123 -68.5t-121 -25.5q-118 0 -202.5 84t-84.5 203q0 118 84 202t203 84
q55 0 121.5 -25.5t122.5 -68.5q45 -34 147 -125zM803 541q88 -88 170.5 -135.5t146.5 -47.5q75 0 129 54t54 129q0 74 -54 127t-129 53q-134 0 -317 -180zM657 541q-87 87 -169.5 133.5t-147.5 46.5q-75 0 -128.5 -53t-53.5 -127t53.5 -127.5t128.5 -53.5q133 0 317 181z
" />
    <glyph glyph-name="orthogonal" unicode="&#x221f;" horiz-adv-x="2004" 
d="M102 0v1782h136v-1647h1667v-135h-1803z" />
    <glyph glyph-name="angle" unicode="&#x2220;" horiz-adv-x="2048" 
d="M1317 854l59 -68l-721 -700h961v-86h-1184z" />
    <glyph glyph-name="uni2223" unicode="&#x2223;" horiz-adv-x="1478" 
d="M809 1368v-1368h-137v1368h137z" />
    <glyph glyph-name="uni2225" unicode="&#x2225;" horiz-adv-x="1478" 
d="M965 0h-138v1368h138v-1368zM651 1368v-1368h-137v1368h137z" />
    <glyph glyph-name="uni2227" unicode="&#x2227;" horiz-adv-x="2048" 
d="M1092 1051l458 -1051h-164l-362 838l-362 -838h-164l458 1051h136z" />
    <glyph glyph-name="uni2228" unicode="&#x2228;" horiz-adv-x="2048" 
d="M1092 0h-136l-458 1051h164l362 -838l362 838h164z" />
    <glyph glyph-name="intersection" unicode="&#x2229;" horiz-adv-x="1478" 
d="M1249 0h-157v553q0 185 -12 271.5t-46 138.5q-46 69 -124.5 109t-170.5 40q-100 0 -183.5 -47.5t-123.5 -126.5q-25 -47 -35 -135t-10 -250v-553h-158v547q0 245 16 338t72 168q142 198 422 198q148 0 264.5 -60.5t182.5 -172.5q39 -68 51 -158t12 -313v-547z" />
    <glyph glyph-name="union" unicode="&#x222a;" horiz-adv-x="2048" 
d="M1475 1145v-504q0 -228 -14.5 -311t-65.5 -152q-63 -86 -158.5 -132t-212.5 -46q-128 0 -230.5 54.5t-160.5 154.5q-37 62 -48.5 142.5t-11.5 289.5v504h123v-510q0 -172 12.5 -251t47.5 -130q43 -61 115.5 -97t152.5 -36q91 0 170 45t117 119q23 44 32 119.5t9 230.5
v510h123z" />
    <glyph glyph-name="integral" unicode="&#x222b;" horiz-adv-x="561" 
d="M385 1071v-469q0 -266 -9 -401.5t-34 -233.5q-22 -89 -68 -135.5t-114 -46.5q-54 0 -91.5 33t-37.5 80q0 41 29 70.5t69 29.5t72 -29q16 -16 22.5 -20t16.5 -4q36 0 36 57q0 27 -12 156q-28 295 -28 428v467q0 270 9 403t34 232q22 89 68 135.5t112 46.5q54 0 91.5 -32.5
t37.5 -78.5q0 -43 -29 -72.5t-70 -29.5q-40 0 -71 31q-16 16 -22.5 20t-16.5 4q-37 0 -37 -57q0 -27 12 -156q31 -327 31 -428z" />
    <glyph glyph-name="uni222E" unicode="&#x222e;" horiz-adv-x="2048" 
d="M868 244v116q-123 50 -196.5 157t-73.5 239t73.5 240t196.5 155v18q1 220 4.5 268.5t18.5 106.5q31 114 131.5 181t241.5 67q73 0 178 -23l-49 -272q-56 23 -93 23q-84 0 -112 -74q-10 -25 -10 -131v-164q120 -46 194 -155t74 -240t-73.5 -240t-194.5 -156v-55
q0 -223 -3 -271.5t-20 -109.5q-32 -118 -135.5 -180.5t-263.5 -62.5q-97 0 -152 18l49 272q54 -22 88 -22q43 0 74 19.5t43 54.5q8 20 9 47.5t1 173.5zM868 551v412q-102 -76 -102 -207q0 -129 102 -205zM1178 961v-410q100 80 100 205t-100 205z" />
    <glyph glyph-name="therefore" unicode="&#x2234;" horiz-adv-x="2048" 
d="M1028 1124q50 0 81.5 -32.5t31.5 -83.5q0 -50 -33 -83.5t-84 -33.5t-84 33t-33 84q0 53 33 84.5t88 31.5zM522 233q47 0 80 -33.5t33 -82.5q0 -51 -33 -84t-84 -33t-84 33t-33 84q0 52 33.5 84t87.5 32zM1534 233q47 0 80 -33.5t33 -82.5q0 -51 -33 -84t-84 -33t-84 33
t-33 84q0 52 33.5 84t87.5 32z" />
    <glyph glyph-name="uni2235" unicode="&#x2235;" horiz-adv-x="2048" 
d="M1026 254q54 0 89.5 -36.5t35.5 -90.5q0 -56 -35 -91.5t-90 -35.5q-58 0 -93.5 35t-35.5 92q0 55 36.5 91t92.5 36zM473 1225q54 0 89.5 -36.5t35.5 -90.5q0 -55 -35.5 -91t-89.5 -36q-57 0 -93 35.5t-36 91.5t36 91.5t93 35.5zM1579 1225q54 0 89.5 -36.5t35.5 -90.5
q0 -55 -35.5 -91t-89.5 -36q-57 0 -93 35.5t-36 91.5t36 91.5t93 35.5z" />
    <glyph glyph-name="uni2237" unicode="&#x2237;" horiz-adv-x="2048" 
d="M530 254q54 0 89.5 -36.5t35.5 -90.5q0 -55 -35.5 -91t-91.5 -36t-91.5 36t-35.5 91q0 56 36 91.5t93 35.5zM1520 254q54 0 89.5 -36.5t35.5 -90.5q0 -55 -35.5 -91t-91.5 -36t-91.5 36t-35.5 91q0 56 36 91.5t93 35.5zM530 1227q54 0 89.5 -36t35.5 -91
q0 -56 -35.5 -91.5t-91.5 -35.5t-91.5 35.5t-35.5 91.5t36 91.5t93 35.5zM1520 1227q54 0 89.5 -36t35.5 -91q0 -56 -35.5 -91.5t-91.5 -35.5t-91.5 35.5t-35.5 91.5t36 91.5t93 35.5z" />
    <glyph glyph-name="congruent" unicode="&#x2245;" horiz-adv-x="569" 
d="M776 559v-104h-985v104h985zM776 301v-102h-985v102h985zM688 891l74 -64q-88 -159 -270 -159q-45 0 -74 6t-139 41q-128 37 -154 43t-57 6q-53 0 -86.5 -21.5t-98.5 -95.5l-82 64q110 157 271 157q40 0 83 -9.5t150 -41.5q95 -29 128 -37t59 -8q55 0 93 23t103 96z" />
    <glyph glyph-name="approxequal" unicode="&#x2248;" horiz-adv-x="1124" 
d="M981 821l78 -127q-66 -77 -101 -112q-70 -70 -165 -70q-41 0 -81 8t-157 39q-155 41 -217 41t-107 -22.5t-90 -77.5l-75 100q17 21 36 53q40 58 58 80t41 39q68 53 145 53q64 0 250 -49q91 -25 125.5 -32t73.5 -7q60 0 100 18.5t86 65.5zM981 438l78 -127
q-67 -79 -101 -110q-69 -72 -165 -72q-41 0 -81 8t-157 39q-155 41 -217 41t-107 -22.5t-90 -77.5l-75 100q8 12 20.5 30.5t15.5 22.5q59 90 99 119q68 53 145 53q64 0 250 -49q91 -25 125.5 -32t73.5 -7q60 0 100 18.5t86 65.5z" />
    <glyph glyph-name="notequal" unicode="&#x2260;" horiz-adv-x="1124" 
d="M252 106h-150v244h281l139 248h-420v244h557l134 239l200 -114l-71 -125h172v-244h-308l-139 -248h447v-244h-584l-139 -247l-199 114z" />
    <glyph glyph-name="equivalence" unicode="&#x2261;" horiz-adv-x="1193" 
d="M1094 596v-244h-992v244h992zM1094 104v-243h-992v243h992zM1094 1087v-243h-992v243h992z" />
    <glyph glyph-name="lessequal" unicode="&#x2264;" horiz-adv-x="1124" 
d="M1059 166v-186h-1002v186h1002zM1059 1309v-224l-783 -272l783 -268v-228l-1002 373v246z" />
    <glyph glyph-name="greaterequal" unicode="&#x2265;" horiz-adv-x="1124" 
d="M1059 166v-186h-1002v186h1002zM57 317v224l783 272l-783 268v228l1002 -373v-248z" />
    <glyph glyph-name="propersubset" unicode="&#x2282;" horiz-adv-x="2048" 
d="M1571 127v-127h-574q-105 0 -159 7.5t-107 29.5q-122 53 -188 176.5t-66 300.5q0 298 203 432q57 38 123.5 52t193.5 14h574v-127h-596q-186 0 -270 -90.5t-84 -288.5q0 -199 84 -289t270 -90h596z" />
    <glyph glyph-name="propersuperset" unicode="&#x2283;" horiz-adv-x="2048" 
d="M477 127h596q186 0 270 90t84 289t-84 289t-270 90h-596v127h574q105 0 159 -7.5t107 -29.5q120 -51 187 -175t67 -294q0 -307 -201 -440q-59 -38 -125.5 -52t-193.5 -14h-574v127z" />
    <glyph glyph-name="notsubset" unicode="&#x2284;" horiz-adv-x="2048" 
d="M870 4l-77 -133l-84 53l57 101q-138 44 -213.5 171.5t-75.5 317.5q0 297 201 432q59 38 125.5 52t193.5 14h349l88 149l86 -51l-58 -98h109v-127h-185l-444 -758h33h596v-127h-574q-82 0 -127 4zM1272 885h-297q-186 0 -270 -90.5t-84 -288.5q0 -307 215 -365z" />
    <glyph glyph-name="uni2285" unicode="&#x2285;" horiz-adv-x="2048" 
d="M635 0h-209v137h289l483 824q-47 8 -121 8h-651v137h625q139 0 223 -16l104 178l95 -54l-97 -163q244 -137 244 -506q0 -161 -56 -283t-163 -192q-63 -40 -137.5 -55t-212.5 -15h-291l-82 -141l-92 59zM1303 924l-461 -787h235q203 0 295 99t92 317q0 284 -161 371z" />
    <glyph glyph-name="reflexsubset" unicode="&#x2286;" horiz-adv-x="2048" 
d="M1571 340v-127h-574q-139 0 -210 17.5t-132 66.5q-178 138 -178 430q0 300 203 434q57 38 123.5 52t193.5 14h574v-127h-596q-186 0 -270 -90.5t-84 -288.5q0 -200 84 -290.5t270 -90.5h596zM1571 113v-113h-1094v113h1094z" />
    <glyph glyph-name="reflexsuperset" unicode="&#x2287;" horiz-adv-x="2048" 
d="M477 340h596q186 0 270 90.5t84 290.5q0 199 -84 289t-270 90h-596v127h574q105 0 159 -7.5t107 -29.5q120 -51 187 -175t67 -296q0 -307 -201 -440q-59 -38 -125.5 -52t-193.5 -14h-574v127zM1571 113v-113h-1094v113h1094z" />
    <glyph glyph-name="uni2295" unicode="&#x2295;" horiz-adv-x="2048" 
d="M1034 1288q127 0 244.5 -51.5t202.5 -137.5t135.5 -204.5t50.5 -247.5q0 -175 -87 -324t-236 -236t-324 -87q-174 0 -321.5 85.5t-233.5 233t-86 320.5q0 134 51 254t138.5 206.5t209 137.5t256.5 51zM1087 709h461q-23 183 -150.5 310t-310.5 150v-460zM967 709v460
q-183 -23 -310.5 -150t-150.5 -310h461zM1087 588v-461q183 23 311 150.5t150 310.5h-461zM967 588h-461q22 -183 150 -310.5t311 -150.5v461z" />
    <glyph glyph-name="circlemultiply" unicode="&#x2297;" horiz-adv-x="2048" 
d="M1036 1288q169 0 315 -87t232 -235.5t86 -320.5q0 -175 -86.5 -323.5t-234.5 -235t-322 -86.5q-176 0 -324.5 86.5t-234.5 236t-86 326.5q0 174 87 321t238 232.5t330 85.5zM1024 731l326 326q-140 112 -326 112t-326 -112zM938 645l-326 326q-112 -144 -112 -326
q0 -181 112 -326zM1110 645l326 -326q110 141 110 326q0 183 -110 326zM1024 559l-326 -326q134 -112 326 -112t326 112z" />
    <glyph glyph-name="perpendicular" unicode="&#x22a5;" horiz-adv-x="2048" 
d="M963 1225h124v-1100h549v-125h-1224v125h551v1100z" />
    <glyph glyph-name="house" unicode="&#x2302;" horiz-adv-x="1236" 
d="M55 0v821l563 672l564 -672v-821h-1127zM160 104h917v672l-459 553l-458 -553v-672z" />
    <glyph glyph-name="revlogicalnot" unicode="&#x2310;" horiz-adv-x="1196" 
d="M1096 649h-836v-473h-158v631h994v-158z" />
    <glyph glyph-name="integraltp" unicode="&#x2320;" horiz-adv-x="1236" 
d="M723 -446h-150v1499q0 270 9 403t34 232q22 89 68.5 135.5t112.5 46.5q54 0 91.5 -32.5t37.5 -78.5q0 -43 -29 -72.5t-70 -29.5q-40 0 -71 31q-16 16 -22.5 20t-16.5 4q-37 0 -37 -57q0 -27 12 -156q31 -327 31 -430v-1515z" />
    <glyph glyph-name="integralbt" unicode="&#x2321;" horiz-adv-x="1236" 
d="M571 1870h150v-1499q0 -272 -9 -404t-34 -231q-22 -89 -68 -135.5t-112 -46.5q-54 0 -91.5 32t-37.5 78q0 43 28.5 73t69.5 30t72 -31q17 -17 23.5 -21t15.5 -4q36 0 36 58q0 26 -12 155q-31 327 -31 428v1518z" />
    <glyph glyph-name="angleleft" unicode="&#x2329;" horiz-adv-x="681" 
d="M119 487l356 697q26 49 62 49q26 0 26 -25q0 -20 -10 -47l-268 -674l268 -673q10 -27 10 -47q0 -23 -26 -23q-39 0 -62 47z" />
    <glyph glyph-name="angleright" unicode="&#x232a;" horiz-adv-x="681" 
d="M563 487l-356 -696q-27 -47 -62 -47q-26 0 -26 25q0 22 10 45l268 673l-268 674q-10 30 -10 47q0 25 26 25q37 0 62 -49z" />
    <glyph glyph-name="SF100000" unicode="&#x2500;" horiz-adv-x="1449" 
d="M-299 444v136h2048v-136h-2048z" />
    <glyph glyph-name="SF110000" unicode="&#x2502;" horiz-adv-x="1280" 
d="M573 -512v2048h136v-2048h-136z" />
    <glyph glyph-name="SF010000" unicode="&#x250c;" horiz-adv-x="1449" 
d="M1749 580v-136h-956v-956h-136v1092h1092z" />
    <glyph glyph-name="SF030000" unicode="&#x2510;" horiz-adv-x="1449" 
d="M657 444h-956v136h1092v-1092h-136v956z" />
    <glyph glyph-name="SF020000" unicode="&#x2514;" horiz-adv-x="1449" 
d="M793 580h956v-136h-1092v1092h136v-956z" />
    <glyph glyph-name="SF040000" unicode="&#x2518;" horiz-adv-x="1449" 
d="M-299 444v136h956v956h136v-1092h-1092z" />
    <glyph glyph-name="SF080000" unicode="&#x251c;" horiz-adv-x="1449" 
d="M793 580h956v-136h-956v-956h-136v2048h136v-956z" />
    <glyph glyph-name="SF090000" unicode="&#x2524;" horiz-adv-x="1449" 
d="M657 444h-956v136h956v956h136v-2048h-136v956z" />
    <glyph glyph-name="SF060000" unicode="&#x252c;" horiz-adv-x="1449" 
d="M793 444v-956h-136v956h-956v136h2048v-136h-956z" />
    <glyph glyph-name="SF070000" unicode="&#x2534;" horiz-adv-x="1449" 
d="M657 580v956h136v-956h956v-136h-2048v136h956z" />
    <glyph glyph-name="SF050000" unicode="&#x253c;" horiz-adv-x="1449" 
d="M657 444h-956v136h956v956h136v-956h956v-136h-956v-956h-136v956z" />
    <glyph glyph-name="SF430000" unicode="&#x2550;" horiz-adv-x="1449" 
d="M-299 309v135h2048v-135h-2048zM-299 580v135h2048v-135h-2048z" />
    <glyph glyph-name="SF240000" unicode="&#x2551;" horiz-adv-x="1449" 
d="M522 -512v2048h135v-2048h-135zM793 -512v2048h135v-2048h-135z" />
    <glyph glyph-name="SF510000" unicode="&#x2552;" horiz-adv-x="1449" 
d="M657 -512v1227h1092v-135h-956v-136h956v-135h-956v-821h-136z" />
    <glyph glyph-name="SF520000" unicode="&#x2553;" horiz-adv-x="1449" 
d="M793 444h-136v-956h-135v1092h1227v-136h-821v-956h-135v956z" />
    <glyph glyph-name="SF390000" unicode="&#x2554;" horiz-adv-x="1449" 
d="M657 580v-1092h-135v1227h1227v-135h-1092zM928 309v-821h-135v956h956v-135h-821z" />
    <glyph glyph-name="SF220000" unicode="&#x2555;" horiz-adv-x="1449" 
d="M657 309h-956v135h956v136h-956v135h1092v-1227h-136v821z" />
    <glyph glyph-name="SF210000" unicode="&#x2556;" horiz-adv-x="1449" 
d="M657 444v-956h-135v956h-821v136h1227v-1092h-135v956h-136z" />
    <glyph glyph-name="SF250000" unicode="&#x2557;" horiz-adv-x="1449" 
d="M793 580h-1092v135h1227v-1227h-135v1092zM522 309h-821v135h956v-956h-135v821z" />
    <glyph glyph-name="SF500000" unicode="&#x2558;" horiz-adv-x="1449" 
d="M657 1536h136v-821h956v-135h-956v-136h956v-135h-1092v1227z" />
    <glyph glyph-name="SF490000" unicode="&#x2559;" horiz-adv-x="1449" 
d="M793 580v956h135v-956h821v-136h-1227v1092h135v-956h136z" />
    <glyph glyph-name="SF380000" unicode="&#x255a;" horiz-adv-x="1449" 
d="M657 444h1092v-135h-1227v1227h135v-1092zM928 715h821v-135h-956v956h135v-821z" />
    <glyph glyph-name="SF280000" unicode="&#x255b;" horiz-adv-x="1449" 
d="M657 715v821h136v-1227h-1092v135h956v136h-956v135h956z" />
    <glyph glyph-name="SF270000" unicode="&#x255c;" horiz-adv-x="1449" 
d="M657 580h136v956h135v-1092h-1227v136h821v956h135v-956z" />
    <glyph glyph-name="SF260000" unicode="&#x255d;" horiz-adv-x="1449" 
d="M793 444v1092h135v-1227h-1227v135h1092zM522 715v821h135v-956h-956v135h821z" />
    <glyph glyph-name="SF360000" unicode="&#x255e;" horiz-adv-x="1449" 
d="M657 1536h136v-821h956v-135h-956v-136h956v-135h-956v-821h-136v2048z" />
    <glyph glyph-name="SF370000" unicode="&#x255f;" horiz-adv-x="1449" 
d="M928 444v-956h-135v2048h135v-956h821v-136h-821zM657 -512h-135v2048h135v-2048z" />
    <glyph glyph-name="SF420000" unicode="&#x2560;" horiz-adv-x="1449" 
d="M522 -512v2048h135v-2048h-135zM928 715h821v-135h-956v956h135v-821zM928 309v-821h-135v956h956v-135h-821z" />
    <glyph glyph-name="SF190000" unicode="&#x2561;" horiz-adv-x="1449" 
d="M657 715v821h136v-2048h-136v821h-956v135h956v136h-956v135h956z" />
    <glyph glyph-name="SF200000" unicode="&#x2562;" horiz-adv-x="1449" 
d="M522 444h-821v136h821v956h135v-2048h-135v956zM793 -512v2048h135v-2048h-135z" />
    <glyph glyph-name="SF230000" unicode="&#x2563;" horiz-adv-x="1449" 
d="M928 -512h-135v2048h135v-2048zM522 715v821h135v-956h-956v135h821zM522 309h-821v135h956v-956h-135v821z" />
    <glyph glyph-name="SF470000" unicode="&#x2564;" horiz-adv-x="1449" 
d="M-299 715h2048v-135h-2048v135zM657 309h-956v135h2048v-135h-956v-821h-136v821z" />
    <glyph glyph-name="SF480000" unicode="&#x2565;" horiz-adv-x="1449" 
d="M522 444h-821v136h2048v-136h-821v-956h-135v956h-136v-956h-135v956z" />
    <glyph glyph-name="SF410000" unicode="&#x2566;" horiz-adv-x="1449" 
d="M-299 715h2048v-135h-2048v135zM928 309v-821h-135v956h956v-135h-821zM522 309h-821v135h956v-956h-135v821z" />
    <glyph glyph-name="SF450000" unicode="&#x2567;" horiz-adv-x="1449" 
d="M-299 309v135h2048v-135h-2048zM657 715v821h136v-821h956v-135h-2048v135h956z" />
    <glyph glyph-name="SF460000" unicode="&#x2568;" horiz-adv-x="1449" 
d="M-299 444v136h821v956h135v-956h136v956h135v-956h821v-136h-2048z" />
    <glyph glyph-name="SF400000" unicode="&#x2569;" horiz-adv-x="1449" 
d="M-299 309v135h2048v-135h-2048zM928 715h821v-135h-956v956h135v-821zM522 715v821h135v-956h-956v135h821z" />
    <glyph glyph-name="SF540000" unicode="&#x256a;" horiz-adv-x="1449" 
d="M657 444v136h-956v135h956v821h136v-821h956v-135h-956v-136h956v-135h-956v-821h-136v821h-956v135h956z" />
    <glyph glyph-name="SF530000" unicode="&#x256b;" horiz-adv-x="1449" 
d="M522 444h-821v136h821v956h135v-956h136v956h135v-956h821v-136h-821v-956h-135v956h-136v-956h-135v956z" />
    <glyph glyph-name="SF440000" unicode="&#x256c;" horiz-adv-x="1449" 
d="M928 715h821v-135h-956v956h135v-821zM522 715v821h135v-956h-956v135h821zM928 309v-821h-135v956h956v-135h-821zM522 309h-821v135h956v-956h-135v821z" />
    </font>
</defs>
</svg>
